Hubballi-Regular-20-LatinOnly-Decomp-105.ufo
<glyph name="numbersign" format="1">
  <advance width="596"/>
  <unicode hex="0023"/>
  <outline>
    <contour>
      <point x="509" y="512" type="curve" smooth="yes"/>
      <point x="324" y="4" type="line" smooth="yes"/>
      <point x="320" y="-6"/>
      <point x="308" y="-11"/>
      <point x="298" y="-8" type="curve" smooth="yes"/>
      <point x="288" y="-4"/>
      <point x="283" y="8"/>
      <point x="286" y="18" type="curve" smooth="yes"/>
      <point x="471" y="526" type="line" smooth="yes"/>
      <point x="475" y="536"/>
      <point x="487" y="541"/>
      <point x="497" y="538" type="curve" smooth="yes"/>
      <point x="507" y="534"/>
      <point x="512" y="522"/>
    </contour>
    <contour>
      <point x="299" y="512" type="curve" smooth="yes"/>
      <point x="114" y="4" type="line" smooth="yes"/>
      <point x="110" y="-6"/>
      <point x="98" y="-11"/>
      <point x="88" y="-8" type="curve" smooth="yes"/>
      <point x="78" y="-4"/>
      <point x="73" y="8"/>
      <point x="76" y="18" type="curve" smooth="yes"/>
      <point x="261" y="526" type="line" smooth="yes"/>
      <point x="265" y="536"/>
      <point x="277" y="541"/>
      <point x="287" y="538" type="curve" smooth="yes"/>
      <point x="297" y="534"/>
      <point x="302" y="522"/>
    </contour>
    <contour>
      <point x="544" y="364" type="curve" smooth="yes"/>
      <point x="119" y="364" type="line" smooth="yes"/>
      <point x="108" y="364"/>
      <point x="99" y="373"/>
      <point x="99" y="384" type="curve" smooth="yes"/>
      <point x="99" y="395"/>
      <point x="108" y="404"/>
      <point x="119" y="404" type="curve" smooth="yes"/>
      <point x="544" y="404" type="line" smooth="yes"/>
      <point x="555" y="404"/>
      <point x="564" y="395"/>
      <point x="564" y="384" type="curve" smooth="yes"/>
      <point x="564" y="373"/>
      <point x="555" y="364"/>
    </contour>
    <contour>
      <point x="471" y="154" type="curve" smooth="yes"/>
      <point x="47" y="154" type="line" smooth="yes"/>
      <point x="36" y="154"/>
      <point x="27" y="163"/>
      <point x="27" y="174" type="curve" smooth="yes"/>
      <point x="27" y="185"/>
      <point x="36" y="194"/>
      <point x="47" y="194" type="curve" smooth="yes"/>
      <point x="471" y="194" type="line" smooth="yes"/>
      <point x="482" y="194"/>
      <point x="491" y="185"/>
      <point x="491" y="174" type="curve" smooth="yes"/>
      <point x="491" y="163"/>
      <point x="482" y="154"/>
    </contour>
  </outline>
</glyph>
<glyph name="ampersand" format="1">
  <advance width="636"/>
  <unicode hex="0026"/>
  <outline>
    <contour>
      <point x="547" y="266" type="curve" smooth="yes"/>
      <point x="457" y="138" type="line" smooth="yes"/>
      <point x="373" y="19"/>
      <point x="311" y="-17"/>
      <point x="230" y="-17" type="curve" smooth="yes"/>
      <point x="129" y="-17"/>
      <point x="62" y="47"/>
      <point x="62" y="126" type="curve" smooth="yes"/>
      <point x="62" y="200"/>
      <point x="94" y="260"/>
      <point x="263" y="330" type="curve" smooth="yes"/>
      <point x="319" y="353"/>
      <point x="347" y="384"/>
      <point x="347" y="427" type="curve" smooth="yes"/>
      <point x="347" y="473"/>
      <point x="307" y="508"/>
      <point x="256" y="508" type="curve" smooth="yes"/>
      <point x="206" y="508"/>
      <point x="168" y="474"/>
      <point x="168" y="423" type="curve" smooth="yes"/>
      <point x="168" y="371"/>
      <point x="209" y="333"/>
      <point x="265" y="283" type="curve" smooth="yes"/>
      <point x="560" y="26" type="line" smooth="yes"/>
      <point x="568" y="19"/>
      <point x="569" y="6"/>
      <point x="562" y="-2" type="curve" smooth="yes"/>
      <point x="555" y="-10"/>
      <point x="542" y="-11"/>
      <point x="534" y="-4" type="curve" smooth="yes"/>
      <point x="239" y="253" type="line" smooth="yes"/>
      <point x="171" y="313"/>
      <point x="128" y="361"/>
      <point x="128" y="423" type="curve" smooth="yes"/>
      <point x="128" y="498"/>
      <point x="182" y="548"/>
      <point x="256" y="548" type="curve" smooth="yes"/>
      <point x="331" y="548"/>
      <point x="387" y="493"/>
      <point x="387" y="427" type="curve" smooth="yes"/>
      <point x="387" y="370"/>
      <point x="355" y="325"/>
      <point x="279" y="292" type="curve" smooth="yes"/>
      <point x="140" y="236"/>
      <point x="102" y="190"/>
      <point x="102" y="126" type="curve" smooth="yes"/>
      <point x="102" y="65"/>
      <point x="157" y="23"/>
      <point x="230" y="23" type="curve" smooth="yes"/>
      <point x="301" y="23"/>
      <point x="353" y="59"/>
      <point x="425" y="162" type="curve" smooth="yes"/>
      <point x="515" y="290" type="line" smooth="yes"/>
      <point x="521" y="298"/>
      <point x="534" y="301"/>
      <point x="543" y="294" type="curve" smooth="yes"/>
      <point x="551" y="288"/>
      <point x="554" y="275"/>
    </contour>
  </outline>
</glyph>
<glyph name="plus" format="1">
  <advance width="527"/>
  <unicode hex="002B"/>
  <outline>
    <contour>
      <point x="86" y="284" type="curve" smooth="yes"/>
      <point x="440" y="284" type="line" smooth="yes"/>
      <point x="451" y="284"/>
      <point x="460" y="275"/>
      <point x="460" y="264" type="curve" smooth="yes"/>
      <point x="460" y="253"/>
      <point x="451" y="244"/>
      <point x="440" y="244" type="curve" smooth="yes"/>
      <point x="86" y="244" type="line" smooth="yes"/>
      <point x="75" y="244"/>
      <point x="66" y="253"/>
      <point x="66" y="264" type="curve" smooth="yes"/>
      <point x="66" y="275"/>
      <point x="75" y="284"/>
    </contour>
    <contour>
      <point x="243" y="92" type="curve" smooth="yes"/>
      <point x="243" y="435" type="line" smooth="yes"/>
      <point x="243" y="446"/>
      <point x="252" y="455"/>
      <point x="263" y="455" type="curve" smooth="yes"/>
      <point x="274" y="455"/>
      <point x="283" y="446"/>
      <point x="283" y="435" type="curve" smooth="yes"/>
      <point x="283" y="92" type="line" smooth="yes"/>
      <point x="283" y="81"/>
      <point x="274" y="72"/>
      <point x="263" y="72" type="curve" smooth="yes"/>
      <point x="252" y="72"/>
      <point x="243" y="81"/>
    </contour>
  </outline>
</glyph>
<glyph name="period" format="1">
  <advance width="206"/>
  <unicode hex="002E"/>
  <outline>
    <contour>
      <point x="104" y="97" type="curve" smooth="yes"/>
      <point x="127" y="97"/>
      <point x="146" y="76"/>
      <point x="146" y="47" type="curve" smooth="yes"/>
      <point x="146" y="12"/>
      <point x="128" y="-3"/>
      <point x="105" y="-3" type="curve" smooth="yes"/>
      <point x="83" y="-3"/>
      <point x="63" y="13"/>
      <point x="63" y="47" type="curve" smooth="yes"/>
      <point x="63" y="76"/>
      <point x="77" y="97"/>
    </contour>
  </outline>
</glyph>
<glyph name="three" format="1">
  <advance width="508"/>
  <unicode hex="0033"/>
  <outline>
    <contour>
      <point x="106" y="540" type="curve" smooth="yes"/>
      <point x="418" y="540" type="line" smooth="yes"/>
      <point x="429" y="540"/>
      <point x="438" y="531"/>
      <point x="438" y="520" type="curve" smooth="yes"/>
      <point x="438" y="509"/>
      <point x="429" y="500"/>
      <point x="418" y="500" type="curve" smooth="yes"/>
      <point x="106" y="500" type="line" smooth="yes"/>
      <point x="95" y="500"/>
      <point x="86" y="509"/>
      <point x="86" y="520" type="curve" smooth="yes"/>
      <point x="86" y="531"/>
      <point x="95" y="540"/>
    </contour>
    <contour>
      <point x="96" y="57" type="curve" smooth="yes"/>
      <point x="138" y="39"/>
      <point x="191" y="27"/>
      <point x="253" y="27" type="curve" smooth="yes"/>
      <point x="358" y="27"/>
      <point x="413" y="77"/>
      <point x="413" y="150" type="curve" smooth="yes"/>
      <point x="413" y="221"/>
      <point x="354" y="266"/>
      <point x="264" y="266" type="curve" smooth="yes"/>
      <point x="218" y="266"/>
      <point x="180" y="259"/>
      <point x="159" y="251" type="curve" smooth="yes"/>
      <point x="148" y="248"/>
      <point x="137" y="253"/>
      <point x="133" y="263" type="curve" smooth="yes"/>
      <point x="130" y="274"/>
      <point x="135" y="285"/>
      <point x="145" y="289" type="curve" smooth="yes"/>
      <point x="170" y="297"/>
      <point x="212" y="306"/>
      <point x="264" y="306" type="curve" smooth="yes"/>
      <point x="386" y="306"/>
      <point x="453" y="239"/>
      <point x="453" y="150" type="curve" smooth="yes"/>
      <point x="453" y="59"/>
      <point x="392" y="-13"/>
      <point x="253" y="-13" type="curve" smooth="yes"/>
      <point x="185" y="-13"/>
      <point x="126" y="1"/>
      <point x="80" y="21" type="curve" smooth="yes"/>
      <point x="70" y="25"/>
      <point x="65" y="37"/>
      <point x="70" y="47" type="curve" smooth="yes"/>
      <point x="74" y="57"/>
      <point x="86" y="62"/>
    </contour>
    <contour>
      <point x="422" y="497" type="curve" smooth="yes"/>
      <point x="171" y="260" type="line" smooth="yes"/>
      <point x="163" y="253"/>
      <point x="150" y="253"/>
      <point x="142" y="261" type="curve" smooth="yes"/>
      <point x="135" y="269"/>
      <point x="135" y="282"/>
      <point x="143" y="290" type="curve" smooth="yes"/>
      <point x="394" y="527" type="line" smooth="yes"/>
      <point x="402" y="534"/>
      <point x="415" y="534"/>
      <point x="423" y="526" type="curve" smooth="yes"/>
      <point x="430" y="518"/>
      <point x="430" y="505"/>
    </contour>
  </outline>
</glyph>
<glyph name="six" format="1">
  <advance width="536"/>
  <unicode hex="0036"/>
  <outline>
    <contour>
      <point x="386" y="496" type="curve" smooth="yes"/>
      <point x="360" y="504"/>
      <point x="339" y="509"/>
      <point x="306" y="509" type="curve" smooth="yes"/>
      <point x="179" y="509"/>
      <point x="105" y="406"/>
      <point x="105" y="248" type="curve" smooth="yes"/>
      <point x="105" y="103"/>
      <point x="177" y="27"/>
      <point x="284" y="27" type="curve" smooth="yes"/>
      <point x="393" y="27"/>
      <point x="440" y="97"/>
      <point x="440" y="166" type="curve" smooth="yes"/>
      <point x="440" y="241"/>
      <point x="384" y="291"/>
      <point x="305" y="291" type="curve" smooth="yes"/>
      <point x="219" y="291"/>
      <point x="149" y="231"/>
      <point x="121" y="129" type="curve" smooth="yes"/>
      <point x="118" y="118"/>
      <point x="107" y="112"/>
      <point x="97" y="115" type="curve" smooth="yes"/>
      <point x="86" y="118"/>
      <point x="80" y="129"/>
      <point x="83" y="139" type="curve" smooth="yes"/>
      <point x="117" y="263"/>
      <point x="203" y="331"/>
      <point x="305" y="331" type="curve" smooth="yes"/>
      <point x="410" y="331"/>
      <point x="480" y="263"/>
      <point x="480" y="166" type="curve" smooth="yes"/>
      <point x="480" y="79"/>
      <point x="425" y="-13"/>
      <point x="284" y="-13" type="curve" smooth="yes"/>
      <point x="157" y="-13"/>
      <point x="65" y="71"/>
      <point x="65" y="248" type="curve" smooth="yes"/>
      <point x="65" y="438"/>
      <point x="159" y="549"/>
      <point x="306" y="549" type="curve" smooth="yes"/>
      <point x="343" y="549"/>
      <point x="368" y="544"/>
      <point x="398" y="534" type="curve" smooth="yes"/>
      <point x="408" y="531"/>
      <point x="414" y="519"/>
      <point x="411" y="509" type="curve" smooth="yes"/>
      <point x="408" y="499"/>
      <point x="396" y="493"/>
    </contour>
  </outline>
</glyph>
<glyph name="eight" format="1">
  <advance width="556"/>
  <unicode hex="0038"/>
  <outline>
    <contour>
      <point x="279" y="306" type="curve" smooth="yes"/>
      <point x="412" y="306"/>
      <point x="491" y="238"/>
      <point x="491" y="144" type="curve" smooth="yes"/>
      <point x="491" y="59"/>
      <point x="438" y="-17"/>
      <point x="279" y="-17" type="curve" smooth="yes"/>
      <point x="130" y="-17"/>
      <point x="65" y="59"/>
      <point x="65" y="143" type="curve" smooth="yes"/>
      <point x="65" y="238"/>
      <point x="138" y="306"/>
    </contour>
    <contour>
      <point x="279" y="548" type="curve" smooth="yes"/>
      <point x="397" y="548"/>
      <point x="464" y="490"/>
      <point x="464" y="409" type="curve" smooth="yes"/>
      <point x="464" y="333"/>
      <point x="407" y="266"/>
      <point x="279" y="266" type="curve" smooth="yes"/>
      <point x="145" y="266"/>
      <point x="92" y="333"/>
      <point x="92" y="409" type="curve" smooth="yes"/>
      <point x="92" y="490"/>
      <point x="155" y="548"/>
    </contour>
    <contour>
      <point x="279" y="266" type="curve" smooth="yes"/>
      <point x="172" y="266"/>
      <point x="105" y="220"/>
      <point x="105" y="143" type="curve" smooth="yes"/>
      <point x="105" y="75"/>
      <point x="168" y="23"/>
      <point x="279" y="23" type="curve" smooth="yes"/>
      <point x="398" y="23"/>
      <point x="451" y="75"/>
      <point x="451" y="144" type="curve" smooth="yes"/>
      <point x="451" y="220"/>
      <point x="380" y="266"/>
    </contour>
    <contour>
      <point x="279" y="508" type="curve" smooth="yes"/>
      <point x="191" y="508"/>
      <point x="132" y="472"/>
      <point x="132" y="409" type="curve" smooth="yes"/>
      <point x="132" y="349"/>
      <point x="183" y="306"/>
      <point x="279" y="306" type="curve" smooth="yes"/>
      <point x="371" y="306"/>
      <point x="424" y="349"/>
      <point x="424" y="409" type="curve" smooth="yes"/>
      <point x="424" y="472"/>
      <point x="363" y="508"/>
    </contour>
  </outline>
</glyph>
<glyph name="less" format="1">
  <advance width="527"/>
  <unicode hex="003C"/>
  <outline>
    <contour>
      <point x="86" y="285" type="curve" smooth="yes"/>
      <point x="412" y="432" type="line" smooth="yes"/>
      <point x="422" y="437"/>
      <point x="434" y="432"/>
      <point x="438" y="422" type="curve" smooth="yes"/>
      <point x="443" y="412"/>
      <point x="438" y="400"/>
      <point x="428" y="396" type="curve" smooth="yes"/>
      <point x="102" y="249" type="line" smooth="yes"/>
      <point x="92" y="244"/>
      <point x="80" y="249"/>
      <point x="76" y="259" type="curve" smooth="yes"/>
      <point x="71" y="269"/>
      <point x="76" y="281"/>
    </contour>
    <contour>
      <point x="418" y="92" type="curve" smooth="yes"/>
      <point x="80" y="245" type="line" smooth="yes"/>
      <point x="70" y="249"/>
      <point x="65" y="261"/>
      <point x="70" y="271" type="curve" smooth="yes"/>
      <point x="74" y="281"/>
      <point x="86" y="286"/>
      <point x="96" y="281" type="curve" smooth="yes"/>
      <point x="434" y="128" type="line" smooth="yes"/>
      <point x="444" y="124"/>
      <point x="449" y="112"/>
      <point x="444" y="102" type="curve" smooth="yes"/>
      <point x="440" y="92"/>
      <point x="428" y="87"/>
    </contour>
  </outline>
</glyph>
<glyph name="G" format="1">
  <advance width="619"/>
  <unicode hex="0047"/>
  <outline>
    <contour>
      <point x="483" y="482" type="curve" smooth="yes"/>
      <point x="441" y="499"/>
      <point x="393" y="510"/>
      <point x="337" y="510" type="curve" smooth="yes"/>
      <point x="197" y="510"/>
      <point x="95" y="410"/>
      <point x="95" y="262" type="curve" smooth="yes"/>
      <point x="95" y="128"/>
      <point x="183" y="21"/>
      <point x="334" y="21" type="curve" smooth="yes"/>
      <point x="409" y="21"/>
      <point x="465" y="41"/>
      <point x="511" y="70" type="curve" smooth="yes"/>
      <point x="520" y="76"/>
      <point x="533" y="73"/>
      <point x="539" y="64" type="curve" smooth="yes"/>
      <point x="545" y="55"/>
      <point x="542" y="42"/>
      <point x="533" y="36" type="curve" smooth="yes"/>
      <point x="481" y="3"/>
      <point x="419" y="-19"/>
      <point x="334" y="-19" type="curve" smooth="yes"/>
      <point x="157" y="-19"/>
      <point x="55" y="106"/>
      <point x="55" y="262" type="curve" smooth="yes"/>
      <point x="55" y="434"/>
      <point x="175" y="550"/>
      <point x="337" y="550" type="curve" smooth="yes"/>
      <point x="399" y="550"/>
      <point x="451" y="537"/>
      <point x="497" y="520" type="curve" smooth="yes"/>
      <point x="507" y="516"/>
      <point x="513" y="504"/>
      <point x="509" y="494" type="curve" smooth="yes"/>
      <point x="505" y="484"/>
      <point x="493" y="478"/>
    </contour>
    <contour>
      <point x="503" y="63" type="curve" smooth="yes"/>
      <point x="503" y="246" type="line" smooth="yes"/>
      <point x="503" y="257"/>
      <point x="512" y="266"/>
      <point x="523" y="266" type="curve" smooth="yes"/>
      <point x="534" y="266"/>
      <point x="543" y="257"/>
      <point x="543" y="246" type="curve" smooth="yes"/>
      <point x="543" y="63" type="line" smooth="yes"/>
      <point x="543" y="52"/>
      <point x="534" y="43"/>
      <point x="523" y="43" type="curve" smooth="yes"/>
      <point x="512" y="43"/>
      <point x="503" y="52"/>
    </contour>
    <contour>
      <point x="511" y="226" type="curve" smooth="yes"/>
      <point x="350" y="226" type="line" smooth="yes"/>
      <point x="339" y="226"/>
      <point x="330" y="235"/>
      <point x="330" y="246" type="curve" smooth="yes"/>
      <point x="330" y="257"/>
      <point x="339" y="266"/>
      <point x="350" y="266" type="curve" smooth="yes"/>
      <point x="511" y="266" type="line" smooth="yes"/>
      <point x="522" y="266"/>
      <point x="531" y="257"/>
      <point x="531" y="246" type="curve" smooth="yes"/>
      <point x="531" y="235"/>
      <point x="522" y="226"/>
    </contour>
  </outline>
</glyph>
<glyph name="J" format="1">
  <advance width="378"/>
  <unicode hex="004A"/>
  <outline>
    <contour>
      <point x="68" y="40" type="curve" smooth="yes"/>
      <point x="96" y="27"/>
      <point x="125" y="22"/>
      <point x="153" y="22" type="curve" smooth="yes"/>
      <point x="225" y="22"/>
      <point x="257" y="72"/>
      <point x="257" y="160" type="curve" smooth="yes"/>
      <point x="257" y="520" type="line" smooth="yes"/>
      <point x="257" y="531"/>
      <point x="266" y="540"/>
      <point x="277" y="540" type="curve" smooth="yes"/>
      <point x="288" y="540"/>
      <point x="297" y="531"/>
      <point x="297" y="520" type="curve" smooth="yes"/>
      <point x="297" y="160" type="line" smooth="yes"/>
      <point x="297" y="38"/>
      <point x="245" y="-18"/>
      <point x="153" y="-18" type="curve" smooth="yes"/>
      <point x="119" y="-18"/>
      <point x="84" y="-11"/>
      <point x="52" y="4" type="curve" smooth="yes"/>
      <point x="42" y="8"/>
      <point x="37" y="21"/>
      <point x="42" y="30" type="curve" smooth="yes"/>
      <point x="46" y="40"/>
      <point x="59" y="45"/>
    </contour>
  </outline>
</glyph>
<glyph name="Q" format="1">
  <advance width="642"/>
  <unicode hex="0051"/>
  <outline>
    <contour>
      <point x="323" y="553" type="curve" smooth="yes"/>
      <point x="469" y="553"/>
      <point x="587" y="437"/>
      <point x="587" y="268" type="curve" smooth="yes"/>
      <point x="587" y="108"/>
      <point x="489" y="-15"/>
      <point x="323" y="-15" type="curve" smooth="yes"/>
      <point x="166" y="-15"/>
      <point x="55" y="108"/>
      <point x="55" y="265" type="curve" smooth="yes"/>
      <point x="55" y="437"/>
      <point x="164" y="553"/>
    </contour>
    <contour>
      <point x="338" y="7" type="curve" smooth="yes"/>
      <point x="356" y="-63"/>
      <point x="423" y="-116"/>
      <point x="523" y="-116" type="curve" smooth="yes"/>
      <point x="534" y="-116"/>
      <point x="543" y="-125"/>
      <point x="543" y="-136" type="curve" smooth="yes"/>
      <point x="543" y="-147"/>
      <point x="534" y="-156"/>
      <point x="523" y="-156" type="curve" smooth="yes"/>
      <point x="399" y="-156"/>
      <point x="322" y="-87"/>
      <point x="300" y="-3" type="curve" smooth="yes"/>
      <point x="297" y="7"/>
      <point x="304" y="19"/>
      <point x="314" y="21" type="curve" smooth="yes"/>
      <point x="324" y="24"/>
      <point x="336" y="17"/>
    </contour>
    <contour>
      <point x="323" y="513" type="curve" smooth="yes"/>
      <point x="186" y="513"/>
      <point x="95" y="411"/>
      <point x="95" y="265" type="curve" smooth="yes"/>
      <point x="95" y="132"/>
      <point x="188" y="25"/>
      <point x="323" y="25" type="curve" smooth="yes"/>
      <point x="465" y="25"/>
      <point x="547" y="132"/>
      <point x="547" y="268" type="curve" smooth="yes"/>
      <point x="547" y="411"/>
      <point x="449" y="513"/>
    </contour>
  </outline>
</glyph>
<glyph name="S" format="1">
  <advance width="521"/>
  <unicode hex="0053"/>
  <outline>
    <contour>
      <point x="391" y="476" type="curve" smooth="yes"/>
      <point x="343" y="495"/>
      <point x="310" y="507"/>
      <point x="240" y="507" type="curve" smooth="yes"/>
      <point x="167" y="507"/>
      <point x="117" y="465"/>
      <point x="117" y="417" type="curve" smooth="yes"/>
      <point x="117" y="370"/>
      <point x="146" y="322"/>
      <point x="266" y="299" type="curve" smooth="yes"/>
      <point x="411" y="266"/>
      <point x="453" y="204"/>
      <point x="453" y="130" type="curve" smooth="yes"/>
      <point x="453" y="54"/>
      <point x="400" y="-18"/>
      <point x="261" y="-18" type="curve" smooth="yes"/>
      <point x="194" y="-18"/>
      <point x="131" y="-3"/>
      <point x="74" y="30" type="curve" smooth="yes"/>
      <point x="65" y="35"/>
      <point x="61" y="48"/>
      <point x="67" y="57" type="curve" smooth="yes"/>
      <point x="72" y="66"/>
      <point x="85" y="70"/>
      <point x="94" y="64" type="curve" smooth="yes"/>
      <point x="145" y="35"/>
      <point x="202" y="22"/>
      <point x="261" y="22" type="curve" smooth="yes"/>
      <point x="362" y="22"/>
      <point x="413" y="70"/>
      <point x="413" y="130" type="curve" smooth="yes"/>
      <point x="413" y="190"/>
      <point x="369" y="234"/>
      <point x="258" y="259" type="curve" smooth="yes"/>
      <point x="98" y="290"/>
      <point x="77" y="360"/>
      <point x="77" y="417" type="curve" smooth="yes"/>
      <point x="77" y="481"/>
      <point x="135" y="547"/>
      <point x="240" y="547" type="curve" smooth="yes"/>
      <point x="316" y="547"/>
      <point x="353" y="535"/>
      <point x="405" y="514" type="curve" smooth="yes"/>
      <point x="415" y="510"/>
      <point x="421" y="498"/>
      <point x="417" y="488" type="curve" smooth="yes"/>
      <point x="413" y="478"/>
      <point x="401" y="472"/>
    </contour>
  </outline>
</glyph>
<glyph name="T" format="1">
  <advance width="543"/>
  <unicode hex="0054"/>
  <outline>
    <contour>
      <point x="290" y="520" type="curve" smooth="yes"/>
      <point x="290" y="11" type="line" smooth="yes"/>
      <point x="290" y="0"/>
      <point x="281" y="-9"/>
      <point x="270" y="-9" type="curve" smooth="yes"/>
      <point x="259" y="-9"/>
      <point x="250" y="0"/>
      <point x="250" y="11" type="curve" smooth="yes"/>
      <point x="250" y="520" type="line" smooth="yes"/>
      <point x="250" y="531"/>
      <point x="259" y="540"/>
      <point x="270" y="540" type="curve" smooth="yes"/>
      <point x="281" y="540"/>
      <point x="290" y="531"/>
    </contour>
    <contour>
      <point x="47" y="540" type="curve" smooth="yes"/>
      <point x="496" y="540" type="line" smooth="yes"/>
      <point x="507" y="540"/>
      <point x="516" y="531"/>
      <point x="516" y="520" type="curve" smooth="yes"/>
      <point x="516" y="509"/>
      <point x="507" y="500"/>
      <point x="496" y="500" type="curve" smooth="yes"/>
      <point x="47" y="500" type="line" smooth="yes"/>
      <point x="36" y="500"/>
      <point x="27" y="509"/>
      <point x="27" y="520" type="curve" smooth="yes"/>
      <point x="27" y="531"/>
      <point x="36" y="540"/>
    </contour>
  </outline>
</glyph>
<glyph name="U" format="1">
  <advance width="617"/>
  <unicode hex="0055"/>
  <outline>
    <contour>
      <point x="122" y="520" type="curve" smooth="yes"/>
      <point x="122" y="210" type="line" smooth="yes"/>
      <point x="122" y="89"/>
      <point x="198" y="22"/>
      <point x="306" y="22" type="curve" smooth="yes"/>
      <point x="427" y="22"/>
      <point x="495" y="89"/>
      <point x="495" y="213" type="curve" smooth="yes"/>
      <point x="495" y="520" type="line" smooth="yes"/>
      <point x="495" y="531"/>
      <point x="504" y="540"/>
      <point x="515" y="540" type="curve" smooth="yes"/>
      <point x="526" y="540"/>
      <point x="535" y="531"/>
      <point x="535" y="520" type="curve" smooth="yes"/>
      <point x="535" y="213" type="line" smooth="yes"/>
      <point x="535" y="63"/>
      <point x="453" y="-18"/>
      <point x="306" y="-18" type="curve" smooth="yes"/>
      <point x="174" y="-18"/>
      <point x="82" y="63"/>
      <point x="82" y="210" type="curve" smooth="yes"/>
      <point x="82" y="520" type="line" smooth="yes"/>
      <point x="82" y="531"/>
      <point x="91" y="540"/>
      <point x="102" y="540" type="curve" smooth="yes"/>
      <point x="113" y="540"/>
      <point x="122" y="531"/>
    </contour>
  </outline>
</glyph>
<glyph name="Y" format="1">
  <advance width="558"/>
  <unicode hex="0059"/>
  <outline>
    <contour>
      <point x="301" y="187" type="curve" smooth="yes"/>
      <point x="301" y="11" type="line" smooth="yes"/>
      <point x="301" y="0"/>
      <point x="292" y="-9"/>
      <point x="281" y="-9" type="curve" smooth="yes"/>
      <point x="270" y="-9"/>
      <point x="261" y="0"/>
      <point x="261" y="11" type="curve" smooth="yes"/>
      <point x="261" y="187" type="line" smooth="yes"/>
      <point x="261" y="198"/>
      <point x="270" y="207"/>
      <point x="281" y="207" type="curve" smooth="yes"/>
      <point x="292" y="207"/>
      <point x="301" y="198"/>
    </contour>
    <contour>
      <point x="80" y="530" type="curve" smooth="yes"/>
      <point x="124" y="458"/>
      <point x="249" y="272"/>
      <point x="294" y="212" type="curve" smooth="yes"/>
      <point x="300" y="203"/>
      <point x="299" y="190"/>
      <point x="290" y="184" type="curve" smooth="yes"/>
      <point x="281" y="178"/>
      <point x="268" y="179"/>
      <point x="262" y="188" type="curve" smooth="yes"/>
      <point x="217" y="248"/>
      <point x="90" y="436"/>
      <point x="46" y="510" type="curve" smooth="yes"/>
      <point x="40" y="519"/>
      <point x="43" y="532"/>
      <point x="53" y="537" type="curve" smooth="yes"/>
      <point x="62" y="543"/>
      <point x="75" y="540"/>
    </contour>
    <contour>
      <point x="265" y="206" type="curve" smooth="yes"/>
      <point x="317" y="275"/>
      <point x="435" y="459"/>
      <point x="478" y="530" type="curve" smooth="yes"/>
      <point x="483" y="540"/>
      <point x="496" y="543"/>
      <point x="505" y="537" type="curve" smooth="yes"/>
      <point x="515" y="532"/>
      <point x="518" y="519"/>
      <point x="512" y="510" type="curve" smooth="yes"/>
      <point x="469" y="437"/>
      <point x="349" y="251"/>
      <point x="297" y="182" type="curve" smooth="yes"/>
      <point x="290" y="173"/>
      <point x="278" y="172"/>
      <point x="269" y="178" type="curve" smooth="yes"/>
      <point x="260" y="185"/>
      <point x="259" y="197"/>
    </contour>
  </outline>
</glyph>
<glyph name="underscore" format="1">
  <advance width="490"/>
  <unicode hex="005F"/>
  <outline>
    <contour>
      <point x="27" y="-81" type="curve" smooth="yes"/>
      <point x="463" y="-81" type="line" smooth="yes"/>
      <point x="474" y="-81"/>
      <point x="483" y="-90"/>
      <point x="483" y="-101" type="curve" smooth="yes"/>
      <point x="483" y="-112"/>
      <point x="474" y="-121"/>
      <point x="463" y="-121" type="curve" smooth="yes"/>
      <point x="27" y="-121" type="line" smooth="yes"/>
      <point x="16" y="-121"/>
      <point x="7" y="-112"/>
      <point x="7" y="-101" type="curve" smooth="yes"/>
      <point x="7" y="-90"/>
      <point x="16" y="-81"/>
    </contour>
  </outline>
</glyph>
<glyph name="a" format="1">
  <advance width="446"/>
  <unicode hex="0061"/>
  <outline>
    <contour>
      <point x="110" y="376" type="curve" smooth="yes"/>
      <point x="133" y="383"/>
      <point x="177" y="394"/>
      <point x="214" y="394" type="curve" smooth="yes"/>
      <point x="323" y="394"/>
      <point x="374" y="327"/>
      <point x="374" y="230" type="curve" smooth="yes"/>
      <point x="374" y="134" type="line" smooth="yes"/>
      <point x="374" y="83"/>
      <point x="386" y="53"/>
      <point x="408" y="28" type="curve" smooth="yes"/>
      <point x="415" y="20"/>
      <point x="414" y="7"/>
      <point x="406" y="0" type="curve" smooth="yes"/>
      <point x="398" y="-7"/>
      <point x="385" y="-6"/>
      <point x="378" y="2" type="curve" smooth="yes"/>
      <point x="350" y="33"/>
      <point x="334" y="69"/>
      <point x="334" y="134" type="curve" smooth="yes"/>
      <point x="334" y="230" type="line" smooth="yes"/>
      <point x="334" y="303"/>
      <point x="297" y="354"/>
      <point x="214" y="354" type="curve" smooth="yes"/>
      <point x="181" y="354"/>
      <point x="143" y="345"/>
      <point x="122" y="338" type="curve" smooth="yes"/>
      <point x="112" y="335"/>
      <point x="100" y="341"/>
      <point x="97" y="351" type="curve" smooth="yes"/>
      <point x="94" y="361"/>
      <point x="100" y="373"/>
    </contour>
    <contour>
      <point x="352" y="198" type="curve" smooth="yes"/>
      <point x="318" y="199"/>
      <point x="286" y="201"/>
      <point x="256" y="201" type="curve" smooth="yes"/>
      <point x="186" y="201"/>
      <point x="139" y="185"/>
      <point x="110" y="157" type="curve" smooth="yes"/>
      <point x="92" y="140"/>
      <point x="87" y="120"/>
      <point x="87" y="99" type="curve" smooth="yes"/>
      <point x="87" y="69"/>
      <point x="112" y="34"/>
      <point x="169" y="34" type="curve" smooth="yes"/>
      <point x="239" y="34"/>
      <point x="292" y="64"/>
      <point x="338" y="126" type="curve" smooth="yes"/>
      <point x="344" y="135"/>
      <point x="357" y="137"/>
      <point x="366" y="130" type="curve" smooth="yes"/>
      <point x="375" y="124"/>
      <point x="377" y="111"/>
      <point x="370" y="102" type="curve" smooth="yes"/>
      <point x="316" y="28"/>
      <point x="253" y="-6"/>
      <point x="169" y="-6" type="curve" smooth="yes"/>
      <point x="76" y="-6"/>
      <point x="47" y="55"/>
      <point x="47" y="99" type="curve"/>
      <point x="47" y="132"/>
      <point x="56" y="160"/>
      <point x="82" y="185" type="curve" smooth="yes"/>
      <point x="117" y="219"/>
      <point x="172" y="241"/>
      <point x="256" y="241" type="curve" smooth="yes"/>
      <point x="286" y="241"/>
      <point x="318" y="239"/>
      <point x="354" y="238" type="curve" smooth="yes"/>
      <point x="364" y="238"/>
      <point x="373" y="228"/>
      <point x="373" y="217" type="curve" smooth="yes"/>
      <point x="373" y="207"/>
      <point x="363" y="198"/>
    </contour>
  </outline>
</glyph>
<glyph name="e" format="1">
  <advance width="463"/>
  <unicode hex="0065"/>
  <outline>
    <contour>
      <point x="76" y="213" type="curve" smooth="yes"/>
      <point x="296" y="213" type="line" smooth="yes"/>
      <point x="340" y="213"/>
      <point x="362" y="227"/>
      <point x="362" y="258" type="curve" smooth="yes"/>
      <point x="362" y="301"/>
      <point x="311" y="354"/>
      <point x="239" y="354" type="curve" smooth="yes"/>
      <point x="152" y="354"/>
      <point x="83" y="287"/>
      <point x="83" y="189" type="curve" smooth="yes"/>
      <point x="83" y="87"/>
      <point x="157" y="34"/>
      <point x="260" y="34" type="curve" smooth="yes"/>
      <point x="295" y="34"/>
      <point x="330" y="42"/>
      <point x="355" y="52" type="curve" smooth="yes"/>
      <point x="365" y="56"/>
      <point x="377" y="50"/>
      <point x="381" y="40" type="curve" smooth="yes"/>
      <point x="385" y="30"/>
      <point x="379" y="18"/>
      <point x="369" y="14" type="curve" smooth="yes"/>
      <point x="340" y="4"/>
      <point x="301" y="-6"/>
      <point x="260" y="-6" type="curve" smooth="yes"/>
      <point x="131" y="-6"/>
      <point x="43" y="63"/>
      <point x="43" y="189" type="curve"/>
      <point x="43" y="312"/>
      <point x="130" y="394"/>
      <point x="239" y="394" type="curve" smooth="yes"/>
      <point x="341" y="394"/>
      <point x="402" y="315"/>
      <point x="402" y="258" type="curve" smooth="yes"/>
      <point x="402" y="209"/>
      <point x="378" y="173"/>
      <point x="296" y="173" type="curve" smooth="yes"/>
      <point x="76" y="173" type="line" smooth="yes"/>
      <point x="65" y="173"/>
      <point x="56" y="182"/>
      <point x="56" y="193" type="curve" smooth="yes"/>
      <point x="56" y="204"/>
      <point x="65" y="213"/>
    </contour>
  </outline>
</glyph>
<glyph name="g" format="1">
  <advance width="508"/>
  <unicode hex="0067"/>
  <outline>
    <contour>
      <point x="399" y="321" type="curve" smooth="yes"/>
      <point x="348" y="345"/>
      <point x="313" y="358"/>
      <point x="258" y="358" type="curve" smooth="yes"/>
      <point x="174" y="358"/>
      <point x="93" y="292"/>
      <point x="93" y="189" type="curve" smooth="yes"/>
      <point x="93" y="94"/>
      <point x="157" y="52"/>
      <point x="222" y="52" type="curve" smooth="yes"/>
      <point x="285" y="52"/>
      <point x="347" y="87"/>
      <point x="390" y="155" type="curve" smooth="yes"/>
      <point x="396" y="164"/>
      <point x="409" y="167"/>
      <point x="418" y="161" type="curve" smooth="yes"/>
      <point x="427" y="155"/>
      <point x="430" y="142"/>
      <point x="424" y="133" type="curve" smooth="yes"/>
      <point x="373" y="53"/>
      <point x="297" y="12"/>
      <point x="222" y="12" type="curve" smooth="yes"/>
      <point x="137" y="12"/>
      <point x="53" y="64"/>
      <point x="53" y="189" type="curve"/>
      <point x="53" y="318"/>
      <point x="154" y="398"/>
      <point x="258" y="398" type="curve" smooth="yes"/>
      <point x="319" y="398"/>
      <point x="358" y="385"/>
      <point x="417" y="357" type="curve" smooth="yes"/>
      <point x="426" y="352"/>
      <point x="431" y="340"/>
      <point x="426" y="330" type="curve" smooth="yes"/>
      <point x="421" y="321"/>
      <point x="409" y="316"/>
    </contour>
    <contour>
      <point x="165" y="-151" type="curve" smooth="yes"/>
      <point x="319" y="-151"/>
      <point x="388" y="-65"/>
      <point x="388" y="67" type="curve" smooth="yes"/>
      <point x="388" y="378" type="line" smooth="yes"/>
      <point x="388" y="389"/>
      <point x="397" y="398"/>
      <point x="408" y="398" type="curve" smooth="yes"/>
      <point x="419" y="398"/>
      <point x="428" y="389"/>
      <point x="428" y="378" type="curve" smooth="yes"/>
      <point x="428" y="67" type="line" smooth="yes"/>
      <point x="428" y="-89"/>
      <point x="347" y="-191"/>
      <point x="165" y="-191" type="curve" smooth="yes"/>
      <point x="154" y="-191"/>
      <point x="145" y="-182"/>
      <point x="145" y="-171" type="curve" smooth="yes"/>
      <point x="145" y="-160"/>
      <point x="154" y="-151"/>
    </contour>
  </outline>
</glyph>
<glyph name="h" format="1">
  <advance width="492"/>
  <unicode hex="0068"/>
  <outline>
    <contour>
      <point x="81" y="10" type="curve" smooth="yes"/>
      <point x="81" y="547" type="line" smooth="yes"/>
      <point x="81" y="558"/>
      <point x="90" y="567"/>
      <point x="101" y="567" type="curve" smooth="yes"/>
      <point x="112" y="567"/>
      <point x="121" y="558"/>
      <point x="121" y="547" type="curve" smooth="yes"/>
      <point x="121" y="10" type="line" smooth="yes"/>
      <point x="121" y="-1"/>
      <point x="112" y="-10"/>
      <point x="101" y="-10" type="curve" smooth="yes"/>
      <point x="90" y="-10"/>
      <point x="81" y="-1"/>
    </contour>
    <contour>
      <point x="382" y="10" type="curve" smooth="yes"/>
      <point x="382" y="220" type="line" smooth="yes"/>
      <point x="382" y="311"/>
      <point x="342" y="349"/>
      <point x="284" y="349" type="curve" smooth="yes"/>
      <point x="223" y="349"/>
      <point x="165" y="310"/>
      <point x="119" y="264" type="curve" smooth="yes"/>
      <point x="112" y="256"/>
      <point x="98" y="256"/>
      <point x="91" y="264" type="curve" smooth="yes"/>
      <point x="83" y="271"/>
      <point x="83" y="285"/>
      <point x="91" y="292" type="curve" smooth="yes"/>
      <point x="145" y="346"/>
      <point x="213" y="389"/>
      <point x="284" y="389" type="curve" smooth="yes"/>
      <point x="360" y="389"/>
      <point x="422" y="349"/>
      <point x="422" y="220" type="curve" smooth="yes"/>
      <point x="422" y="10" type="line" smooth="yes"/>
      <point x="422" y="-1"/>
      <point x="413" y="-10"/>
      <point x="402" y="-10" type="curve" smooth="yes"/>
      <point x="391" y="-10"/>
      <point x="382" y="-1"/>
    </contour>
  </outline>
</glyph>
<glyph name="k" format="1">
  <advance width="462"/>
  <unicode hex="006B"/>
  <outline>
    <contour>
      <point x="81" y="10" type="curve" smooth="yes"/>
      <point x="81" y="547" type="line" smooth="yes"/>
      <point x="81" y="558"/>
      <point x="90" y="567"/>
      <point x="101" y="567" type="curve" smooth="yes"/>
      <point x="112" y="567"/>
      <point x="121" y="558"/>
      <point x="121" y="547" type="curve" smooth="yes"/>
      <point x="121" y="10" type="line" smooth="yes"/>
      <point x="121" y="-1"/>
      <point x="112" y="-10"/>
      <point x="101" y="-10" type="curve" smooth="yes"/>
      <point x="90" y="-10"/>
      <point x="81" y="-1"/>
    </contour>
    <contour>
      <point x="247" y="260" type="curve" smooth="yes"/>
      <point x="416" y="22" type="line" smooth="yes"/>
      <point x="423" y="13"/>
      <point x="420" y="0"/>
      <point x="412" y="-6" type="curve" smooth="yes"/>
      <point x="403" y="-13"/>
      <point x="390" y="-10"/>
      <point x="384" y="-2" type="curve" smooth="yes"/>
      <point x="215" y="236" type="line" smooth="yes"/>
      <point x="208" y="245"/>
      <point x="211" y="258"/>
      <point x="219" y="264" type="curve" smooth="yes"/>
      <point x="228" y="271"/>
      <point x="241" y="268"/>
    </contour>
    <contour>
      <point x="398" y="353" type="curve" smooth="yes"/>
      <point x="115" y="131" type="line" smooth="yes"/>
      <point x="107" y="125"/>
      <point x="94" y="126"/>
      <point x="87" y="135" type="curve" smooth="yes"/>
      <point x="81" y="143"/>
      <point x="82" y="156"/>
      <point x="91" y="163" type="curve" smooth="yes"/>
      <point x="374" y="385" type="line" smooth="yes"/>
      <point x="382" y="391"/>
      <point x="395" y="390"/>
      <point x="402" y="381" type="curve" smooth="yes"/>
      <point x="408" y="373"/>
      <point x="407" y="360"/>
    </contour>
  </outline>
</glyph>
<glyph name="o" format="1">
  <advance width="510"/>
  <unicode hex="006F"/>
  <outline>
    <contour>
      <point x="254" y="398" type="curve" smooth="yes"/>
      <point x="379" y="398"/>
      <point x="457" y="304"/>
      <point x="457" y="189" type="curve" smooth="yes"/>
      <point x="457" y="77"/>
      <point x="379" y="-10"/>
      <point x="254" y="-10" type="curve" smooth="yes"/>
      <point x="131" y="-10"/>
      <point x="52" y="78"/>
      <point x="52" y="191" type="curve"/>
      <point x="52" y="304"/>
      <point x="129" y="398"/>
    </contour>
    <contour>
      <point x="254" y="358" type="curve" smooth="yes"/>
      <point x="153" y="358"/>
      <point x="92" y="282"/>
      <point x="92" y="191" type="curve" smooth="yes"/>
      <point x="92" y="100"/>
      <point x="155" y="30"/>
      <point x="254" y="30" type="curve" smooth="yes"/>
      <point x="353" y="30"/>
      <point x="417" y="99"/>
      <point x="417" y="189" type="curve" smooth="yes"/>
      <point x="417" y="282"/>
      <point x="355" y="358"/>
    </contour>
  </outline>
</glyph>
<glyph name="r" format="1">
  <advance width="351"/>
  <unicode hex="0072"/>
  <outline>
    <contour>
      <point x="81" y="14" type="curve" smooth="yes"/>
      <point x="81" y="374" type="line" smooth="yes"/>
      <point x="81" y="385"/>
      <point x="90" y="394"/>
      <point x="101" y="394" type="curve" smooth="yes"/>
      <point x="112" y="394"/>
      <point x="121" y="385"/>
      <point x="121" y="374" type="curve" smooth="yes"/>
      <point x="121" y="14" type="line" smooth="yes"/>
      <point x="121" y="3"/>
      <point x="112" y="-6"/>
      <point x="101" y="-6" type="curve" smooth="yes"/>
      <point x="90" y="-6"/>
      <point x="81" y="3"/>
    </contour>
    <contour>
      <point x="85" y="247" type="curve" smooth="yes"/>
      <point x="138" y="329"/>
      <point x="201" y="381"/>
      <point x="299" y="394" type="curve" smooth="yes"/>
      <point x="310" y="395"/>
      <point x="320" y="387"/>
      <point x="322" y="377" type="curve" smooth="yes"/>
      <point x="323" y="366"/>
      <point x="315" y="356"/>
      <point x="305" y="354" type="curve" smooth="yes"/>
      <point x="219" y="343"/>
      <point x="164" y="297"/>
      <point x="119" y="225" type="curve" smooth="yes"/>
      <point x="113" y="216"/>
      <point x="100" y="213"/>
      <point x="91" y="219" type="curve" smooth="yes"/>
      <point x="82" y="225"/>
      <point x="79" y="238"/>
    </contour>
  </outline>
</glyph>
<glyph name="u" format="1">
  <advance width="492"/>
  <unicode hex="0075"/>
  <outline>
    <contour>
      <point x="411" y="374" type="curve" smooth="yes"/>
      <point x="411" y="14" type="line" smooth="yes"/>
      <point x="411" y="3"/>
      <point x="402" y="-6"/>
      <point x="391" y="-6" type="curve" smooth="yes"/>
      <point x="380" y="-6"/>
      <point x="371" y="3"/>
      <point x="371" y="14" type="curve" smooth="yes"/>
      <point x="371" y="374" type="line" smooth="yes"/>
      <point x="371" y="385"/>
      <point x="380" y="394"/>
      <point x="391" y="394" type="curve" smooth="yes"/>
      <point x="402" y="394"/>
      <point x="411" y="385"/>
    </contour>
    <contour>
      <point x="110" y="374" type="curve" smooth="yes"/>
      <point x="110" y="164" type="line" smooth="yes"/>
      <point x="110" y="72"/>
      <point x="149" y="34"/>
      <point x="208" y="34" type="curve" smooth="yes"/>
      <point x="269" y="34"/>
      <point x="331" y="83"/>
      <point x="371" y="139" type="curve" smooth="yes"/>
      <point x="377" y="147"/>
      <point x="390" y="150"/>
      <point x="399" y="143" type="curve" smooth="yes"/>
      <point x="407" y="137"/>
      <point x="410" y="124"/>
      <point x="403" y="115" type="curve" smooth="yes"/>
      <point x="355" y="49"/>
      <point x="279" y="-6"/>
      <point x="208" y="-6" type="curve" smooth="yes"/>
      <point x="131" y="-6"/>
      <point x="70" y="34"/>
      <point x="70" y="164" type="curve" smooth="yes"/>
      <point x="70" y="374" type="line" smooth="yes"/>
      <point x="70" y="385"/>
      <point x="79" y="394"/>
      <point x="90" y="394" type="curve" smooth="yes"/>
      <point x="101" y="394"/>
      <point x="110" y="385"/>
    </contour>
  </outline>
</glyph>
<glyph name="bar" format="1">
  <advance width="285"/>
  <unicode hex="007C"/>
  <outline>
    <contour>
      <point x="163" y="621" type="curve" smooth="yes"/>
      <point x="163" y="-95" type="line" smooth="yes"/>
      <point x="163" y="-106"/>
      <point x="154" y="-115"/>
      <point x="143" y="-115" type="curve" smooth="yes"/>
      <point x="132" y="-115"/>
      <point x="123" y="-106"/>
      <point x="123" y="-95" type="curve" smooth="yes"/>
      <point x="123" y="621" type="line" smooth="yes"/>
      <point x="123" y="632"/>
      <point x="132" y="641"/>
      <point x="143" y="641" type="curve" smooth="yes"/>
      <point x="154" y="641"/>
      <point x="163" y="632"/>
    </contour>
  </outline>
</glyph>
<glyph name="braceright" format="1">
  <advance width="403"/>
  <unicode hex="007D"/>
  <outline>
    <contour>
      <point x="92" y="640" type="curve" smooth="yes"/>
      <point x="113" y="640" type="line" smooth="yes"/>
      <point x="234" y="640"/>
      <point x="299" y="573"/>
      <point x="299" y="507" type="curve" smooth="yes"/>
      <point x="299" y="438"/>
      <point x="229" y="402"/>
      <point x="229" y="341" type="curve" smooth="yes"/>
      <point x="229" y="309"/>
      <point x="266" y="294"/>
      <point x="319" y="286" type="curve" smooth="yes"/>
      <point x="328" y="284"/>
      <point x="336" y="275"/>
      <point x="336" y="266" type="curve" smooth="yes"/>
      <point x="336" y="260" type="line" smooth="yes"/>
      <point x="336" y="251"/>
      <point x="328" y="242"/>
      <point x="319" y="240" type="curve" smooth="yes"/>
      <point x="266" y="232"/>
      <point x="229" y="217"/>
      <point x="229" y="185" type="curve" smooth="yes"/>
      <point x="229" y="124"/>
      <point x="299" y="88"/>
      <point x="299" y="19" type="curve" smooth="yes"/>
      <point x="299" y="-47"/>
      <point x="234" y="-114"/>
      <point x="113" y="-114" type="curve" smooth="yes"/>
      <point x="92" y="-114" type="line" smooth="yes"/>
      <point x="81" y="-114"/>
      <point x="72" y="-105"/>
      <point x="72" y="-94" type="curve" smooth="yes"/>
      <point x="72" y="-83"/>
      <point x="81" y="-74"/>
      <point x="92" y="-74" type="curve" smooth="yes"/>
      <point x="113" y="-74" type="line" smooth="yes"/>
      <point x="198" y="-74"/>
      <point x="259" y="-33"/>
      <point x="259" y="19" type="curve" smooth="yes"/>
      <point x="259" y="88"/>
      <point x="189" y="124"/>
      <point x="189" y="185" type="curve" smooth="yes"/>
      <point x="189" y="229"/>
      <point x="222" y="266"/>
      <point x="313" y="280" type="curve"/>
      <point x="296" y="260" type="line"/>
      <point x="296" y="266" type="line"/>
      <point x="313" y="246" type="line"/>
      <point x="222" y="260"/>
      <point x="189" y="297"/>
      <point x="189" y="341" type="curve" smooth="yes"/>
      <point x="189" y="402"/>
      <point x="259" y="438"/>
      <point x="259" y="507" type="curve" smooth="yes"/>
      <point x="259" y="559"/>
      <point x="198" y="600"/>
      <point x="113" y="600" type="curve" smooth="yes"/>
      <point x="92" y="600" type="line" smooth="yes"/>
      <point x="81" y="600"/>
      <point x="72" y="609"/>
      <point x="72" y="620" type="curve" smooth="yes"/>
      <point x="72" y="631"/>
      <point x="81" y="640"/>
    </contour>
  </outline>
</glyph>
<glyph name="copyright" format="1">
  <advance width="656"/>
  <unicode hex="00A9"/>
  <outline>
    <contour>
      <point x="330" y="550" type="curve" smooth="yes"/>
      <point x="487" y="550"/>
      <point x="613" y="432"/>
      <point x="613" y="265" type="curve" smooth="yes"/>
      <point x="613" y="106"/>
      <point x="509" y="-19"/>
      <point x="330" y="-19" type="curve" smooth="yes"/>
      <point x="161" y="-19"/>
      <point x="43" y="106"/>
      <point x="43" y="262" type="curve"/>
      <point x="43" y="432"/>
      <point x="158" y="550"/>
    </contour>
    <contour>
      <point x="401" y="368" type="curve" smooth="yes"/>
      <point x="385" y="376"/>
      <point x="362" y="383"/>
      <point x="337" y="383" type="curve" smooth="yes"/>
      <point x="275" y="383"/>
      <point x="221" y="334"/>
      <point x="221" y="264" type="curve" smooth="yes"/>
      <point x="221" y="198"/>
      <point x="266" y="148"/>
      <point x="340" y="148" type="curve" smooth="yes"/>
      <point x="365" y="148"/>
      <point x="387" y="154"/>
      <point x="404" y="163" type="curve" smooth="yes"/>
      <point x="414" y="168"/>
      <point x="426" y="164"/>
      <point x="431" y="154" type="curve" smooth="yes"/>
      <point x="436" y="144"/>
      <point x="432" y="132"/>
      <point x="422" y="127" type="curve" smooth="yes"/>
      <point x="399" y="116"/>
      <point x="371" y="108"/>
      <point x="340" y="108" type="curve" smooth="yes"/>
      <point x="240" y="108"/>
      <point x="181" y="176"/>
      <point x="181" y="264" type="curve" smooth="yes"/>
      <point x="181" y="358"/>
      <point x="255" y="423"/>
      <point x="337" y="423" type="curve" smooth="yes"/>
      <point x="370" y="423"/>
      <point x="399" y="414"/>
      <point x="419" y="404" type="curve" smooth="yes"/>
      <point x="429" y="399"/>
      <point x="433" y="387"/>
      <point x="428" y="377" type="curve" smooth="yes"/>
      <point x="423" y="367"/>
      <point x="411" y="363"/>
    </contour>
    <contour>
      <point x="330" y="510" type="curve" smooth="yes"/>
      <point x="182" y="510"/>
      <point x="83" y="408"/>
      <point x="83" y="262" type="curve" smooth="yes"/>
      <point x="83" y="128"/>
      <point x="185" y="21"/>
      <point x="330" y="21" type="curve" smooth="yes"/>
      <point x="483" y="21"/>
      <point x="573" y="128"/>
      <point x="573" y="265" type="curve" smooth="yes"/>
      <point x="573" y="408"/>
      <point x="465" y="510"/>
    </contour>
  </outline>
</glyph>
<glyph name="logicalnot" format="1">
  <advance width="475"/>
  <unicode hex="00AC"/>
  <outline>
    <contour>
      <point x="99" y="272" type="curve" smooth="yes"/>
      <point x="376" y="272" type="line" smooth="yes"/>
      <point x="387" y="272"/>
      <point x="396" y="263"/>
      <point x="396" y="252" type="curve" smooth="yes"/>
      <point x="396" y="241"/>
      <point x="387" y="232"/>
      <point x="376" y="232" type="curve" smooth="yes"/>
      <point x="99" y="232" type="line" smooth="yes"/>
      <point x="88" y="232"/>
      <point x="79" y="241"/>
      <point x="79" y="252" type="curve" smooth="yes"/>
      <point x="79" y="263"/>
      <point x="88" y="272"/>
    </contour>
    <contour>
      <point x="396" y="245" type="curve" smooth="yes"/>
      <point x="396" y="139" type="line" smooth="yes"/>
      <point x="396" y="128"/>
      <point x="387" y="119"/>
      <point x="376" y="119" type="curve" smooth="yes"/>
      <point x="365" y="119"/>
      <point x="356" y="128"/>
      <point x="356" y="139" type="curve" smooth="yes"/>
      <point x="356" y="245" type="line" smooth="yes"/>
      <point x="356" y="256"/>
      <point x="365" y="265"/>
      <point x="376" y="265" type="curve" smooth="yes"/>
      <point x="387" y="265"/>
      <point x="396" y="256"/>
    </contour>
  </outline>
</glyph>
<glyph name="periodcentered" format="1">
  <advance width="206"/>
  <unicode hex="00B7"/>
  <outline>
    <contour>
      <point x="104" y="268" type="curve" smooth="yes"/>
      <point x="127" y="268"/>
      <point x="146" y="247"/>
      <point x="146" y="218" type="curve" smooth="yes"/>
      <point x="146" y="183"/>
      <point x="128" y="168"/>
      <point x="105" y="168" type="curve" smooth="yes"/>
      <point x="83" y="168"/>
      <point x="63" y="184"/>
      <point x="63" y="218" type="curve" smooth="yes"/>
      <point x="63" y="247"/>
      <point x="77" y="268"/>
    </contour>
  </outline>
</glyph>
<glyph name="onesuperior" format="1">
  <advance width="214"/>
  <unicode hex="00B9"/>
  <outline>
    <contour>
      <point x="151" y="521" type="curve" smooth="yes"/>
      <point x="151" y="250" type="line" smooth="yes"/>
      <point x="151" y="239"/>
      <point x="142" y="230"/>
      <point x="131" y="230" type="curve" smooth="yes"/>
      <point x="120" y="230"/>
      <point x="111" y="239"/>
      <point x="111" y="250" type="curve" smooth="yes"/>
      <point x="111" y="521" type="line" smooth="yes"/>
      <point x="111" y="532"/>
      <point x="120" y="541"/>
      <point x="131" y="541" type="curve" smooth="yes"/>
      <point x="142" y="541"/>
      <point x="151" y="532"/>
    </contour>
    <contour>
      <point x="141" y="507" type="curve" smooth="yes"/>
      <point x="55" y="460" type="line" smooth="yes"/>
      <point x="45" y="455"/>
      <point x="33" y="459"/>
      <point x="27" y="468" type="curve" smooth="yes"/>
      <point x="22" y="478"/>
      <point x="26" y="490"/>
      <point x="35" y="496" type="curve" smooth="yes"/>
      <point x="121" y="543" type="line" smooth="yes"/>
      <point x="131" y="548"/>
      <point x="143" y="544"/>
      <point x="149" y="535" type="curve" smooth="yes"/>
      <point x="154" y="525"/>
      <point x="150" y="513"/>
    </contour>
  </outline>
</glyph>
<glyph name="guillemotright" format="1">
  <advance width="430"/>
  <unicode hex="00BB"/>
  <outline>
    <contour>
      <point x="59" y="43" type="curve" smooth="yes"/>
      <point x="176" y="201" type="line" smooth="yes"/>
      <point x="182" y="210"/>
      <point x="195" y="212"/>
      <point x="204" y="205" type="curve" smooth="yes"/>
      <point x="213" y="199"/>
      <point x="215" y="186"/>
      <point x="208" y="177" type="curve" smooth="yes"/>
      <point x="91" y="19" type="line" smooth="yes"/>
      <point x="85" y="10"/>
      <point x="72" y="8"/>
      <point x="63" y="15" type="curve" smooth="yes"/>
      <point x="54" y="21"/>
      <point x="52" y="34"/>
    </contour>
    <contour>
      <point x="176" y="182" type="curve" smooth="yes"/>
      <point x="59" y="340" type="line" smooth="yes"/>
      <point x="52" y="349"/>
      <point x="54" y="362"/>
      <point x="63" y="368" type="curve" smooth="yes"/>
      <point x="72" y="375"/>
      <point x="85" y="373"/>
      <point x="91" y="364" type="curve" smooth="yes"/>
      <point x="208" y="206" type="line" smooth="yes"/>
      <point x="215" y="197"/>
      <point x="213" y="184"/>
      <point x="204" y="178" type="curve" smooth="yes"/>
      <point x="195" y="171"/>
      <point x="182" y="173"/>
    </contour>
    <contour>
      <point x="238" y="43" type="curve" smooth="yes"/>
      <point x="354" y="201" type="line" smooth="yes"/>
      <point x="360" y="210"/>
      <point x="373" y="212"/>
      <point x="382" y="205" type="curve" smooth="yes"/>
      <point x="391" y="199"/>
      <point x="393" y="186"/>
      <point x="386" y="177" type="curve" smooth="yes"/>
      <point x="270" y="19" type="line" smooth="yes"/>
      <point x="264" y="10"/>
      <point x="251" y="8"/>
      <point x="242" y="15" type="curve" smooth="yes"/>
      <point x="233" y="21"/>
      <point x="231" y="34"/>
    </contour>
    <contour>
      <point x="354" y="182" type="curve" smooth="yes"/>
      <point x="238" y="340" type="line" smooth="yes"/>
      <point x="231" y="349"/>
      <point x="233" y="362"/>
      <point x="242" y="368" type="curve" smooth="yes"/>
      <point x="251" y="375"/>
      <point x="264" y="373"/>
      <point x="270" y="364" type="curve" smooth="yes"/>
      <point x="386" y="206" type="line" smooth="yes"/>
      <point x="393" y="197"/>
      <point x="391" y="184"/>
      <point x="382" y="178" type="curve" smooth="yes"/>
      <point x="373" y="171"/>
      <point x="360" y="173"/>
    </contour>
  </outline>
</glyph>
<glyph name="onequarter" format="1">
  <advance width="720"/>
  <unicode hex="00BC"/>
  <outline>
    <contour>
      <point x="519" y="510" type="curve" smooth="yes"/>
      <point x="221" y="1" type="line" smooth="yes"/>
      <point x="216" y="-8"/>
      <point x="203" y="-12"/>
      <point x="194" y="-6" type="curve" smooth="yes"/>
      <point x="185" y="-1"/>
      <point x="181" y="12"/>
      <point x="187" y="21" type="curve" smooth="yes"/>
      <point x="485" y="530" type="line" smooth="yes"/>
      <point x="490" y="539"/>
      <point x="503" y="543"/>
      <point x="512" y="537" type="curve" smooth="yes"/>
      <point x="521" y="532"/>
      <point x="525" y="519"/>
    </contour>
    <contour>
      <point x="588" y="285" type="curve" smooth="yes"/>
      <point x="588" y="12" type="line" smooth="yes"/>
      <point x="588" y="1"/>
      <point x="579" y="-8"/>
      <point x="568" y="-8" type="curve" smooth="yes"/>
      <point x="557" y="-8"/>
      <point x="548" y="1"/>
      <point x="548" y="12" type="curve" smooth="yes"/>
      <point x="548" y="285" type="line" smooth="yes"/>
      <point x="548" y="296"/>
      <point x="557" y="305"/>
      <point x="568" y="305" type="curve" smooth="yes"/>
      <point x="579" y="305"/>
      <point x="588" y="296"/>
    </contour>
    <contour>
      <point x="579" y="266" type="curve" smooth="yes"/>
      <point x="417" y="77" type="line" smooth="yes"/>
      <point x="410" y="69"/>
      <point x="397" y="68"/>
      <point x="389" y="75" type="curve" smooth="yes"/>
      <point x="381" y="82"/>
      <point x="380" y="95"/>
      <point x="387" y="103" type="curve" smooth="yes"/>
      <point x="549" y="292" type="line" smooth="yes"/>
      <point x="556" y="300"/>
      <point x="569" y="301"/>
      <point x="577" y="294" type="curve" smooth="yes"/>
      <point x="585" y="287"/>
      <point x="586" y="274"/>
    </contour>
    <contour>
      <point x="407" y="110" type="curve" smooth="yes"/>
      <point x="633" y="110" type="line" smooth="yes"/>
      <point x="644" y="110"/>
      <point x="653" y="101"/>
      <point x="653" y="90" type="curve" smooth="yes"/>
      <point x="653" y="79"/>
      <point x="644" y="70"/>
      <point x="633" y="70" type="curve" smooth="yes"/>
      <point x="407" y="70" type="line" smooth="yes"/>
      <point x="396" y="70"/>
      <point x="387" y="79"/>
      <point x="387" y="90" type="curve" smooth="yes"/>
      <point x="387" y="101"/>
      <point x="396" y="110"/>
    </contour>
    <contour>
      <point x="217" y="527" type="curve" smooth="yes"/>
      <point x="217" y="256" type="line" smooth="yes"/>
      <point x="217" y="245"/>
      <point x="208" y="236"/>
      <point x="197" y="236" type="curve" smooth="yes"/>
      <point x="186" y="236"/>
      <point x="177" y="245"/>
      <point x="177" y="256" type="curve" smooth="yes"/>
      <point x="177" y="527" type="line" smooth="yes"/>
      <point x="177" y="538"/>
      <point x="186" y="547"/>
      <point x="197" y="547" type="curve" smooth="yes"/>
      <point x="208" y="547"/>
      <point x="217" y="538"/>
    </contour>
    <contour>
      <point x="206" y="512" type="curve" smooth="yes"/>
      <point x="120" y="466" type="line" smooth="yes"/>
      <point x="111" y="461"/>
      <point x="98" y="465"/>
      <point x="93" y="475" type="curve" smooth="yes"/>
      <point x="88" y="484"/>
      <point x="92" y="497"/>
      <point x="102" y="502" type="curve" smooth="yes"/>
      <point x="188" y="548" type="line" smooth="yes"/>
      <point x="197" y="553"/>
      <point x="210" y="549"/>
      <point x="215" y="539" type="curve" smooth="yes"/>
      <point x="220" y="530"/>
      <point x="216" y="517"/>
    </contour>
  </outline>
</glyph>
<glyph name="onehalf" format="1">
  <advance width="789"/>
  <unicode hex="00BD"/>
  <outline>
    <contour>
      <point x="519" y="510" type="curve" smooth="yes"/>
      <point x="221" y="1" type="line" smooth="yes"/>
      <point x="216" y="-8"/>
      <point x="203" y="-12"/>
      <point x="194" y="-6" type="curve" smooth="yes"/>
      <point x="185" y="-1"/>
      <point x="181" y="12"/>
      <point x="187" y="21" type="curve" smooth="yes"/>
      <point x="485" y="530" type="line" smooth="yes"/>
      <point x="490" y="539"/>
      <point x="503" y="543"/>
      <point x="512" y="537" type="curve" smooth="yes"/>
      <point x="521" y="532"/>
      <point x="525" y="519"/>
    </contour>
    <contour>
      <point x="217" y="527" type="curve" smooth="yes"/>
      <point x="217" y="256" type="line" smooth="yes"/>
      <point x="217" y="245"/>
      <point x="208" y="236"/>
      <point x="197" y="236" type="curve" smooth="yes"/>
      <point x="186" y="236"/>
      <point x="177" y="245"/>
      <point x="177" y="256" type="curve" smooth="yes"/>
      <point x="177" y="527" type="line" smooth="yes"/>
      <point x="177" y="538"/>
      <point x="186" y="547"/>
      <point x="197" y="547" type="curve" smooth="yes"/>
      <point x="208" y="547"/>
      <point x="217" y="538"/>
    </contour>
    <contour>
      <point x="206" y="512" type="curve" smooth="yes"/>
      <point x="120" y="466" type="line" smooth="yes"/>
      <point x="111" y="461"/>
      <point x="98" y="465"/>
      <point x="93" y="475" type="curve" smooth="yes"/>
      <point x="88" y="484"/>
      <point x="92" y="497"/>
      <point x="102" y="502" type="curve" smooth="yes"/>
      <point x="188" y="548" type="line" smooth="yes"/>
      <point x="197" y="553"/>
      <point x="210" y="549"/>
      <point x="215" y="539" type="curve" smooth="yes"/>
      <point x="220" y="530"/>
      <point x="216" y="517"/>
    </contour>
    <contour>
      <point x="466" y="31" type="curve" smooth="yes"/>
      <point x="559" y="118" type="line" smooth="yes"/>
      <point x="612" y="168"/>
      <point x="633" y="187"/>
      <point x="633" y="217" type="curve" smooth="yes"/>
      <point x="633" y="241"/>
      <point x="611" y="259"/>
      <point x="574" y="259" type="curve" smooth="yes"/>
      <point x="548" y="259"/>
      <point x="526" y="252"/>
      <point x="504" y="237" type="curve" smooth="yes"/>
      <point x="495" y="231"/>
      <point x="482" y="234"/>
      <point x="476" y="243" type="curve" smooth="yes"/>
      <point x="470" y="252"/>
      <point x="473" y="265"/>
      <point x="482" y="271" type="curve" smooth="yes"/>
      <point x="512" y="290"/>
      <point x="540" y="299"/>
      <point x="574" y="299" type="curve" smooth="yes"/>
      <point x="645" y="299"/>
      <point x="673" y="257"/>
      <point x="673" y="217" type="curve" smooth="yes"/>
      <point x="673" y="179"/>
      <point x="656" y="154"/>
      <point x="587" y="88" type="curve" smooth="yes"/>
      <point x="494" y="1" type="line" smooth="yes"/>
      <point x="486" y="-6"/>
      <point x="473" y="-6"/>
      <point x="465" y="2" type="curve" smooth="yes"/>
      <point x="458" y="10"/>
      <point x="458" y="23"/>
    </contour>
    <contour>
      <point x="673" y="-9" type="curve" smooth="yes"/>
      <point x="474" y="-9" type="line" smooth="yes"/>
      <point x="463" y="-9"/>
      <point x="454" y="0"/>
      <point x="454" y="11" type="curve" smooth="yes"/>
      <point x="454" y="22"/>
      <point x="463" y="31"/>
      <point x="474" y="31" type="curve" smooth="yes"/>
      <point x="673" y="31" type="line" smooth="yes"/>
      <point x="684" y="31"/>
      <point x="693" y="22"/>
      <point x="693" y="11" type="curve" smooth="yes"/>
      <point x="693" y="0"/>
      <point x="684" y="-9"/>
    </contour>
  </outline>
</glyph>
<glyph name="questiondown" format="1">
  <advance width="360"/>
  <unicode hex="00BF"/>
  <outline>
    <contour>
      <point x="214" y="465" type="curve" smooth="yes"/>
      <point x="189" y="465"/>
      <point x="172" y="486"/>
      <point x="172" y="515" type="curve" smooth="yes"/>
      <point x="172" y="550"/>
      <point x="188" y="565"/>
      <point x="213" y="565" type="curve" smooth="yes"/>
      <point x="233" y="565"/>
      <point x="255" y="549"/>
      <point x="255" y="515" type="curve" smooth="yes"/>
      <point x="255" y="486"/>
      <point x="241" y="465"/>
    </contour>
    <contour>
      <point x="324" y="41" type="curve" smooth="yes"/>
      <point x="284" y="16"/>
      <point x="245" y="2"/>
      <point x="181" y="2" type="curve" smooth="yes"/>
      <point x="81" y="2"/>
      <point x="32" y="63"/>
      <point x="32" y="129" type="curve" smooth="yes"/>
      <point x="32" y="188"/>
      <point x="75" y="233"/>
      <point x="135" y="263" type="curve" smooth="yes"/>
      <point x="182" y="288"/>
      <point x="196" y="305"/>
      <point x="199" y="350" type="curve" smooth="yes"/>
      <point x="200" y="361"/>
      <point x="209" y="370"/>
      <point x="220" y="369" type="curve" smooth="yes"/>
      <point x="231" y="368"/>
      <point x="240" y="359"/>
      <point x="239" y="348" type="curve" smooth="yes"/>
      <point x="236" y="287"/>
      <point x="218" y="262"/>
      <point x="153" y="227" type="curve" smooth="yes"/>
      <point x="109" y="205"/>
      <point x="72" y="174"/>
      <point x="72" y="129" type="curve" smooth="yes"/>
      <point x="72" y="81"/>
      <point x="113" y="42"/>
      <point x="181" y="42" type="curve" smooth="yes"/>
      <point x="235" y="42"/>
      <point x="268" y="54"/>
      <point x="302" y="75" type="curve" smooth="yes"/>
      <point x="312" y="81"/>
      <point x="324" y="78"/>
      <point x="330" y="69" type="curve" smooth="yes"/>
      <point x="336" y="59"/>
      <point x="333" y="47"/>
    </contour>
  </outline>
</glyph>
<glyph name="Agrave" format="1">
  <advance width="579"/>
  <unicode hex="00C0"/>
  <outline>
    <contour>
      <point x="298" y="516" type="curve" smooth="yes"/>
      <point x="227" y="355"/>
      <point x="128" y="131"/>
      <point x="81" y="-2" type="curve" smooth="yes"/>
      <point x="77" y="-12"/>
      <point x="66" y="-17"/>
      <point x="55" y="-14" type="curve" smooth="yes"/>
      <point x="45" y="-10"/>
      <point x="40" y="1"/>
      <point x="43" y="12" type="curve" smooth="yes"/>
      <point x="90" y="145"/>
      <point x="191" y="371"/>
      <point x="262" y="532" type="curve" smooth="yes"/>
      <point x="266" y="542"/>
      <point x="278" y="547"/>
      <point x="288" y="542" type="curve" smooth="yes"/>
      <point x="298" y="538"/>
      <point x="303" y="526"/>
    </contour>
    <contour>
      <point x="304" y="532" type="curve" smooth="yes"/>
      <point x="380" y="370"/>
      <point x="484" y="143"/>
      <point x="534" y="12" type="curve" smooth="yes"/>
      <point x="538" y="2"/>
      <point x="532" y="-10"/>
      <point x="522" y="-14" type="curve" smooth="yes"/>
      <point x="512" y="-18"/>
      <point x="500" y="-12"/>
      <point x="496" y="-2" type="curve" smooth="yes"/>
      <point x="446" y="127"/>
      <point x="344" y="354"/>
      <point x="268" y="516" type="curve" smooth="yes"/>
      <point x="263" y="525"/>
      <point x="268" y="538"/>
      <point x="278" y="542" type="curve" smooth="yes"/>
      <point x="287" y="547"/>
      <point x="300" y="542"/>
    </contour>
    <contour>
      <point x="134" y="178" type="curve" smooth="yes"/>
      <point x="440" y="178" type="line" smooth="yes"/>
      <point x="451" y="178"/>
      <point x="460" y="169"/>
      <point x="460" y="158" type="curve" smooth="yes"/>
      <point x="460" y="147"/>
      <point x="451" y="138"/>
      <point x="440" y="138" type="curve" smooth="yes"/>
      <point x="134" y="138" type="line" smooth="yes"/>
      <point x="123" y="138"/>
      <point x="114" y="147"/>
      <point x="114" y="158" type="curve" smooth="yes"/>
      <point x="114" y="169"/>
      <point x="123" y="178"/>
    </contour>
    <contour>
      <point x="175" y="761" type="curve" smooth="yes"/>
      <point x="213" y="740"/>
      <point x="270" y="697"/>
      <point x="298" y="675" type="curve" smooth="yes"/>
      <point x="307" y="668"/>
      <point x="308" y="655"/>
      <point x="302" y="647" type="curve" smooth="yes"/>
      <point x="295" y="638"/>
      <point x="282" y="637"/>
      <point x="274" y="643" type="curve" smooth="yes"/>
      <point x="246" y="665"/>
      <point x="191" y="706"/>
      <point x="155" y="727" type="curve" smooth="yes"/>
      <point x="146" y="732"/>
      <point x="142" y="744"/>
      <point x="148" y="754" type="curve" smooth="yes"/>
      <point x="153" y="763"/>
      <point x="165" y="767"/>
    </contour>
  </outline>
</glyph>
<glyph name="Acircumflex" format="1">
  <advance width="579"/>
  <unicode hex="00C2"/>
  <outline>
    <contour>
      <point x="298" y="517" type="curve" smooth="yes"/>
      <point x="227" y="356"/>
      <point x="128" y="131"/>
      <point x="81" y="-1" type="curve" smooth="yes"/>
      <point x="77" y="-11"/>
      <point x="65" y="-16"/>
      <point x="55" y="-13" type="curve" smooth="yes"/>
      <point x="45" y="-9"/>
      <point x="40" y="3"/>
      <point x="43" y="13" type="curve" smooth="yes"/>
      <point x="90" y="145"/>
      <point x="191" y="372"/>
      <point x="262" y="533" type="curve" smooth="yes"/>
      <point x="266" y="543"/>
      <point x="278" y="548"/>
      <point x="288" y="543" type="curve" smooth="yes"/>
      <point x="298" y="539"/>
      <point x="303" y="527"/>
    </contour>
    <contour>
      <point x="304" y="533" type="curve" smooth="yes"/>
      <point x="380" y="371"/>
      <point x="484" y="143"/>
      <point x="534" y="13" type="curve" smooth="yes"/>
      <point x="538" y="3"/>
      <point x="532" y="-9"/>
      <point x="522" y="-13" type="curve" smooth="yes"/>
      <point x="512" y="-17"/>
      <point x="500" y="-11"/>
      <point x="496" y="-1" type="curve" smooth="yes"/>
      <point x="446" y="127"/>
      <point x="344" y="355"/>
      <point x="268" y="517" type="curve" smooth="yes"/>
      <point x="263" y="526"/>
      <point x="268" y="539"/>
      <point x="278" y="543" type="curve" smooth="yes"/>
      <point x="287" y="548"/>
      <point x="300" y="543"/>
    </contour>
    <contour>
      <point x="134" y="178" type="curve" smooth="yes"/>
      <point x="440" y="178" type="line" smooth="yes"/>
      <point x="451" y="178"/>
      <point x="460" y="169"/>
      <point x="460" y="158" type="curve" smooth="yes"/>
      <point x="460" y="147"/>
      <point x="451" y="138"/>
      <point x="440" y="138" type="curve" smooth="yes"/>
      <point x="134" y="138" type="line" smooth="yes"/>
      <point x="123" y="138"/>
      <point x="114" y="147"/>
      <point x="114" y="158" type="curve" smooth="yes"/>
      <point x="114" y="169"/>
      <point x="123" y="178"/>
    </contour>
    <contour>
      <point x="286" y="704" type="curve" smooth="yes"/>
      <point x="251" y="679"/>
      <point x="214" y="654"/>
      <point x="185" y="632" type="curve" smooth="yes"/>
      <point x="176" y="626"/>
      <point x="164" y="627"/>
      <point x="157" y="636" type="curve" smooth="yes"/>
      <point x="151" y="645"/>
      <point x="152" y="657"/>
      <point x="161" y="664" type="curve" smooth="yes"/>
      <point x="190" y="686"/>
      <point x="227" y="711"/>
      <point x="262" y="736" type="curve" smooth="yes"/>
      <point x="271" y="743"/>
      <point x="284" y="740"/>
      <point x="290" y="732" type="curve" smooth="yes"/>
      <point x="297" y="723"/>
      <point x="294" y="710"/>
    </contour>
    <contour>
      <point x="370" y="632" type="curve" smooth="yes"/>
      <point x="341" y="654"/>
      <point x="305" y="679"/>
      <point x="270" y="704" type="curve" smooth="yes"/>
      <point x="261" y="710"/>
      <point x="258" y="723"/>
      <point x="265" y="731" type="curve" smooth="yes"/>
      <point x="271" y="740"/>
      <point x="284" y="743"/>
      <point x="292" y="736" type="curve" smooth="yes"/>
      <point x="329" y="711"/>
      <point x="365" y="686"/>
      <point x="394" y="664" type="curve" smooth="yes"/>
      <point x="403" y="657"/>
      <point x="404" y="645"/>
      <point x="398" y="636" type="curve" smooth="yes"/>
      <point x="391" y="627"/>
      <point x="379" y="626"/>
    </contour>
  </outline>
</glyph>
<glyph name="Atilde" format="1">
  <advance width="579"/>
  <unicode hex="00C3"/>
  <outline>
    <contour>
      <point x="298" y="517" type="curve" smooth="yes"/>
      <point x="227" y="356"/>
      <point x="128" y="132"/>
      <point x="81" y="-1" type="curve" smooth="yes"/>
      <point x="77" y="-11"/>
      <point x="66" y="-16"/>
      <point x="55" y="-13" type="curve" smooth="yes"/>
      <point x="45" y="-9"/>
      <point x="40" y="2"/>
      <point x="43" y="13" type="curve" smooth="yes"/>
      <point x="90" y="146"/>
      <point x="191" y="372"/>
      <point x="262" y="533" type="curve" smooth="yes"/>
      <point x="266" y="543"/>
      <point x="278" y="548"/>
      <point x="288" y="543" type="curve" smooth="yes"/>
      <point x="298" y="539"/>
      <point x="303" y="527"/>
    </contour>
    <contour>
      <point x="304" y="533" type="curve" smooth="yes"/>
      <point x="380" y="371"/>
      <point x="484" y="143"/>
      <point x="534" y="13" type="curve" smooth="yes"/>
      <point x="538" y="3"/>
      <point x="532" y="-9"/>
      <point x="522" y="-13" type="curve" smooth="yes"/>
      <point x="512" y="-17"/>
      <point x="500" y="-11"/>
      <point x="496" y="-1" type="curve" smooth="yes"/>
      <point x="446" y="127"/>
      <point x="344" y="355"/>
      <point x="268" y="517" type="curve" smooth="yes"/>
      <point x="263" y="526"/>
      <point x="268" y="539"/>
      <point x="278" y="543" type="curve" smooth="yes"/>
      <point x="287" y="548"/>
      <point x="300" y="543"/>
    </contour>
    <contour>
      <point x="134" y="178" type="curve" smooth="yes"/>
      <point x="440" y="178" type="line" smooth="yes"/>
      <point x="451" y="178"/>
      <point x="460" y="169"/>
      <point x="460" y="158" type="curve" smooth="yes"/>
      <point x="460" y="147"/>
      <point x="451" y="138"/>
      <point x="440" y="138" type="curve" smooth="yes"/>
      <point x="134" y="138" type="line" smooth="yes"/>
      <point x="123" y="138"/>
      <point x="114" y="147"/>
      <point x="114" y="158" type="curve" smooth="yes"/>
      <point x="114" y="169"/>
      <point x="123" y="178"/>
    </contour>
    <contour>
      <point x="141" y="674" type="curve" smooth="yes"/>
      <point x="170" y="712"/>
      <point x="199" y="732"/>
      <point x="229" y="732" type="curve" smooth="yes"/>
      <point x="255" y="732"/>
      <point x="278" y="718"/>
      <point x="303" y="699" type="curve" smooth="yes"/>
      <point x="320" y="687"/>
      <point x="334" y="676"/>
      <point x="351" y="676" type="curve" smooth="yes"/>
      <point x="376" y="676"/>
      <point x="392" y="694"/>
      <point x="414" y="723" type="curve" smooth="yes"/>
      <point x="420" y="732"/>
      <point x="433" y="733"/>
      <point x="442" y="727" type="curve" smooth="yes"/>
      <point x="451" y="721"/>
      <point x="452" y="708"/>
      <point x="446" y="699" type="curve" smooth="yes"/>
      <point x="414" y="656"/>
      <point x="386" y="636"/>
      <point x="351" y="636" type="curve" smooth="yes"/>
      <point x="326" y="636"/>
      <point x="304" y="649"/>
      <point x="279" y="667" type="curve" smooth="yes"/>
      <point x="262" y="680"/>
      <point x="247" y="692"/>
      <point x="229" y="692" type="curve" smooth="yes"/>
      <point x="209" y="692"/>
      <point x="192" y="674"/>
      <point x="173" y="650" type="curve" smooth="yes"/>
      <point x="166" y="641"/>
      <point x="153" y="640"/>
      <point x="145" y="646" type="curve" smooth="yes"/>
      <point x="136" y="653"/>
      <point x="135" y="666"/>
    </contour>
  </outline>
</glyph>
<glyph name="Aring" format="1">
  <advance width="579"/>
  <unicode hex="00C5"/>
  <outline>
    <contour>
      <point x="390" y="608" type="curve" smooth="yes"/>
      <point x="390" y="556"/>
      <point x="350" y="506"/>
      <point x="279" y="506" type="curve" smooth="yes"/>
      <point x="211" y="506"/>
      <point x="171" y="559"/>
      <point x="171" y="608" type="curve" smooth="yes"/>
      <point x="171" y="657"/>
      <point x="211" y="710"/>
      <point x="279" y="710" type="curve" smooth="yes"/>
      <point x="350" y="710"/>
      <point x="390" y="660"/>
    </contour>
    <contour>
      <point x="298" y="517" type="curve" smooth="yes"/>
      <point x="227" y="357"/>
      <point x="128" y="132"/>
      <point x="81" y="0" type="curve" smooth="yes"/>
      <point x="77" y="-10"/>
      <point x="65" y="-15"/>
      <point x="55" y="-12" type="curve" smooth="yes"/>
      <point x="45" y="-8"/>
      <point x="40" y="4"/>
      <point x="43" y="14" type="curve" smooth="yes"/>
      <point x="90" y="146"/>
      <point x="191" y="373"/>
      <point x="262" y="533" type="curve" smooth="yes"/>
      <point x="266" y="543"/>
      <point x="278" y="548"/>
      <point x="288" y="543" type="curve" smooth="yes"/>
      <point x="298" y="539"/>
      <point x="303" y="527"/>
    </contour>
    <contour>
      <point x="304" y="534" type="curve" smooth="yes"/>
      <point x="380" y="372"/>
      <point x="484" y="144"/>
      <point x="534" y="14" type="curve" smooth="yes"/>
      <point x="538" y="4"/>
      <point x="532" y="-8"/>
      <point x="522" y="-12" type="curve" smooth="yes"/>
      <point x="512" y="-16"/>
      <point x="500" y="-10"/>
      <point x="496" y="0" type="curve" smooth="yes"/>
      <point x="446" y="128"/>
      <point x="344" y="356"/>
      <point x="268" y="516" type="curve" smooth="yes"/>
      <point x="263" y="526"/>
      <point x="268" y="538"/>
      <point x="277" y="543" type="curve" smooth="yes"/>
      <point x="287" y="548"/>
      <point x="299" y="543"/>
    </contour>
    <contour>
      <point x="134" y="179" type="curve" smooth="yes"/>
      <point x="440" y="179" type="line" smooth="yes"/>
      <point x="451" y="179"/>
      <point x="460" y="170"/>
      <point x="460" y="159" type="curve" smooth="yes"/>
      <point x="460" y="148"/>
      <point x="451" y="139"/>
      <point x="440" y="139" type="curve" smooth="yes"/>
      <point x="134" y="139" type="line" smooth="yes"/>
      <point x="123" y="139"/>
      <point x="114" y="148"/>
      <point x="114" y="159" type="curve" smooth="yes"/>
      <point x="114" y="170"/>
      <point x="123" y="179"/>
    </contour>
    <contour>
      <point x="350" y="608" type="curve" smooth="yes"/>
      <point x="350" y="642"/>
      <point x="322" y="670"/>
      <point x="279" y="670" type="curve" smooth="yes"/>
      <point x="237" y="670"/>
      <point x="211" y="639"/>
      <point x="211" y="608" type="curve" smooth="yes"/>
      <point x="211" y="577"/>
      <point x="237" y="546"/>
      <point x="279" y="546" type="curve" smooth="yes"/>
      <point x="322" y="546"/>
      <point x="350" y="574"/>
    </contour>
  </outline>
</glyph>
<glyph name="Eacute" format="1">
  <advance width="481"/>
  <unicode hex="00C9"/>
  <outline>
    <contour>
      <point x="134" y="515" type="curve" smooth="yes"/>
      <point x="134" y="5" type="line" smooth="yes"/>
      <point x="134" y="-6"/>
      <point x="125" y="-15"/>
      <point x="114" y="-15" type="curve" smooth="yes"/>
      <point x="103" y="-15"/>
      <point x="94" y="-6"/>
      <point x="94" y="5" type="curve" smooth="yes"/>
      <point x="94" y="515" type="line" smooth="yes"/>
      <point x="94" y="526"/>
      <point x="103" y="535"/>
      <point x="114" y="535" type="curve" smooth="yes"/>
      <point x="125" y="535"/>
      <point x="134" y="526"/>
    </contour>
    <contour>
      <point x="123" y="25" type="curve" smooth="yes"/>
      <point x="407" y="25" type="line" smooth="yes"/>
      <point x="418" y="25"/>
      <point x="427" y="16"/>
      <point x="427" y="5" type="curve" smooth="yes"/>
      <point x="427" y="-6"/>
      <point x="418" y="-15"/>
      <point x="407" y="-15" type="curve" smooth="yes"/>
      <point x="123" y="-15" type="line" smooth="yes"/>
      <point x="112" y="-15"/>
      <point x="103" y="-6"/>
      <point x="103" y="5" type="curve" smooth="yes"/>
      <point x="103" y="16"/>
      <point x="112" y="25"/>
    </contour>
    <contour>
      <point x="123" y="535" type="curve" smooth="yes"/>
      <point x="405" y="535" type="line" smooth="yes"/>
      <point x="416" y="535"/>
      <point x="425" y="526"/>
      <point x="425" y="515" type="curve" smooth="yes"/>
      <point x="425" y="504"/>
      <point x="416" y="495"/>
      <point x="405" y="495" type="curve" smooth="yes"/>
      <point x="123" y="495" type="line" smooth="yes"/>
      <point x="112" y="495"/>
      <point x="103" y="504"/>
      <point x="103" y="515" type="curve" smooth="yes"/>
      <point x="103" y="526"/>
      <point x="112" y="535"/>
    </contour>
    <contour>
      <point x="123" y="300" type="curve" smooth="yes"/>
      <point x="360" y="300" type="line" smooth="yes"/>
      <point x="371" y="300"/>
      <point x="380" y="291"/>
      <point x="380" y="280" type="curve" smooth="yes"/>
      <point x="380" y="269"/>
      <point x="371" y="260"/>
      <point x="360" y="260" type="curve" smooth="yes"/>
      <point x="123" y="260" type="line" smooth="yes"/>
      <point x="112" y="260"/>
      <point x="103" y="269"/>
      <point x="103" y="280" type="curve" smooth="yes"/>
      <point x="103" y="291"/>
      <point x="112" y="300"/>
    </contour>
    <contour>
      <point x="390" y="726" type="curve" smooth="yes"/>
      <point x="343" y="697"/>
      <point x="292" y="666"/>
      <point x="263" y="644" type="curve" smooth="yes"/>
      <point x="254" y="637"/>
      <point x="241" y="639"/>
      <point x="235" y="648" type="curve" smooth="yes"/>
      <point x="228" y="657"/>
      <point x="230" y="670"/>
      <point x="239" y="676" type="curve" smooth="yes"/>
      <point x="270" y="698"/>
      <point x="321" y="731"/>
      <point x="370" y="760" type="curve" smooth="yes"/>
      <point x="379" y="766"/>
      <point x="392" y="763"/>
      <point x="397" y="753" type="curve" smooth="yes"/>
      <point x="403" y="744"/>
      <point x="400" y="731"/>
    </contour>
  </outline>
</glyph>
<glyph name="Ecircumflex" format="1">
  <advance width="481"/>
  <unicode hex="00CA"/>
  <outline>
    <contour>
      <point x="134" y="515" type="curve" smooth="yes"/>
      <point x="134" y="5" type="line" smooth="yes"/>
      <point x="134" y="-6"/>
      <point x="125" y="-15"/>
      <point x="114" y="-15" type="curve" smooth="yes"/>
      <point x="103" y="-15"/>
      <point x="94" y="-6"/>
      <point x="94" y="5" type="curve" smooth="yes"/>
      <point x="94" y="515" type="line" smooth="yes"/>
      <point x="94" y="526"/>
      <point x="103" y="535"/>
      <point x="114" y="535" type="curve" smooth="yes"/>
      <point x="125" y="535"/>
      <point x="134" y="526"/>
    </contour>
    <contour>
      <point x="123" y="25" type="curve" smooth="yes"/>
      <point x="407" y="25" type="line" smooth="yes"/>
      <point x="418" y="25"/>
      <point x="427" y="16"/>
      <point x="427" y="5" type="curve" smooth="yes"/>
      <point x="427" y="-6"/>
      <point x="418" y="-15"/>
      <point x="407" y="-15" type="curve" smooth="yes"/>
      <point x="123" y="-15" type="line" smooth="yes"/>
      <point x="112" y="-15"/>
      <point x="103" y="-6"/>
      <point x="103" y="5" type="curve" smooth="yes"/>
      <point x="103" y="16"/>
      <point x="112" y="25"/>
    </contour>
    <contour>
      <point x="123" y="535" type="curve" smooth="yes"/>
      <point x="405" y="535" type="line" smooth="yes"/>
      <point x="416" y="535"/>
      <point x="425" y="526"/>
      <point x="425" y="515" type="curve" smooth="yes"/>
      <point x="425" y="504"/>
      <point x="416" y="495"/>
      <point x="405" y="495" type="curve" smooth="yes"/>
      <point x="123" y="495" type="line" smooth="yes"/>
      <point x="112" y="495"/>
      <point x="103" y="504"/>
      <point x="103" y="515" type="curve" smooth="yes"/>
      <point x="103" y="526"/>
      <point x="112" y="535"/>
    </contour>
    <contour>
      <point x="123" y="300" type="curve" smooth="yes"/>
      <point x="360" y="300" type="line" smooth="yes"/>
      <point x="371" y="300"/>
      <point x="380" y="291"/>
      <point x="380" y="280" type="curve" smooth="yes"/>
      <point x="380" y="269"/>
      <point x="371" y="260"/>
      <point x="360" y="260" type="curve" smooth="yes"/>
      <point x="123" y="260" type="line" smooth="yes"/>
      <point x="112" y="260"/>
      <point x="103" y="269"/>
      <point x="103" y="280" type="curve" smooth="yes"/>
      <point x="103" y="291"/>
      <point x="112" y="300"/>
    </contour>
    <contour>
      <point x="258" y="725" type="curve" smooth="yes"/>
      <point x="224" y="699"/>
      <point x="187" y="674"/>
      <point x="158" y="652" type="curve" smooth="yes"/>
      <point x="149" y="646"/>
      <point x="137" y="647"/>
      <point x="130" y="656" type="curve" smooth="yes"/>
      <point x="124" y="665"/>
      <point x="125" y="677"/>
      <point x="134" y="684" type="curve" smooth="yes"/>
      <point x="163" y="706"/>
      <point x="200" y="731"/>
      <point x="234" y="757" type="curve" smooth="yes"/>
      <point x="242" y="763"/>
      <point x="255" y="762"/>
      <point x="262" y="753" type="curve" smooth="yes"/>
      <point x="268" y="745"/>
      <point x="267" y="732"/>
    </contour>
    <contour>
      <point x="343" y="652" type="curve" smooth="yes"/>
      <point x="313" y="674"/>
      <point x="278" y="699"/>
      <point x="242" y="725" type="curve" smooth="yes"/>
      <point x="234" y="731"/>
      <point x="231" y="744"/>
      <point x="238" y="753" type="curve" smooth="yes"/>
      <point x="244" y="761"/>
      <point x="257" y="764"/>
      <point x="266" y="757" type="curve" smooth="yes"/>
      <point x="302" y="731"/>
      <point x="337" y="706"/>
      <point x="367" y="684" type="curve" smooth="yes"/>
      <point x="376" y="678"/>
      <point x="378" y="665"/>
      <point x="371" y="656" type="curve" smooth="yes"/>
      <point x="365" y="647"/>
      <point x="352" y="645"/>
    </contour>
  </outline>
</glyph>
<glyph name="Edieresis" format="1">
  <advance width="481"/>
  <unicode hex="00CB"/>
  <outline>
    <contour>
      <point x="152" y="743" type="curve" smooth="yes"/>
      <point x="169" y="743"/>
      <point x="189" y="724"/>
      <point x="189" y="696" type="curve" smooth="yes"/>
      <point x="189" y="663"/>
      <point x="169" y="648"/>
      <point x="152" y="648" type="curve" smooth="yes"/>
      <point x="131" y="648"/>
      <point x="113" y="665"/>
      <point x="113" y="696" type="curve" smooth="yes"/>
      <point x="113" y="723"/>
      <point x="131" y="743"/>
    </contour>
    <contour>
      <point x="355" y="743" type="curve" smooth="yes"/>
      <point x="372" y="743"/>
      <point x="391" y="725"/>
      <point x="391" y="696" type="curve" smooth="yes"/>
      <point x="391" y="662"/>
      <point x="372" y="648"/>
      <point x="355" y="648" type="curve" smooth="yes"/>
      <point x="334" y="648"/>
      <point x="317" y="664"/>
      <point x="317" y="696" type="curve" smooth="yes"/>
      <point x="317" y="723"/>
      <point x="334" y="743"/>
    </contour>
    <contour>
      <point x="134" y="515" type="curve" smooth="yes"/>
      <point x="134" y="6" type="line" smooth="yes"/>
      <point x="134" y="-5"/>
      <point x="125" y="-14"/>
      <point x="114" y="-14" type="curve" smooth="yes"/>
      <point x="103" y="-14"/>
      <point x="94" y="-5"/>
      <point x="94" y="6" type="curve" smooth="yes"/>
      <point x="94" y="515" type="line" smooth="yes"/>
      <point x="94" y="526"/>
      <point x="103" y="535"/>
      <point x="114" y="535" type="curve" smooth="yes"/>
      <point x="125" y="535"/>
      <point x="134" y="526"/>
    </contour>
    <contour>
      <point x="123" y="26" type="curve" smooth="yes"/>
      <point x="407" y="26" type="line" smooth="yes"/>
      <point x="418" y="26"/>
      <point x="427" y="17"/>
      <point x="427" y="6" type="curve" smooth="yes"/>
      <point x="427" y="-5"/>
      <point x="418" y="-14"/>
      <point x="407" y="-14" type="curve" smooth="yes"/>
      <point x="123" y="-14" type="line" smooth="yes"/>
      <point x="112" y="-14"/>
      <point x="103" y="-5"/>
      <point x="103" y="6" type="curve" smooth="yes"/>
      <point x="103" y="17"/>
      <point x="112" y="26"/>
    </contour>
    <contour>
      <point x="123" y="535" type="curve" smooth="yes"/>
      <point x="405" y="535" type="line" smooth="yes"/>
      <point x="416" y="535"/>
      <point x="425" y="526"/>
      <point x="425" y="515" type="curve" smooth="yes"/>
      <point x="425" y="504"/>
      <point x="416" y="495"/>
      <point x="405" y="495" type="curve" smooth="yes"/>
      <point x="123" y="495" type="line" smooth="yes"/>
      <point x="112" y="495"/>
      <point x="103" y="504"/>
      <point x="103" y="515" type="curve" smooth="yes"/>
      <point x="103" y="526"/>
      <point x="112" y="535"/>
    </contour>
    <contour>
      <point x="123" y="300" type="curve" smooth="yes"/>
      <point x="360" y="300" type="line" smooth="yes"/>
      <point x="371" y="300"/>
      <point x="380" y="291"/>
      <point x="380" y="280" type="curve" smooth="yes"/>
      <point x="380" y="269"/>
      <point x="371" y="260"/>
      <point x="360" y="260" type="curve" smooth="yes"/>
      <point x="123" y="260" type="line" smooth="yes"/>
      <point x="112" y="260"/>
      <point x="103" y="269"/>
      <point x="103" y="280" type="curve" smooth="yes"/>
      <point x="103" y="291"/>
      <point x="112" y="300"/>
    </contour>
  </outline>
</glyph>
<glyph name="Idieresis" format="1">
  <advance width="239"/>
  <unicode hex="00CF"/>
  <outline>
    <contour>
      <point x="22" y="743" type="curve" smooth="yes"/>
      <point x="39" y="743"/>
      <point x="59" y="724"/>
      <point x="59" y="696" type="curve" smooth="yes"/>
      <point x="59" y="663"/>
      <point x="39" y="648"/>
      <point x="22" y="648" type="curve" smooth="yes"/>
      <point x="1" y="648"/>
      <point x="-17" y="665"/>
      <point x="-17" y="696" type="curve" smooth="yes"/>
      <point x="-17" y="723"/>
      <point x="1" y="743"/>
    </contour>
    <contour>
      <point x="224" y="743" type="curve" smooth="yes"/>
      <point x="243" y="743"/>
      <point x="261" y="724"/>
      <point x="261" y="696" type="curve" smooth="yes"/>
      <point x="261" y="663"/>
      <point x="243" y="648"/>
      <point x="224" y="648" type="curve" smooth="yes"/>
      <point x="205" y="648"/>
      <point x="187" y="663"/>
      <point x="187" y="696" type="curve" smooth="yes"/>
      <point x="187" y="724"/>
      <point x="205" y="743"/>
    </contour>
    <contour>
      <point x="139" y="515" type="curve" smooth="yes"/>
      <point x="139" y="6" type="line" smooth="yes"/>
      <point x="139" y="-5"/>
      <point x="130" y="-14"/>
      <point x="119" y="-14" type="curve" smooth="yes"/>
      <point x="108" y="-14"/>
      <point x="99" y="-5"/>
      <point x="99" y="6" type="curve" smooth="yes"/>
      <point x="99" y="515" type="line" smooth="yes"/>
      <point x="99" y="526"/>
      <point x="108" y="535"/>
      <point x="119" y="535" type="curve" smooth="yes"/>
      <point x="130" y="535"/>
      <point x="139" y="526"/>
    </contour>
  </outline>
</glyph>
<glyph name="Ograve" format="1">
  <advance width="642"/>
  <unicode hex="00D2"/>
  <outline>
    <contour>
      <point x="323" y="544" type="curve" smooth="yes"/>
      <point x="469" y="544"/>
      <point x="587" y="428"/>
      <point x="587" y="260" type="curve" smooth="yes"/>
      <point x="587" y="100"/>
      <point x="489" y="-24"/>
      <point x="323" y="-24" type="curve" smooth="yes"/>
      <point x="166" y="-24"/>
      <point x="55" y="100"/>
      <point x="55" y="257" type="curve" smooth="yes"/>
      <point x="55" y="428"/>
      <point x="164" y="544"/>
    </contour>
    <contour>
      <point x="323" y="504" type="curve" smooth="yes"/>
      <point x="186" y="504"/>
      <point x="95" y="402"/>
      <point x="95" y="257" type="curve" smooth="yes"/>
      <point x="95" y="124"/>
      <point x="188" y="16"/>
      <point x="323" y="16" type="curve" smooth="yes"/>
      <point x="465" y="16"/>
      <point x="547" y="124"/>
      <point x="547" y="260" type="curve" smooth="yes"/>
      <point x="547" y="402"/>
      <point x="449" y="504"/>
    </contour>
    <contour>
      <point x="208" y="762" type="curve" smooth="yes"/>
      <point x="246" y="740"/>
      <point x="304" y="697"/>
      <point x="332" y="675" type="curve" smooth="yes"/>
      <point x="341" y="668"/>
      <point x="342" y="655"/>
      <point x="336" y="647" type="curve" smooth="yes"/>
      <point x="329" y="638"/>
      <point x="316" y="637"/>
      <point x="308" y="643" type="curve" smooth="yes"/>
      <point x="280" y="665"/>
      <point x="226" y="706"/>
      <point x="188" y="726" type="curve" smooth="yes"/>
      <point x="179" y="732"/>
      <point x="175" y="744"/>
      <point x="180" y="754" type="curve" smooth="yes"/>
      <point x="186" y="763"/>
      <point x="198" y="767"/>
    </contour>
  </outline>
</glyph>
<glyph name="Ocircumflex" format="1">
  <advance width="642"/>
  <unicode hex="00D4"/>
  <outline>
    <contour>
      <point x="323" y="545" type="curve" smooth="yes"/>
      <point x="469" y="545"/>
      <point x="587" y="428"/>
      <point x="587" y="260" type="curve" smooth="yes"/>
      <point x="587" y="100"/>
      <point x="489" y="-23"/>
      <point x="323" y="-23" type="curve" smooth="yes"/>
      <point x="166" y="-23"/>
      <point x="55" y="100"/>
      <point x="55" y="257" type="curve" smooth="yes"/>
      <point x="55" y="428"/>
      <point x="164" y="545"/>
    </contour>
    <contour>
      <point x="323" y="505" type="curve" smooth="yes"/>
      <point x="186" y="505"/>
      <point x="95" y="402"/>
      <point x="95" y="257" type="curve" smooth="yes"/>
      <point x="95" y="124"/>
      <point x="188" y="17"/>
      <point x="323" y="17" type="curve" smooth="yes"/>
      <point x="465" y="17"/>
      <point x="547" y="124"/>
      <point x="547" y="260" type="curve" smooth="yes"/>
      <point x="547" y="402"/>
      <point x="449" y="505"/>
    </contour>
    <contour>
      <point x="329" y="714" type="curve" smooth="yes"/>
      <point x="294" y="689"/>
      <point x="257" y="664"/>
      <point x="228" y="642" type="curve" smooth="yes"/>
      <point x="219" y="636"/>
      <point x="207" y="637"/>
      <point x="200" y="646" type="curve" smooth="yes"/>
      <point x="194" y="655"/>
      <point x="195" y="667"/>
      <point x="204" y="674" type="curve" smooth="yes"/>
      <point x="233" y="696"/>
      <point x="270" y="721"/>
      <point x="305" y="746" type="curve" smooth="yes"/>
      <point x="314" y="753"/>
      <point x="327" y="750"/>
      <point x="333" y="742" type="curve" smooth="yes"/>
      <point x="340" y="733"/>
      <point x="337" y="720"/>
    </contour>
    <contour>
      <point x="413" y="642" type="curve" smooth="yes"/>
      <point x="384" y="664"/>
      <point x="348" y="689"/>
      <point x="313" y="714" type="curve" smooth="yes"/>
      <point x="304" y="720"/>
      <point x="301" y="733"/>
      <point x="308" y="741" type="curve" smooth="yes"/>
      <point x="314" y="750"/>
      <point x="327" y="753"/>
      <point x="335" y="746" type="curve" smooth="yes"/>
      <point x="372" y="721"/>
      <point x="408" y="696"/>
      <point x="437" y="674" type="curve" smooth="yes"/>
      <point x="446" y="667"/>
      <point x="447" y="655"/>
      <point x="441" y="646" type="curve" smooth="yes"/>
      <point x="434" y="637"/>
      <point x="422" y="636"/>
    </contour>
  </outline>
</glyph>
<glyph name="Odieresis" format="1">
  <advance width="642"/>
  <unicode hex="00D6"/>
  <outline>
    <contour>
      <point x="323" y="545" type="curve" smooth="yes"/>
      <point x="469" y="545"/>
      <point x="587" y="429"/>
      <point x="587" y="260" type="curve" smooth="yes"/>
      <point x="587" y="100"/>
      <point x="489" y="-23"/>
      <point x="323" y="-23" type="curve" smooth="yes"/>
      <point x="166" y="-23"/>
      <point x="55" y="100"/>
      <point x="55" y="257" type="curve" smooth="yes"/>
      <point x="55" y="429"/>
      <point x="164" y="545"/>
    </contour>
    <contour>
      <point x="218" y="743" type="curve" smooth="yes"/>
      <point x="237" y="743"/>
      <point x="255" y="726"/>
      <point x="255" y="696" type="curve" smooth="yes"/>
      <point x="255" y="663"/>
      <point x="237" y="649"/>
      <point x="218" y="649" type="curve" smooth="yes"/>
      <point x="199" y="649"/>
      <point x="179" y="665"/>
      <point x="179" y="696" type="curve" smooth="yes"/>
      <point x="179" y="725"/>
      <point x="199" y="743"/>
    </contour>
    <contour>
      <point x="421" y="743" type="curve" smooth="yes"/>
      <point x="438" y="743"/>
      <point x="458" y="726"/>
      <point x="458" y="696" type="curve" smooth="yes"/>
      <point x="458" y="663"/>
      <point x="438" y="649"/>
      <point x="421" y="649" type="curve" smooth="yes"/>
      <point x="400" y="649"/>
      <point x="383" y="664"/>
      <point x="383" y="696" type="curve" smooth="yes"/>
      <point x="383" y="726"/>
      <point x="400" y="743"/>
    </contour>
    <contour>
      <point x="323" y="505" type="curve" smooth="yes"/>
      <point x="186" y="505"/>
      <point x="95" y="403"/>
      <point x="95" y="257" type="curve" smooth="yes"/>
      <point x="95" y="124"/>
      <point x="188" y="17"/>
      <point x="323" y="17" type="curve" smooth="yes"/>
      <point x="465" y="17"/>
      <point x="547" y="124"/>
      <point x="547" y="260" type="curve" smooth="yes"/>
      <point x="547" y="403"/>
      <point x="449" y="505"/>
    </contour>
  </outline>
</glyph>
<glyph name="Oslash" format="1">
  <advance width="642"/>
  <unicode hex="00D8"/>
  <outline>
    <contour>
      <point x="323" y="550" type="curve" smooth="yes"/>
      <point x="469" y="550"/>
      <point x="587" y="434"/>
      <point x="587" y="265" type="curve" smooth="yes"/>
      <point x="587" y="105"/>
      <point x="489" y="-18"/>
      <point x="323" y="-18" type="curve" smooth="yes"/>
      <point x="166" y="-18"/>
      <point x="55" y="105"/>
      <point x="55" y="262" type="curve" smooth="yes"/>
      <point x="55" y="434"/>
      <point x="164" y="550"/>
    </contour>
    <contour>
      <point x="552" y="507" type="curve" smooth="yes"/>
      <point x="122" y="-22" type="line" smooth="yes"/>
      <point x="115" y="-30"/>
      <point x="102" y="-31"/>
      <point x="93" y="-25" type="curve" smooth="yes"/>
      <point x="85" y="-18"/>
      <point x="84" y="-5"/>
      <point x="90" y="4" type="curve" smooth="yes"/>
      <point x="520" y="533" type="line" smooth="yes"/>
      <point x="527" y="541"/>
      <point x="540" y="542"/>
      <point x="549" y="536" type="curve" smooth="yes"/>
      <point x="557" y="529"/>
      <point x="558" y="516"/>
    </contour>
    <contour>
      <point x="323" y="510" type="curve" smooth="yes"/>
      <point x="186" y="510"/>
      <point x="95" y="408"/>
      <point x="95" y="262" type="curve" smooth="yes"/>
      <point x="95" y="129"/>
      <point x="188" y="22"/>
      <point x="323" y="22" type="curve" smooth="yes"/>
      <point x="465" y="22"/>
      <point x="547" y="129"/>
      <point x="547" y="265" type="curve" smooth="yes"/>
      <point x="547" y="408"/>
      <point x="449" y="510"/>
    </contour>
  </outline>
</glyph>
<glyph name="Uacute" format="1">
  <advance width="617"/>
  <unicode hex="00DA"/>
  <outline>
    <contour>
      <point x="122" y="516" type="curve" smooth="yes"/>
      <point x="122" y="205" type="line" smooth="yes"/>
      <point x="122" y="85"/>
      <point x="198" y="17"/>
      <point x="306" y="17" type="curve" smooth="yes"/>
      <point x="427" y="17"/>
      <point x="495" y="85"/>
      <point x="495" y="208" type="curve" smooth="yes"/>
      <point x="495" y="516" type="line" smooth="yes"/>
      <point x="495" y="527"/>
      <point x="504" y="536"/>
      <point x="515" y="536" type="curve" smooth="yes"/>
      <point x="526" y="536"/>
      <point x="535" y="527"/>
      <point x="535" y="516" type="curve" smooth="yes"/>
      <point x="535" y="208" type="line" smooth="yes"/>
      <point x="535" y="59"/>
      <point x="453" y="-23"/>
      <point x="306" y="-23" type="curve" smooth="yes"/>
      <point x="174" y="-23"/>
      <point x="82" y="59"/>
      <point x="82" y="205" type="curve" smooth="yes"/>
      <point x="82" y="516" type="line" smooth="yes"/>
      <point x="82" y="527"/>
      <point x="91" y="536"/>
      <point x="102" y="536" type="curve" smooth="yes"/>
      <point x="113" y="536"/>
      <point x="122" y="527"/>
    </contour>
    <contour>
      <point x="444" y="695" type="curve" smooth="yes"/>
      <point x="397" y="667"/>
      <point x="347" y="634"/>
      <point x="317" y="613" type="curve" smooth="yes"/>
      <point x="308" y="606"/>
      <point x="295" y="609"/>
      <point x="289" y="617" type="curve" smooth="yes"/>
      <point x="282" y="626"/>
      <point x="285" y="639"/>
      <point x="293" y="645" type="curve" smooth="yes"/>
      <point x="325" y="668"/>
      <point x="375" y="701"/>
      <point x="424" y="729" type="curve" smooth="yes"/>
      <point x="433" y="735"/>
      <point x="446" y="731"/>
      <point x="451" y="722" type="curve" smooth="yes"/>
      <point x="457" y="713"/>
      <point x="453" y="700"/>
    </contour>
  </outline>
</glyph>
<glyph name="Udieresis" format="1">
  <advance width="617"/>
  <unicode hex="00DC"/>
  <outline>
    <contour>
      <point x="206" y="713" type="curve" smooth="yes"/>
      <point x="223" y="713"/>
      <point x="242" y="697"/>
      <point x="242" y="665" type="curve" smooth="yes"/>
      <point x="242" y="634"/>
      <point x="223" y="618"/>
      <point x="206" y="618" type="curve" smooth="yes"/>
      <point x="185" y="618"/>
      <point x="167" y="636"/>
      <point x="167" y="665" type="curve" smooth="yes"/>
      <point x="167" y="694"/>
      <point x="185" y="713"/>
    </contour>
    <contour>
      <point x="408" y="713" type="curve" smooth="yes"/>
      <point x="427" y="713"/>
      <point x="445" y="695"/>
      <point x="445" y="665" type="curve" smooth="yes"/>
      <point x="445" y="635"/>
      <point x="427" y="618"/>
      <point x="408" y="618" type="curve" smooth="yes"/>
      <point x="389" y="618"/>
      <point x="370" y="635"/>
      <point x="370" y="665" type="curve" smooth="yes"/>
      <point x="370" y="695"/>
      <point x="389" y="713"/>
    </contour>
    <contour>
      <point x="122" y="516" type="curve" smooth="yes"/>
      <point x="122" y="205" type="line" smooth="yes"/>
      <point x="122" y="85"/>
      <point x="198" y="17"/>
      <point x="306" y="17" type="curve" smooth="yes"/>
      <point x="427" y="17"/>
      <point x="495" y="85"/>
      <point x="495" y="209" type="curve" smooth="yes"/>
      <point x="495" y="516" type="line" smooth="yes"/>
      <point x="495" y="527"/>
      <point x="504" y="536"/>
      <point x="515" y="536" type="curve" smooth="yes"/>
      <point x="526" y="536"/>
      <point x="535" y="527"/>
      <point x="535" y="516" type="curve" smooth="yes"/>
      <point x="535" y="209" type="line" smooth="yes"/>
      <point x="535" y="59"/>
      <point x="453" y="-23"/>
      <point x="306" y="-23" type="curve" smooth="yes"/>
      <point x="174" y="-23"/>
      <point x="82" y="59"/>
      <point x="82" y="205" type="curve" smooth="yes"/>
      <point x="82" y="516" type="line" smooth="yes"/>
      <point x="82" y="527"/>
      <point x="91" y="536"/>
      <point x="102" y="536" type="curve" smooth="yes"/>
      <point x="113" y="536"/>
      <point x="122" y="527"/>
    </contour>
  </outline>
</glyph>
<glyph name="Yacute" format="1">
  <advance width="558"/>
  <unicode hex="00DD"/>
  <outline>
    <contour>
      <point x="301" y="183" type="curve" smooth="yes"/>
      <point x="301" y="6" type="line" smooth="yes"/>
      <point x="301" y="-5"/>
      <point x="292" y="-14"/>
      <point x="281" y="-14" type="curve" smooth="yes"/>
      <point x="270" y="-14"/>
      <point x="261" y="-5"/>
      <point x="261" y="6" type="curve" smooth="yes"/>
      <point x="261" y="183" type="line" smooth="yes"/>
      <point x="261" y="194"/>
      <point x="270" y="203"/>
      <point x="281" y="203" type="curve" smooth="yes"/>
      <point x="292" y="203"/>
      <point x="301" y="194"/>
    </contour>
    <contour>
      <point x="80" y="525" type="curve" smooth="yes"/>
      <point x="124" y="453"/>
      <point x="249" y="267"/>
      <point x="294" y="207" type="curve" smooth="yes"/>
      <point x="300" y="198"/>
      <point x="299" y="185"/>
      <point x="290" y="179" type="curve" smooth="yes"/>
      <point x="281" y="173"/>
      <point x="268" y="174"/>
      <point x="262" y="183" type="curve" smooth="yes"/>
      <point x="217" y="243"/>
      <point x="90" y="431"/>
      <point x="46" y="505" type="curve" smooth="yes"/>
      <point x="40" y="514"/>
      <point x="43" y="527"/>
      <point x="53" y="532" type="curve" smooth="yes"/>
      <point x="62" y="538"/>
      <point x="75" y="535"/>
    </contour>
    <contour>
      <point x="265" y="201" type="curve" smooth="yes"/>
      <point x="317" y="270"/>
      <point x="435" y="454"/>
      <point x="478" y="525" type="curve" smooth="yes"/>
      <point x="483" y="535"/>
      <point x="496" y="538"/>
      <point x="505" y="532" type="curve" smooth="yes"/>
      <point x="515" y="527"/>
      <point x="518" y="514"/>
      <point x="512" y="505" type="curve" smooth="yes"/>
      <point x="469" y="432"/>
      <point x="349" y="246"/>
      <point x="297" y="177" type="curve" smooth="yes"/>
      <point x="290" y="168"/>
      <point x="278" y="167"/>
      <point x="269" y="173" type="curve" smooth="yes"/>
      <point x="260" y="180"/>
      <point x="259" y="192"/>
    </contour>
    <contour>
      <point x="421" y="695" type="curve" smooth="yes"/>
      <point x="374" y="666"/>
      <point x="324" y="634"/>
      <point x="294" y="613" type="curve" smooth="yes"/>
      <point x="285" y="606"/>
      <point x="272" y="609"/>
      <point x="266" y="617" type="curve" smooth="yes"/>
      <point x="259" y="626"/>
      <point x="262" y="639"/>
      <point x="270" y="645" type="curve" smooth="yes"/>
      <point x="302" y="668"/>
      <point x="352" y="700"/>
      <point x="401" y="729" type="curve" smooth="yes"/>
      <point x="410" y="735"/>
      <point x="423" y="732"/>
      <point x="428" y="722" type="curve" smooth="yes"/>
      <point x="434" y="713"/>
      <point x="431" y="700"/>
    </contour>
  </outline>
</glyph>
<glyph name="germandbls" format="1">
  <advance width="504"/>
  <unicode hex="00DF"/>
  <outline>
    <contour>
      <point x="247" y="311" type="curve" smooth="yes"/>
      <point x="329" y="366"/>
      <point x="347" y="398"/>
      <point x="347" y="452" type="curve" smooth="yes"/>
      <point x="347" y="505"/>
      <point x="310" y="555"/>
      <point x="234" y="554" type="curve" smooth="yes"/>
      <point x="161" y="552"/>
      <point x="127" y="504"/>
      <point x="127" y="441" type="curve" smooth="yes"/>
      <point x="127" y="10" type="line" smooth="yes"/>
      <point x="127" y="-1"/>
      <point x="118" y="-10"/>
      <point x="107" y="-10" type="curve" smooth="yes"/>
      <point x="96" y="-10"/>
      <point x="87" y="-1"/>
      <point x="87" y="10" type="curve" smooth="yes"/>
      <point x="87" y="441" type="line" smooth="yes"/>
      <point x="87" y="528"/>
      <point x="135" y="592"/>
      <point x="234" y="594" type="curve" smooth="yes"/>
      <point x="340" y="595"/>
      <point x="387" y="523"/>
      <point x="387" y="452" type="curve" smooth="yes"/>
      <point x="387" y="388"/>
      <point x="371" y="346"/>
      <point x="269" y="277" type="curve" smooth="yes"/>
      <point x="260" y="271"/>
      <point x="247" y="274"/>
      <point x="241" y="283" type="curve" smooth="yes"/>
      <point x="235" y="292"/>
      <point x="238" y="305"/>
    </contour>
    <contour>
      <point x="260" y="36" type="curve" smooth="yes"/>
      <point x="274" y="30"/>
      <point x="298" y="25"/>
      <point x="323" y="25" type="curve" smooth="yes"/>
      <point x="388" y="25"/>
      <point x="425" y="61"/>
      <point x="425" y="115" type="curve" smooth="yes"/>
      <point x="425" y="161"/>
      <point x="396" y="201"/>
      <point x="336" y="230" type="curve" smooth="yes"/>
      <point x="249" y="272" type="line" smooth="yes"/>
      <point x="240" y="277"/>
      <point x="235" y="289"/>
      <point x="240" y="299" type="curve" smooth="yes"/>
      <point x="245" y="308"/>
      <point x="257" y="313"/>
      <point x="267" y="308" type="curve" smooth="yes"/>
      <point x="354" y="266" type="line" smooth="yes"/>
      <point x="432" y="227"/>
      <point x="465" y="173"/>
      <point x="465" y="115" type="curve" smooth="yes"/>
      <point x="465" y="41"/>
      <point x="416" y="-15"/>
      <point x="323" y="-15" type="curve" smooth="yes"/>
      <point x="292" y="-15"/>
      <point x="264" y="-8"/>
      <point x="246" y="-2" type="curve" smooth="yes"/>
      <point x="236" y="2"/>
      <point x="230" y="14"/>
      <point x="234" y="24" type="curve" smooth="yes"/>
      <point x="238" y="34"/>
      <point x="250" y="40"/>
    </contour>
  </outline>
</glyph>
<glyph name="agrave" format="1">
  <advance width="446"/>
  <unicode hex="00E0"/>
  <outline>
    <contour>
      <point x="110" y="370" type="curve" smooth="yes"/>
      <point x="133" y="377"/>
      <point x="177" y="388"/>
      <point x="214" y="388" type="curve" smooth="yes"/>
      <point x="323" y="388"/>
      <point x="374" y="321"/>
      <point x="374" y="224" type="curve" smooth="yes"/>
      <point x="374" y="128" type="line" smooth="yes"/>
      <point x="374" y="78"/>
      <point x="386" y="47"/>
      <point x="408" y="24" type="curve" smooth="yes"/>
      <point x="415" y="16"/>
      <point x="415" y="3"/>
      <point x="407" y="-5" type="curve" smooth="yes"/>
      <point x="399" y="-12"/>
      <point x="386" y="-12"/>
      <point x="378" y="-4" type="curve" smooth="yes"/>
      <point x="350" y="27"/>
      <point x="334" y="64"/>
      <point x="334" y="128" type="curve" smooth="yes"/>
      <point x="334" y="224" type="line" smooth="yes"/>
      <point x="334" y="297"/>
      <point x="297" y="348"/>
      <point x="214" y="348" type="curve" smooth="yes"/>
      <point x="181" y="348"/>
      <point x="143" y="339"/>
      <point x="122" y="332" type="curve" smooth="yes"/>
      <point x="112" y="329"/>
      <point x="100" y="335"/>
      <point x="97" y="345" type="curve" smooth="yes"/>
      <point x="94" y="355"/>
      <point x="100" y="367"/>
    </contour>
    <contour>
      <point x="352" y="192" type="curve" smooth="yes"/>
      <point x="318" y="193"/>
      <point x="286" y="196"/>
      <point x="256" y="196" type="curve" smooth="yes"/>
      <point x="186" y="196"/>
      <point x="139" y="180"/>
      <point x="110" y="151" type="curve" smooth="yes"/>
      <point x="92" y="134"/>
      <point x="87" y="115"/>
      <point x="87" y="94" type="curve" smooth="yes"/>
      <point x="87" y="63"/>
      <point x="112" y="29"/>
      <point x="169" y="29" type="curve" smooth="yes"/>
      <point x="239" y="29"/>
      <point x="292" y="58"/>
      <point x="338" y="120" type="curve" smooth="yes"/>
      <point x="344" y="129"/>
      <point x="357" y="131"/>
      <point x="366" y="124" type="curve" smooth="yes"/>
      <point x="375" y="118"/>
      <point x="377" y="105"/>
      <point x="370" y="96" type="curve" smooth="yes"/>
      <point x="316" y="22"/>
      <point x="253" y="-11"/>
      <point x="169" y="-11" type="curve" smooth="yes"/>
      <point x="76" y="-11"/>
      <point x="47" y="49"/>
      <point x="47" y="94" type="curve"/>
      <point x="47" y="125"/>
      <point x="56" y="154"/>
      <point x="82" y="179" type="curve" smooth="yes"/>
      <point x="117" y="214"/>
      <point x="172" y="236"/>
      <point x="256" y="236" type="curve" smooth="yes"/>
      <point x="286" y="236"/>
      <point x="318" y="233"/>
      <point x="354" y="232" type="curve" smooth="yes"/>
      <point x="364" y="232"/>
      <point x="373" y="222"/>
      <point x="373" y="211" type="curve" smooth="yes"/>
      <point x="373" y="201"/>
      <point x="363" y="192"/>
    </contour>
    <contour>
      <point x="154" y="623" type="curve" smooth="yes"/>
      <point x="183" y="586"/>
      <point x="200" y="564"/>
      <point x="228" y="522" type="curve" smooth="yes"/>
      <point x="234" y="513"/>
      <point x="231" y="500"/>
      <point x="222" y="494" type="curve" smooth="yes"/>
      <point x="213" y="488"/>
      <point x="200" y="491"/>
      <point x="194" y="500" type="curve" smooth="yes"/>
      <point x="168" y="540"/>
      <point x="151" y="562"/>
      <point x="122" y="597" type="curve" smooth="yes"/>
      <point x="116" y="606"/>
      <point x="117" y="619"/>
      <point x="125" y="626" type="curve" smooth="yes"/>
      <point x="134" y="632"/>
      <point x="147" y="631"/>
    </contour>
  </outline>
</glyph>
<glyph name="adieresis" format="1">
  <advance width="446"/>
  <unicode hex="00E4"/>
  <outline>
    <contour>
      <point x="122" y="601" type="curve" smooth="yes"/>
      <point x="141" y="601"/>
      <point x="159" y="583"/>
      <point x="159" y="553" type="curve" smooth="yes"/>
      <point x="159" y="525"/>
      <point x="142" y="508"/>
      <point x="122" y="508" type="curve" smooth="yes"/>
      <point x="102" y="508"/>
      <point x="85" y="525"/>
      <point x="85" y="553" type="curve" smooth="yes"/>
      <point x="85" y="583"/>
      <point x="103" y="601"/>
    </contour>
    <contour>
      <point x="309" y="601" type="curve" smooth="yes"/>
      <point x="328" y="601"/>
      <point x="346" y="583"/>
      <point x="346" y="553" type="curve" smooth="yes"/>
      <point x="346" y="525"/>
      <point x="329" y="508"/>
      <point x="309" y="508" type="curve" smooth="yes"/>
      <point x="289" y="508"/>
      <point x="271" y="526"/>
      <point x="271" y="553" type="curve" smooth="yes"/>
      <point x="271" y="583"/>
      <point x="290" y="601"/>
    </contour>
    <contour>
      <point x="110" y="371" type="curve" smooth="yes"/>
      <point x="133" y="378"/>
      <point x="177" y="389"/>
      <point x="214" y="389" type="curve" smooth="yes"/>
      <point x="323" y="389"/>
      <point x="374" y="322"/>
      <point x="374" y="225" type="curve" smooth="yes"/>
      <point x="374" y="129" type="line" smooth="yes"/>
      <point x="374" y="78"/>
      <point x="386" y="48"/>
      <point x="408" y="23" type="curve" smooth="yes"/>
      <point x="415" y="15"/>
      <point x="414" y="2"/>
      <point x="406" y="-5" type="curve" smooth="yes"/>
      <point x="398" y="-12"/>
      <point x="385" y="-11"/>
      <point x="378" y="-3" type="curve" smooth="yes"/>
      <point x="350" y="28"/>
      <point x="334" y="64"/>
      <point x="334" y="129" type="curve" smooth="yes"/>
      <point x="334" y="225" type="line" smooth="yes"/>
      <point x="334" y="298"/>
      <point x="297" y="349"/>
      <point x="214" y="349" type="curve" smooth="yes"/>
      <point x="181" y="349"/>
      <point x="143" y="340"/>
      <point x="122" y="333" type="curve" smooth="yes"/>
      <point x="112" y="330"/>
      <point x="100" y="336"/>
      <point x="97" y="346" type="curve" smooth="yes"/>
      <point x="94" y="356"/>
      <point x="100" y="368"/>
    </contour>
    <contour>
      <point x="352" y="193" type="curve" smooth="yes"/>
      <point x="318" y="194"/>
      <point x="286" y="196"/>
      <point x="256" y="196" type="curve" smooth="yes"/>
      <point x="186" y="196"/>
      <point x="139" y="180"/>
      <point x="110" y="152" type="curve" smooth="yes"/>
      <point x="92" y="135"/>
      <point x="87" y="115"/>
      <point x="87" y="94" type="curve" smooth="yes"/>
      <point x="87" y="64"/>
      <point x="112" y="29"/>
      <point x="169" y="29" type="curve" smooth="yes"/>
      <point x="239" y="29"/>
      <point x="292" y="59"/>
      <point x="338" y="121" type="curve" smooth="yes"/>
      <point x="344" y="130"/>
      <point x="357" y="132"/>
      <point x="366" y="125" type="curve" smooth="yes"/>
      <point x="375" y="119"/>
      <point x="377" y="106"/>
      <point x="370" y="97" type="curve" smooth="yes"/>
      <point x="316" y="23"/>
      <point x="253" y="-11"/>
      <point x="169" y="-11" type="curve" smooth="yes"/>
      <point x="76" y="-11"/>
      <point x="47" y="50"/>
      <point x="47" y="94" type="curve"/>
      <point x="47" y="127"/>
      <point x="56" y="155"/>
      <point x="82" y="180" type="curve" smooth="yes"/>
      <point x="117" y="214"/>
      <point x="172" y="236"/>
      <point x="256" y="236" type="curve" smooth="yes"/>
      <point x="286" y="236"/>
      <point x="318" y="234"/>
      <point x="354" y="233" type="curve" smooth="yes"/>
      <point x="364" y="233"/>
      <point x="373" y="223"/>
      <point x="373" y="212" type="curve" smooth="yes"/>
      <point x="373" y="202"/>
      <point x="363" y="193"/>
    </contour>
  </outline>
</glyph>
<glyph name="ae" format="1">
  <advance width="765"/>
  <unicode hex="00E6"/>
  <outline>
    <contour>
      <point x="110" y="376" type="curve" smooth="yes"/>
      <point x="133" y="383"/>
      <point x="177" y="394"/>
      <point x="214" y="394" type="curve" smooth="yes"/>
      <point x="323" y="394"/>
      <point x="382" y="326"/>
      <point x="382" y="230" type="curve" smooth="yes"/>
      <point x="382" y="202" type="line" smooth="yes"/>
      <point x="382" y="191"/>
      <point x="373" y="182"/>
      <point x="362" y="182" type="curve" smooth="yes"/>
      <point x="351" y="182"/>
      <point x="342" y="191"/>
      <point x="342" y="202" type="curve" smooth="yes"/>
      <point x="342" y="230" type="line" smooth="yes"/>
      <point x="342" y="304"/>
      <point x="297" y="354"/>
      <point x="214" y="354" type="curve" smooth="yes"/>
      <point x="181" y="354"/>
      <point x="143" y="345"/>
      <point x="122" y="338" type="curve" smooth="yes"/>
      <point x="112" y="335"/>
      <point x="100" y="341"/>
      <point x="97" y="351" type="curve" smooth="yes"/>
      <point x="94" y="361"/>
      <point x="100" y="373"/>
    </contour>
    <contour>
      <point x="360" y="198" type="curve" smooth="yes"/>
      <point x="325" y="199"/>
      <point x="286" y="201"/>
      <point x="256" y="201" type="curve" smooth="yes"/>
      <point x="186" y="201"/>
      <point x="139" y="185"/>
      <point x="110" y="157" type="curve" smooth="yes"/>
      <point x="92" y="140"/>
      <point x="87" y="120"/>
      <point x="87" y="99" type="curve" smooth="yes"/>
      <point x="87" y="69"/>
      <point x="112" y="34"/>
      <point x="169" y="34" type="curve" smooth="yes"/>
      <point x="241" y="34"/>
      <point x="307" y="71"/>
      <point x="364" y="122" type="curve" smooth="yes"/>
      <point x="372" y="129"/>
      <point x="385" y="128"/>
      <point x="392" y="120" type="curve" smooth="yes"/>
      <point x="399" y="112"/>
      <point x="398" y="99"/>
      <point x="390" y="92" type="curve" smooth="yes"/>
      <point x="327" y="35"/>
      <point x="251" y="-6"/>
      <point x="169" y="-6" type="curve" smooth="yes"/>
      <point x="76" y="-6"/>
      <point x="47" y="55"/>
      <point x="47" y="99" type="curve"/>
      <point x="47" y="132"/>
      <point x="56" y="160"/>
      <point x="82" y="185" type="curve" smooth="yes"/>
      <point x="117" y="219"/>
      <point x="172" y="241"/>
      <point x="256" y="241" type="curve" smooth="yes"/>
      <point x="286" y="241"/>
      <point x="325" y="239"/>
      <point x="362" y="238" type="curve" smooth="yes"/>
      <point x="372" y="238"/>
      <point x="381" y="228"/>
      <point x="381" y="217" type="curve" smooth="yes"/>
      <point x="381" y="207"/>
      <point x="371" y="198"/>
    </contour>
    <contour>
      <point x="379" y="213" type="curve" smooth="yes"/>
      <point x="598" y="213" type="line" smooth="yes"/>
      <point x="642" y="213"/>
      <point x="664" y="227"/>
      <point x="664" y="258" type="curve" smooth="yes"/>
      <point x="664" y="301"/>
      <point x="614" y="354"/>
      <point x="541" y="354" type="curve" smooth="yes"/>
      <point x="454" y="354"/>
      <point x="385" y="287"/>
      <point x="385" y="189" type="curve" smooth="yes"/>
      <point x="385" y="87"/>
      <point x="459" y="34"/>
      <point x="562" y="34" type="curve" smooth="yes"/>
      <point x="597" y="34"/>
      <point x="632" y="42"/>
      <point x="657" y="52" type="curve" smooth="yes"/>
      <point x="667" y="56"/>
      <point x="679" y="50"/>
      <point x="683" y="40" type="curve" smooth="yes"/>
      <point x="687" y="30"/>
      <point x="681" y="18"/>
      <point x="671" y="14" type="curve" smooth="yes"/>
      <point x="642" y="4"/>
      <point x="603" y="-6"/>
      <point x="562" y="-6" type="curve" smooth="yes"/>
      <point x="433" y="-6"/>
      <point x="345" y="63"/>
      <point x="345" y="189" type="curve" smooth="yes"/>
      <point x="345" y="312"/>
      <point x="434" y="394"/>
      <point x="541" y="394" type="curve" smooth="yes"/>
      <point x="644" y="394"/>
      <point x="704" y="315"/>
      <point x="704" y="258" type="curve" smooth="yes"/>
      <point x="704" y="209"/>
      <point x="680" y="173"/>
      <point x="598" y="173" type="curve" smooth="yes"/>
      <point x="379" y="173" type="line" smooth="yes"/>
      <point x="368" y="173"/>
      <point x="359" y="182"/>
      <point x="359" y="193" type="curve" smooth="yes"/>
      <point x="359" y="204"/>
      <point x="368" y="213"/>
    </contour>
  </outline>
</glyph>
<glyph name="egrave" format="1">
  <advance width="473"/>
  <unicode hex="00E8"/>
  <outline>
    <contour>
      <point x="86" y="207" type="curve" smooth="yes"/>
      <point x="306" y="207" type="line" smooth="yes"/>
      <point x="350" y="207"/>
      <point x="372" y="221"/>
      <point x="372" y="252" type="curve" smooth="yes"/>
      <point x="372" y="296"/>
      <point x="321" y="348"/>
      <point x="249" y="348" type="curve" smooth="yes"/>
      <point x="162" y="348"/>
      <point x="93" y="281"/>
      <point x="93" y="183" type="curve" smooth="yes"/>
      <point x="93" y="81"/>
      <point x="167" y="29"/>
      <point x="270" y="29" type="curve" smooth="yes"/>
      <point x="305" y="29"/>
      <point x="339" y="36"/>
      <point x="364" y="47" type="curve" smooth="yes"/>
      <point x="374" y="51"/>
      <point x="386" y="46"/>
      <point x="391" y="36" type="curve" smooth="yes"/>
      <point x="395" y="26"/>
      <point x="390" y="14"/>
      <point x="380" y="9" type="curve" smooth="yes"/>
      <point x="351" y="-2"/>
      <point x="311" y="-11"/>
      <point x="270" y="-11" type="curve" smooth="yes"/>
      <point x="141" y="-11"/>
      <point x="53" y="59"/>
      <point x="53" y="183" type="curve"/>
      <point x="53" y="306"/>
      <point x="140" y="388"/>
      <point x="249" y="388" type="curve" smooth="yes"/>
      <point x="351" y="388"/>
      <point x="412" y="310"/>
      <point x="412" y="252" type="curve" smooth="yes"/>
      <point x="412" y="203"/>
      <point x="388" y="167"/>
      <point x="306" y="167" type="curve" smooth="yes"/>
      <point x="86" y="167" type="line" smooth="yes"/>
      <point x="75" y="167"/>
      <point x="66" y="176"/>
      <point x="66" y="187" type="curve" smooth="yes"/>
      <point x="66" y="198"/>
      <point x="75" y="207"/>
    </contour>
    <contour>
      <point x="183" y="623" type="curve" smooth="yes"/>
      <point x="212" y="586"/>
      <point x="229" y="564"/>
      <point x="257" y="522" type="curve" smooth="yes"/>
      <point x="263" y="513"/>
      <point x="260" y="500"/>
      <point x="251" y="494" type="curve" smooth="yes"/>
      <point x="242" y="488"/>
      <point x="229" y="491"/>
      <point x="223" y="500" type="curve" smooth="yes"/>
      <point x="197" y="540"/>
      <point x="180" y="562"/>
      <point x="151" y="597" type="curve" smooth="yes"/>
      <point x="145" y="606"/>
      <point x="146" y="619"/>
      <point x="154" y="626" type="curve" smooth="yes"/>
      <point x="163" y="632"/>
      <point x="176" y="631"/>
    </contour>
  </outline>
</glyph>
<glyph name="eacute" format="1">
  <advance width="473"/>
  <unicode hex="00E9"/>
  <outline>
    <contour>
      <point x="86" y="207" type="curve" smooth="yes"/>
      <point x="306" y="207" type="line" smooth="yes"/>
      <point x="350" y="207"/>
      <point x="372" y="221"/>
      <point x="372" y="252" type="curve" smooth="yes"/>
      <point x="372" y="296"/>
      <point x="321" y="348"/>
      <point x="249" y="348" type="curve" smooth="yes"/>
      <point x="162" y="348"/>
      <point x="93" y="281"/>
      <point x="93" y="183" type="curve" smooth="yes"/>
      <point x="93" y="81"/>
      <point x="167" y="29"/>
      <point x="270" y="29" type="curve" smooth="yes"/>
      <point x="305" y="29"/>
      <point x="339" y="36"/>
      <point x="364" y="47" type="curve" smooth="yes"/>
      <point x="374" y="51"/>
      <point x="386" y="46"/>
      <point x="391" y="36" type="curve" smooth="yes"/>
      <point x="395" y="26"/>
      <point x="390" y="14"/>
      <point x="380" y="9" type="curve" smooth="yes"/>
      <point x="351" y="-2"/>
      <point x="311" y="-11"/>
      <point x="270" y="-11" type="curve" smooth="yes"/>
      <point x="141" y="-11"/>
      <point x="53" y="59"/>
      <point x="53" y="183" type="curve"/>
      <point x="53" y="306"/>
      <point x="140" y="388"/>
      <point x="249" y="388" type="curve" smooth="yes"/>
      <point x="351" y="388"/>
      <point x="412" y="310"/>
      <point x="412" y="252" type="curve" smooth="yes"/>
      <point x="412" y="203"/>
      <point x="388" y="167"/>
      <point x="306" y="167" type="curve" smooth="yes"/>
      <point x="86" y="167" type="line" smooth="yes"/>
      <point x="75" y="167"/>
      <point x="66" y="176"/>
      <point x="66" y="187" type="curve" smooth="yes"/>
      <point x="66" y="198"/>
      <point x="75" y="207"/>
    </contour>
    <contour>
      <point x="349" y="598" type="curve" smooth="yes"/>
      <point x="320" y="566"/>
      <point x="291" y="532"/>
      <point x="264" y="500" type="curve" smooth="yes"/>
      <point x="257" y="492"/>
      <point x="244" y="491"/>
      <point x="236" y="498" type="curve" smooth="yes"/>
      <point x="228" y="505"/>
      <point x="227" y="518"/>
      <point x="234" y="526" type="curve" smooth="yes"/>
      <point x="261" y="558"/>
      <point x="290" y="592"/>
      <point x="319" y="624" type="curve" smooth="yes"/>
      <point x="326" y="632"/>
      <point x="339" y="633"/>
      <point x="347" y="626" type="curve" smooth="yes"/>
      <point x="355" y="619"/>
      <point x="356" y="606"/>
    </contour>
  </outline>
</glyph>
<glyph name="edieresis" format="1">
  <advance width="473"/>
  <unicode hex="00EB"/>
  <outline>
    <contour>
      <point x="144" y="601" type="curve" smooth="yes"/>
      <point x="163" y="601"/>
      <point x="181" y="583"/>
      <point x="181" y="553" type="curve" smooth="yes"/>
      <point x="181" y="525"/>
      <point x="164" y="508"/>
      <point x="144" y="508" type="curve" smooth="yes"/>
      <point x="124" y="508"/>
      <point x="106" y="526"/>
      <point x="106" y="553" type="curve" smooth="yes"/>
      <point x="106" y="583"/>
      <point x="125" y="601"/>
    </contour>
    <contour>
      <point x="331" y="601" type="curve" smooth="yes"/>
      <point x="350" y="601"/>
      <point x="368" y="583"/>
      <point x="368" y="553" type="curve" smooth="yes"/>
      <point x="368" y="525"/>
      <point x="351" y="508"/>
      <point x="331" y="508" type="curve" smooth="yes"/>
      <point x="309" y="508"/>
      <point x="293" y="526"/>
      <point x="293" y="553" type="curve" smooth="yes"/>
      <point x="293" y="583"/>
      <point x="310" y="601"/>
    </contour>
    <contour>
      <point x="86" y="208" type="curve" smooth="yes"/>
      <point x="306" y="208" type="line" smooth="yes"/>
      <point x="350" y="208"/>
      <point x="372" y="222"/>
      <point x="372" y="253" type="curve" smooth="yes"/>
      <point x="372" y="296"/>
      <point x="321" y="349"/>
      <point x="249" y="349" type="curve" smooth="yes"/>
      <point x="162" y="349"/>
      <point x="93" y="282"/>
      <point x="93" y="184" type="curve" smooth="yes"/>
      <point x="93" y="82"/>
      <point x="167" y="29"/>
      <point x="270" y="29" type="curve" smooth="yes"/>
      <point x="305" y="29"/>
      <point x="340" y="37"/>
      <point x="365" y="47" type="curve" smooth="yes"/>
      <point x="375" y="51"/>
      <point x="387" y="45"/>
      <point x="391" y="35" type="curve" smooth="yes"/>
      <point x="395" y="25"/>
      <point x="389" y="13"/>
      <point x="379" y="9" type="curve" smooth="yes"/>
      <point x="350" y="-1"/>
      <point x="311" y="-11"/>
      <point x="270" y="-11" type="curve" smooth="yes"/>
      <point x="141" y="-11"/>
      <point x="53" y="58"/>
      <point x="53" y="184" type="curve"/>
      <point x="53" y="307"/>
      <point x="140" y="389"/>
      <point x="249" y="389" type="curve" smooth="yes"/>
      <point x="351" y="389"/>
      <point x="412" y="310"/>
      <point x="412" y="253" type="curve" smooth="yes"/>
      <point x="412" y="204"/>
      <point x="388" y="168"/>
      <point x="306" y="168" type="curve" smooth="yes"/>
      <point x="86" y="168" type="line" smooth="yes"/>
      <point x="75" y="168"/>
      <point x="66" y="177"/>
      <point x="66" y="188" type="curve" smooth="yes"/>
      <point x="66" y="199"/>
      <point x="75" y="208"/>
    </contour>
  </outline>
</glyph>
<glyph name="igrave" format="1">
  <advance width="214"/>
  <unicode hex="00EC"/>
  <outline>
    <contour>
      <point x="87" y="9" type="curve" smooth="yes"/>
      <point x="87" y="368" type="line" smooth="yes"/>
      <point x="87" y="379"/>
      <point x="96" y="388"/>
      <point x="107" y="388" type="curve" smooth="yes"/>
      <point x="118" y="388"/>
      <point x="127" y="379"/>
      <point x="127" y="368" type="curve" smooth="yes"/>
      <point x="127" y="9" type="line" smooth="yes"/>
      <point x="127" y="-2"/>
      <point x="118" y="-11"/>
      <point x="107" y="-11" type="curve" smooth="yes"/>
      <point x="96" y="-11"/>
      <point x="87" y="-2"/>
    </contour>
    <contour>
      <point x="40" y="622" type="curve" smooth="yes"/>
      <point x="68" y="586"/>
      <point x="86" y="563"/>
      <point x="113" y="522" type="curve" smooth="yes"/>
      <point x="119" y="513"/>
      <point x="116" y="500"/>
      <point x="107" y="494" type="curve" smooth="yes"/>
      <point x="98" y="488"/>
      <point x="85" y="491"/>
      <point x="79" y="500" type="curve" smooth="yes"/>
      <point x="54" y="541"/>
      <point x="36" y="562"/>
      <point x="8" y="598" type="curve" smooth="yes"/>
      <point x="2" y="606"/>
      <point x="3" y="619"/>
      <point x="12" y="626" type="curve" smooth="yes"/>
      <point x="20" y="632"/>
      <point x="33" y="631"/>
    </contour>
  </outline>
</glyph>
<glyph name="idieresis" format="1">
  <advance width="214"/>
  <unicode hex="00EF"/>
  <outline>
    <contour>
      <point x="6" y="601" type="curve" smooth="yes"/>
      <point x="25" y="601"/>
      <point x="43" y="583"/>
      <point x="43" y="553" type="curve" smooth="yes"/>
      <point x="43" y="525"/>
      <point x="26" y="508"/>
      <point x="6" y="508" type="curve" smooth="yes"/>
      <point x="-16" y="508"/>
      <point x="-32" y="526"/>
      <point x="-32" y="553" type="curve" smooth="yes"/>
      <point x="-32" y="583"/>
      <point x="-15" y="601"/>
    </contour>
    <contour>
      <point x="193" y="601" type="curve" smooth="yes"/>
      <point x="210" y="601"/>
      <point x="230" y="583"/>
      <point x="230" y="553" type="curve" smooth="yes"/>
      <point x="230" y="525"/>
      <point x="211" y="508"/>
      <point x="193" y="508" type="curve" smooth="yes"/>
      <point x="171" y="508"/>
      <point x="155" y="526"/>
      <point x="155" y="553" type="curve" smooth="yes"/>
      <point x="155" y="583"/>
      <point x="172" y="601"/>
    </contour>
    <contour>
      <point x="87" y="9" type="curve" smooth="yes"/>
      <point x="87" y="369" type="line" smooth="yes"/>
      <point x="87" y="380"/>
      <point x="96" y="389"/>
      <point x="107" y="389" type="curve" smooth="yes"/>
      <point x="118" y="389"/>
      <point x="127" y="380"/>
      <point x="127" y="369" type="curve" smooth="yes"/>
      <point x="127" y="9" type="line" smooth="yes"/>
      <point x="127" y="-2"/>
      <point x="118" y="-11"/>
      <point x="107" y="-11" type="curve" smooth="yes"/>
      <point x="96" y="-11"/>
      <point x="87" y="-2"/>
    </contour>
  </outline>
</glyph>
<glyph name="ntilde" format="1">
  <advance width="492"/>
  <unicode hex="00F1"/>
  <outline>
    <contour>
      <point x="81" y="9" type="curve" smooth="yes"/>
      <point x="81" y="368" type="line" smooth="yes"/>
      <point x="81" y="379"/>
      <point x="90" y="388"/>
      <point x="101" y="388" type="curve" smooth="yes"/>
      <point x="112" y="388"/>
      <point x="121" y="379"/>
      <point x="121" y="368" type="curve" smooth="yes"/>
      <point x="121" y="9" type="line" smooth="yes"/>
      <point x="121" y="-2"/>
      <point x="112" y="-11"/>
      <point x="101" y="-11" type="curve" smooth="yes"/>
      <point x="90" y="-11"/>
      <point x="81" y="-2"/>
    </contour>
    <contour>
      <point x="382" y="9" type="curve" smooth="yes"/>
      <point x="382" y="219" type="line" smooth="yes"/>
      <point x="382" y="311"/>
      <point x="342" y="348"/>
      <point x="284" y="348" type="curve" smooth="yes"/>
      <point x="223" y="348"/>
      <point x="165" y="310"/>
      <point x="119" y="263" type="curve" smooth="yes"/>
      <point x="112" y="255"/>
      <point x="99" y="255"/>
      <point x="91" y="263" type="curve" smooth="yes"/>
      <point x="83" y="270"/>
      <point x="83" y="283"/>
      <point x="91" y="291" type="curve" smooth="yes"/>
      <point x="145" y="346"/>
      <point x="213" y="388"/>
      <point x="284" y="388" type="curve" smooth="yes"/>
      <point x="360" y="388"/>
      <point x="422" y="349"/>
      <point x="422" y="219" type="curve" smooth="yes"/>
      <point x="422" y="9" type="line" smooth="yes"/>
      <point x="422" y="-2"/>
      <point x="413" y="-11"/>
      <point x="402" y="-11" type="curve" smooth="yes"/>
      <point x="391" y="-11"/>
      <point x="382" y="-2"/>
    </contour>
    <contour>
      <point x="112" y="542" type="curve" smooth="yes"/>
      <point x="138" y="580"/>
      <point x="166" y="602"/>
      <point x="192" y="602" type="curve" smooth="yes"/>
      <point x="215" y="602"/>
      <point x="230" y="591"/>
      <point x="258" y="569" type="curve" smooth="yes"/>
      <point x="274" y="557"/>
      <point x="286" y="547"/>
      <point x="301" y="547" type="curve" smooth="yes"/>
      <point x="318" y="547"/>
      <point x="329" y="566"/>
      <point x="344" y="588" type="curve" smooth="yes"/>
      <point x="350" y="597"/>
      <point x="363" y="600"/>
      <point x="372" y="594" type="curve" smooth="yes"/>
      <point x="381" y="588"/>
      <point x="384" y="575"/>
      <point x="378" y="566" type="curve" smooth="yes"/>
      <point x="351" y="526"/>
      <point x="328" y="507"/>
      <point x="301" y="507" type="curve" smooth="yes"/>
      <point x="280" y="507"/>
      <point x="260" y="519"/>
      <point x="234" y="537" type="curve" smooth="yes"/>
      <point x="216" y="551"/>
      <point x="207" y="562"/>
      <point x="192" y="562" type="curve" smooth="yes"/>
      <point x="176" y="562"/>
      <point x="160" y="542"/>
      <point x="146" y="520" type="curve" smooth="yes"/>
      <point x="140" y="511"/>
      <point x="127" y="508"/>
      <point x="118" y="514" type="curve" smooth="yes"/>
      <point x="109" y="520"/>
      <point x="106" y="533"/>
    </contour>
  </outline>
</glyph>
<glyph name="oacute" format="1">
  <advance width="510"/>
  <unicode hex="00F3"/>
  <outline>
    <contour>
      <point x="254" y="392" type="curve" smooth="yes"/>
      <point x="379" y="392"/>
      <point x="457" y="298"/>
      <point x="457" y="183" type="curve" smooth="yes"/>
      <point x="457" y="71"/>
      <point x="379" y="-15"/>
      <point x="254" y="-15" type="curve" smooth="yes"/>
      <point x="131" y="-15"/>
      <point x="52" y="72"/>
      <point x="52" y="185" type="curve"/>
      <point x="52" y="298"/>
      <point x="129" y="392"/>
    </contour>
    <contour>
      <point x="254" y="352" type="curve" smooth="yes"/>
      <point x="153" y="352"/>
      <point x="92" y="276"/>
      <point x="92" y="185" type="curve" smooth="yes"/>
      <point x="92" y="94"/>
      <point x="155" y="25"/>
      <point x="254" y="25" type="curve" smooth="yes"/>
      <point x="353" y="25"/>
      <point x="417" y="93"/>
      <point x="417" y="183" type="curve" smooth="yes"/>
      <point x="417" y="276"/>
      <point x="355" y="352"/>
    </contour>
    <contour>
      <point x="350" y="598" type="curve" smooth="yes"/>
      <point x="321" y="566"/>
      <point x="292" y="532"/>
      <point x="265" y="500" type="curve" smooth="yes"/>
      <point x="258" y="492"/>
      <point x="245" y="491"/>
      <point x="237" y="498" type="curve" smooth="yes"/>
      <point x="229" y="505"/>
      <point x="228" y="518"/>
      <point x="235" y="526" type="curve" smooth="yes"/>
      <point x="262" y="558"/>
      <point x="291" y="592"/>
      <point x="320" y="624" type="curve" smooth="yes"/>
      <point x="327" y="632"/>
      <point x="340" y="633"/>
      <point x="348" y="626" type="curve" smooth="yes"/>
      <point x="356" y="619"/>
      <point x="357" y="606"/>
    </contour>
  </outline>
</glyph>
<glyph name="ocircumflex" format="1">
  <advance width="510"/>
  <unicode hex="00F4"/>
  <outline>
    <contour>
      <point x="254" y="392" type="curve" smooth="yes"/>
      <point x="379" y="392"/>
      <point x="457" y="298"/>
      <point x="457" y="183" type="curve" smooth="yes"/>
      <point x="457" y="71"/>
      <point x="379" y="-15"/>
      <point x="254" y="-15" type="curve" smooth="yes"/>
      <point x="131" y="-15"/>
      <point x="52" y="72"/>
      <point x="52" y="185" type="curve"/>
      <point x="52" y="298"/>
      <point x="129" y="392"/>
    </contour>
    <contour>
      <point x="254" y="352" type="curve" smooth="yes"/>
      <point x="153" y="352"/>
      <point x="92" y="276"/>
      <point x="92" y="185" type="curve" smooth="yes"/>
      <point x="92" y="94"/>
      <point x="155" y="25"/>
      <point x="254" y="25" type="curve" smooth="yes"/>
      <point x="353" y="25"/>
      <point x="417" y="93"/>
      <point x="417" y="183" type="curve" smooth="yes"/>
      <point x="417" y="276"/>
      <point x="355" y="352"/>
    </contour>
    <contour>
      <point x="262" y="593" type="curve" smooth="yes"/>
      <point x="231" y="562"/>
      <point x="197" y="529"/>
      <point x="170" y="502" type="curve" smooth="yes"/>
      <point x="163" y="494"/>
      <point x="149" y="494"/>
      <point x="142" y="502" type="curve" smooth="yes"/>
      <point x="134" y="509"/>
      <point x="134" y="523"/>
      <point x="142" y="530" type="curve" smooth="yes"/>
      <point x="169" y="557"/>
      <point x="203" y="590"/>
      <point x="234" y="621" type="curve" smooth="yes"/>
      <point x="241" y="629"/>
      <point x="255" y="629"/>
      <point x="262" y="621" type="curve" smooth="yes"/>
      <point x="270" y="614"/>
      <point x="270" y="600"/>
    </contour>
    <contour>
      <point x="333" y="502" type="curve" smooth="yes"/>
      <point x="305" y="529"/>
      <point x="273" y="561"/>
      <point x="240" y="592" type="curve" smooth="yes"/>
      <point x="232" y="600"/>
      <point x="232" y="613"/>
      <point x="239" y="621" type="curve" smooth="yes"/>
      <point x="247" y="629"/>
      <point x="260" y="629"/>
      <point x="268" y="622" type="curve" smooth="yes"/>
      <point x="301" y="591"/>
      <point x="333" y="557"/>
      <point x="361" y="530" type="curve" smooth="yes"/>
      <point x="369" y="523"/>
      <point x="369" y="510"/>
      <point x="361" y="502" type="curve" smooth="yes"/>
      <point x="354" y="494"/>
      <point x="341" y="494"/>
    </contour>
  </outline>
</glyph>
<glyph name="yacute" format="1">
  <advance width="443"/>
  <unicode hex="00FD"/>
  <outline>
    <contour>
      <point x="41" y="-153" type="curve" smooth="yes"/>
      <point x="104" y="-116"/>
      <point x="162" y="-72"/>
      <point x="219" y="24" type="curve" smooth="yes"/>
      <point x="274" y="118"/>
      <point x="336" y="260"/>
      <point x="371" y="378" type="curve" smooth="yes"/>
      <point x="374" y="388"/>
      <point x="385" y="394"/>
      <point x="396" y="391" type="curve" smooth="yes"/>
      <point x="406" y="388"/>
      <point x="412" y="377"/>
      <point x="409" y="366" type="curve" smooth="yes"/>
      <point x="374" y="246"/>
      <point x="310" y="100"/>
      <point x="253" y="4" type="curve" smooth="yes"/>
      <point x="192" y="-100"/>
      <point x="130" y="-148"/>
      <point x="61" y="-187" type="curve" smooth="yes"/>
      <point x="52" y="-193"/>
      <point x="39" y="-189"/>
      <point x="34" y="-180" type="curve" smooth="yes"/>
      <point x="28" y="-171"/>
      <point x="32" y="-158"/>
    </contour>
    <contour>
      <point x="72" y="380" type="curve" smooth="yes"/>
      <point x="128" y="222"/>
      <point x="196" y="107"/>
      <point x="250" y="25" type="curve" smooth="yes"/>
      <point x="256" y="16"/>
      <point x="253" y="3"/>
      <point x="244" y="-3" type="curve" smooth="yes"/>
      <point x="235" y="-9"/>
      <point x="222" y="-6"/>
      <point x="216" y="3" type="curve" smooth="yes"/>
      <point x="162" y="87"/>
      <point x="92" y="204"/>
      <point x="34" y="366" type="curve" smooth="yes"/>
      <point x="31" y="376"/>
      <point x="36" y="388"/>
      <point x="46" y="392" type="curve" smooth="yes"/>
      <point x="56" y="395"/>
      <point x="68" y="390"/>
    </contour>
    <contour>
      <point x="314" y="603" type="curve" smooth="yes"/>
      <point x="285" y="570"/>
      <point x="256" y="537"/>
      <point x="229" y="504" type="curve" smooth="yes"/>
      <point x="223" y="496"/>
      <point x="210" y="495"/>
      <point x="201" y="502" type="curve" smooth="yes"/>
      <point x="193" y="508"/>
      <point x="192" y="521"/>
      <point x="199" y="530" type="curve" smooth="yes"/>
      <point x="226" y="563"/>
      <point x="255" y="596"/>
      <point x="284" y="629" type="curve" smooth="yes"/>
      <point x="291" y="637"/>
      <point x="304" y="638"/>
      <point x="312" y="631" type="curve" smooth="yes"/>
      <point x="320" y="624"/>
      <point x="321" y="611"/>
    </contour>
  </outline>
</glyph>
<glyph name="thorn" format="1">
  <advance width="508"/>
  <unicode hex="00FE"/>
  <outline>
    <contour>
      <point x="81" y="-186" type="curve" smooth="yes"/>
      <point x="81" y="551" type="line" smooth="yes"/>
      <point x="81" y="562"/>
      <point x="90" y="571"/>
      <point x="101" y="571" type="curve" smooth="yes"/>
      <point x="112" y="571"/>
      <point x="121" y="562"/>
      <point x="121" y="551" type="curve" smooth="yes"/>
      <point x="121" y="-186" type="line" smooth="yes"/>
      <point x="121" y="-197"/>
      <point x="112" y="-206"/>
      <point x="101" y="-206" type="curve" smooth="yes"/>
      <point x="90" y="-206"/>
      <point x="81" y="-197"/>
    </contour>
    <contour>
      <point x="114" y="97" type="curve" smooth="yes"/>
      <point x="158" y="61"/>
      <point x="211" y="35"/>
      <point x="263" y="35" type="curve" smooth="yes"/>
      <point x="355" y="35"/>
      <point x="417" y="105"/>
      <point x="417" y="195" type="curve" smooth="yes"/>
      <point x="417" y="297"/>
      <point x="352" y="354"/>
      <point x="276" y="354" type="curve" smooth="yes"/>
      <point x="214" y="354"/>
      <point x="161" y="311"/>
      <point x="118" y="251" type="curve" smooth="yes"/>
      <point x="112" y="242"/>
      <point x="99" y="239"/>
      <point x="91" y="246" type="curve" smooth="yes"/>
      <point x="82" y="252"/>
      <point x="79" y="265"/>
      <point x="86" y="273" type="curve" smooth="yes"/>
      <point x="137" y="347"/>
      <point x="202" y="394"/>
      <point x="276" y="394" type="curve" smooth="yes"/>
      <point x="370" y="394"/>
      <point x="457" y="325"/>
      <point x="457" y="195" type="curve" smooth="yes"/>
      <point x="457" y="81"/>
      <point x="377" y="-5"/>
      <point x="263" y="-5" type="curve" smooth="yes"/>
      <point x="203" y="-5"/>
      <point x="140" y="23"/>
      <point x="88" y="67" type="curve" smooth="yes"/>
      <point x="80" y="74"/>
      <point x="79" y="87"/>
      <point x="86" y="95" type="curve" smooth="yes"/>
      <point x="93" y="103"/>
      <point x="106" y="104"/>
    </contour>
  </outline>
</glyph>
<glyph name="ydieresis" format="1">
  <advance width="443"/>
  <unicode hex="00FF"/>
  <outline>
    <contour>
      <point x="118" y="605" type="curve" smooth="yes"/>
      <point x="137" y="605"/>
      <point x="155" y="586"/>
      <point x="155" y="558" type="curve" smooth="yes"/>
      <point x="155" y="528"/>
      <point x="137" y="512"/>
      <point x="118" y="512" type="curve" smooth="yes"/>
      <point x="99" y="512"/>
      <point x="81" y="528"/>
      <point x="81" y="558" type="curve" smooth="yes"/>
      <point x="81" y="586"/>
      <point x="99" y="605"/>
    </contour>
    <contour>
      <point x="305" y="605" type="curve" smooth="yes"/>
      <point x="324" y="605"/>
      <point x="342" y="586"/>
      <point x="342" y="558" type="curve" smooth="yes"/>
      <point x="342" y="528"/>
      <point x="324" y="512"/>
      <point x="305" y="512" type="curve" smooth="yes"/>
      <point x="286" y="512"/>
      <point x="267" y="528"/>
      <point x="267" y="558" type="curve" smooth="yes"/>
      <point x="267" y="585"/>
      <point x="286" y="605"/>
    </contour>
    <contour>
      <point x="41" y="-152" type="curve" smooth="yes"/>
      <point x="104" y="-115"/>
      <point x="162" y="-71"/>
      <point x="219" y="25" type="curve" smooth="yes"/>
      <point x="274" y="118"/>
      <point x="336" y="261"/>
      <point x="371" y="379" type="curve" smooth="yes"/>
      <point x="374" y="389"/>
      <point x="385" y="395"/>
      <point x="396" y="392" type="curve" smooth="yes"/>
      <point x="406" y="389"/>
      <point x="412" y="378"/>
      <point x="409" y="367" type="curve" smooth="yes"/>
      <point x="374" y="247"/>
      <point x="310" y="100"/>
      <point x="253" y="5" type="curve" smooth="yes"/>
      <point x="192" y="-99"/>
      <point x="130" y="-147"/>
      <point x="61" y="-186" type="curve" smooth="yes"/>
      <point x="52" y="-192"/>
      <point x="39" y="-188"/>
      <point x="34" y="-179" type="curve" smooth="yes"/>
      <point x="28" y="-170"/>
      <point x="32" y="-157"/>
    </contour>
    <contour>
      <point x="72" y="381" type="curve" smooth="yes"/>
      <point x="128" y="222"/>
      <point x="196" y="108"/>
      <point x="250" y="26" type="curve" smooth="yes"/>
      <point x="256" y="17"/>
      <point x="253" y="4"/>
      <point x="244" y="-2" type="curve" smooth="yes"/>
      <point x="235" y="-8"/>
      <point x="222" y="-5"/>
      <point x="216" y="4" type="curve" smooth="yes"/>
      <point x="162" y="88"/>
      <point x="92" y="204"/>
      <point x="34" y="367" type="curve" smooth="yes"/>
      <point x="31" y="378"/>
      <point x="36" y="389"/>
      <point x="46" y="393" type="curve" smooth="yes"/>
      <point x="57" y="396"/>
      <point x="68" y="391"/>
    </contour>
  </outline>
</glyph>
<glyph name="Amacron" format="1">
  <advance width="573"/>
  <unicode hex="0100"/>
  <outline>
    <contour>
      <point x="298" y="517" type="curve" smooth="yes"/>
      <point x="227" y="357"/>
      <point x="128" y="132"/>
      <point x="81" y="-1" type="curve" smooth="yes"/>
      <point x="77" y="-11"/>
      <point x="66" y="-16"/>
      <point x="55" y="-13" type="curve" smooth="yes"/>
      <point x="45" y="-9"/>
      <point x="40" y="2"/>
      <point x="43" y="13" type="curve" smooth="yes"/>
      <point x="90" y="146"/>
      <point x="191" y="373"/>
      <point x="262" y="533" type="curve" smooth="yes"/>
      <point x="266" y="543"/>
      <point x="278" y="548"/>
      <point x="288" y="543" type="curve" smooth="yes"/>
      <point x="298" y="539"/>
      <point x="303" y="527"/>
    </contour>
    <contour>
      <point x="304" y="533" type="curve" smooth="yes"/>
      <point x="380" y="371"/>
      <point x="484" y="144"/>
      <point x="534" y="13" type="curve" smooth="yes"/>
      <point x="538" y="3"/>
      <point x="532" y="-9"/>
      <point x="522" y="-13" type="curve" smooth="yes"/>
      <point x="512" y="-17"/>
      <point x="500" y="-11"/>
      <point x="496" y="-1" type="curve" smooth="yes"/>
      <point x="446" y="128"/>
      <point x="344" y="355"/>
      <point x="268" y="517" type="curve" smooth="yes"/>
      <point x="263" y="526"/>
      <point x="268" y="539"/>
      <point x="278" y="543" type="curve" smooth="yes"/>
      <point x="287" y="548"/>
      <point x="300" y="543"/>
    </contour>
    <contour>
      <point x="134" y="179" type="curve" smooth="yes"/>
      <point x="440" y="179" type="line" smooth="yes"/>
      <point x="451" y="179"/>
      <point x="460" y="170"/>
      <point x="460" y="159" type="curve" smooth="yes"/>
      <point x="460" y="148"/>
      <point x="451" y="139"/>
      <point x="440" y="139" type="curve" smooth="yes"/>
      <point x="134" y="139" type="line" smooth="yes"/>
      <point x="123" y="139"/>
      <point x="114" y="148"/>
      <point x="114" y="159" type="curve" smooth="yes"/>
      <point x="114" y="170"/>
      <point x="123" y="179"/>
    </contour>
    <contour>
      <point x="402" y="681" type="curve" smooth="yes"/>
      <point x="161" y="681" type="line" smooth="yes"/>
      <point x="150" y="681"/>
      <point x="141" y="690"/>
      <point x="141" y="701" type="curve" smooth="yes"/>
      <point x="141" y="712"/>
      <point x="150" y="721"/>
      <point x="161" y="721" type="curve" smooth="yes"/>
      <point x="402" y="721" type="line" smooth="yes"/>
      <point x="413" y="721"/>
      <point x="422" y="712"/>
      <point x="422" y="701" type="curve" smooth="yes"/>
      <point x="422" y="690"/>
      <point x="413" y="681"/>
    </contour>
  </outline>
</glyph>
<glyph name="cacute" format="1">
  <advance width="438"/>
  <unicode hex="0107"/>
  <outline>
    <contour>
      <point x="355" y="333" type="curve" smooth="yes"/>
      <point x="329" y="341"/>
      <point x="296" y="348"/>
      <point x="268" y="348" type="curve" smooth="yes"/>
      <point x="157" y="348"/>
      <point x="93" y="277"/>
      <point x="93" y="179" type="curve" smooth="yes"/>
      <point x="93" y="93"/>
      <point x="157" y="29"/>
      <point x="267" y="29" type="curve" smooth="yes"/>
      <point x="307" y="29"/>
      <point x="339" y="36"/>
      <point x="366" y="47" type="curve" smooth="yes"/>
      <point x="376" y="52"/>
      <point x="388" y="47"/>
      <point x="392" y="37" type="curve" smooth="yes"/>
      <point x="397" y="27"/>
      <point x="392" y="15"/>
      <point x="382" y="11" type="curve" smooth="yes"/>
      <point x="351" y="-2"/>
      <point x="313" y="-11"/>
      <point x="267" y="-11" type="curve" smooth="yes"/>
      <point x="127" y="-11"/>
      <point x="53" y="73"/>
      <point x="53" y="179" type="curve"/>
      <point x="53" y="299"/>
      <point x="131" y="388"/>
      <point x="268" y="388" type="curve" smooth="yes"/>
      <point x="300" y="388"/>
      <point x="337" y="381"/>
      <point x="367" y="371" type="curve" smooth="yes"/>
      <point x="377" y="368"/>
      <point x="383" y="356"/>
      <point x="380" y="346" type="curve" smooth="yes"/>
      <point x="377" y="336"/>
      <point x="365" y="330"/>
    </contour>
    <contour>
      <point x="343" y="597" type="curve" smooth="yes"/>
      <point x="313" y="566"/>
      <point x="285" y="532"/>
      <point x="258" y="500" type="curve" smooth="yes"/>
      <point x="251" y="492"/>
      <point x="238" y="491"/>
      <point x="230" y="498" type="curve" smooth="yes"/>
      <point x="222" y="505"/>
      <point x="221" y="518"/>
      <point x="228" y="526" type="curve" smooth="yes"/>
      <point x="255" y="558"/>
      <point x="283" y="592"/>
      <point x="313" y="625" type="curve" smooth="yes"/>
      <point x="321" y="633"/>
      <point x="334" y="633"/>
      <point x="342" y="626" type="curve" smooth="yes"/>
      <point x="350" y="618"/>
      <point x="350" y="605"/>
    </contour>
  </outline>
</glyph>
<glyph name="Eogonek" format="1">
  <advance width="481"/>
  <unicode hex="0118"/>
  <outline>
    <contour>
      <point x="134" y="526" type="curve" smooth="yes"/>
      <point x="134" y="16" type="line" smooth="yes"/>
      <point x="134" y="5"/>
      <point x="125" y="-4"/>
      <point x="114" y="-4" type="curve" smooth="yes"/>
      <point x="103" y="-4"/>
      <point x="94" y="5"/>
      <point x="94" y="16" type="curve" smooth="yes"/>
      <point x="94" y="526" type="line" smooth="yes"/>
      <point x="94" y="537"/>
      <point x="103" y="546"/>
      <point x="114" y="546" type="curve" smooth="yes"/>
      <point x="125" y="546"/>
      <point x="134" y="537"/>
    </contour>
    <contour>
      <point x="123" y="36" type="curve" smooth="yes"/>
      <point x="407" y="36" type="line" smooth="yes"/>
      <point x="418" y="36"/>
      <point x="427" y="27"/>
      <point x="427" y="16" type="curve" smooth="yes"/>
      <point x="427" y="5"/>
      <point x="418" y="-4"/>
      <point x="407" y="-4" type="curve" smooth="yes"/>
      <point x="123" y="-4" type="line" smooth="yes"/>
      <point x="112" y="-4"/>
      <point x="103" y="5"/>
      <point x="103" y="16" type="curve" smooth="yes"/>
      <point x="103" y="27"/>
      <point x="112" y="36"/>
    </contour>
    <contour>
      <point x="123" y="546" type="curve" smooth="yes"/>
      <point x="405" y="546" type="line" smooth="yes"/>
      <point x="416" y="546"/>
      <point x="425" y="537"/>
      <point x="425" y="526" type="curve" smooth="yes"/>
      <point x="425" y="515"/>
      <point x="416" y="506"/>
      <point x="405" y="506" type="curve" smooth="yes"/>
      <point x="123" y="506" type="line" smooth="yes"/>
      <point x="112" y="506"/>
      <point x="103" y="515"/>
      <point x="103" y="526" type="curve" smooth="yes"/>
      <point x="103" y="537"/>
      <point x="112" y="546"/>
    </contour>
    <contour>
      <point x="123" y="310" type="curve" smooth="yes"/>
      <point x="360" y="310" type="line" smooth="yes"/>
      <point x="371" y="310"/>
      <point x="380" y="301"/>
      <point x="380" y="290" type="curve" smooth="yes"/>
      <point x="380" y="279"/>
      <point x="371" y="270"/>
      <point x="360" y="270" type="curve" smooth="yes"/>
      <point x="123" y="270" type="line" smooth="yes"/>
      <point x="112" y="270"/>
      <point x="103" y="279"/>
      <point x="103" y="290" type="curve" smooth="yes"/>
      <point x="103" y="301"/>
      <point x="112" y="310"/>
    </contour>
    <contour>
      <point x="431" y="17" type="curve" smooth="yes"/>
      <point x="431" y="-19" type="line" smooth="yes"/>
      <point x="431" y="-24"/>
      <point x="428" y="-31"/>
      <point x="424" y="-34" type="curve" smooth="yes"/>
      <point x="344" y="-100"/>
      <point x="323" y="-125"/>
      <point x="323" y="-151" type="curve" smooth="yes"/>
      <point x="323" y="-181"/>
      <point x="371" y="-194"/>
      <point x="427" y="-194" type="curve" smooth="yes"/>
      <point x="438" y="-194"/>
      <point x="447" y="-203"/>
      <point x="447" y="-214" type="curve" smooth="yes"/>
      <point x="447" y="-225"/>
      <point x="438" y="-234"/>
      <point x="427" y="-234" type="curve" smooth="yes"/>
      <point x="319" y="-234"/>
      <point x="283" y="-193"/>
      <point x="283" y="-151" type="curve" smooth="yes"/>
      <point x="283" y="-119"/>
      <point x="298" y="-86"/>
      <point x="398" y="-4" type="curve"/>
      <point x="391" y="-19" type="line"/>
      <point x="391" y="17" type="line" smooth="yes"/>
      <point x="391" y="28"/>
      <point x="400" y="37"/>
      <point x="411" y="37" type="curve" smooth="yes"/>
      <point x="422" y="37"/>
      <point x="431" y="28"/>
    </contour>
  </outline>
</glyph>
<glyph name="Ecaron" format="1">
  <advance width="481"/>
  <unicode hex="011A"/>
  <outline>
    <contour>
      <point x="134" y="515" type="curve" smooth="yes"/>
      <point x="134" y="5" type="line" smooth="yes"/>
      <point x="134" y="-6"/>
      <point x="125" y="-15"/>
      <point x="114" y="-15" type="curve" smooth="yes"/>
      <point x="103" y="-15"/>
      <point x="94" y="-6"/>
      <point x="94" y="5" type="curve" smooth="yes"/>
      <point x="94" y="515" type="line" smooth="yes"/>
      <point x="94" y="526"/>
      <point x="103" y="535"/>
      <point x="114" y="535" type="curve" smooth="yes"/>
      <point x="125" y="535"/>
      <point x="134" y="526"/>
    </contour>
    <contour>
      <point x="123" y="25" type="curve" smooth="yes"/>
      <point x="407" y="25" type="line" smooth="yes"/>
      <point x="418" y="25"/>
      <point x="427" y="16"/>
      <point x="427" y="5" type="curve" smooth="yes"/>
      <point x="427" y="-6"/>
      <point x="418" y="-15"/>
      <point x="407" y="-15" type="curve" smooth="yes"/>
      <point x="123" y="-15" type="line" smooth="yes"/>
      <point x="112" y="-15"/>
      <point x="103" y="-6"/>
      <point x="103" y="5" type="curve" smooth="yes"/>
      <point x="103" y="16"/>
      <point x="112" y="25"/>
    </contour>
    <contour>
      <point x="123" y="535" type="curve" smooth="yes"/>
      <point x="405" y="535" type="line" smooth="yes"/>
      <point x="416" y="535"/>
      <point x="425" y="526"/>
      <point x="425" y="515" type="curve" smooth="yes"/>
      <point x="425" y="504"/>
      <point x="416" y="495"/>
      <point x="405" y="495" type="curve" smooth="yes"/>
      <point x="123" y="495" type="line" smooth="yes"/>
      <point x="112" y="495"/>
      <point x="103" y="504"/>
      <point x="103" y="515" type="curve" smooth="yes"/>
      <point x="103" y="526"/>
      <point x="112" y="535"/>
    </contour>
    <contour>
      <point x="123" y="300" type="curve" smooth="yes"/>
      <point x="360" y="300" type="line" smooth="yes"/>
      <point x="371" y="300"/>
      <point x="380" y="291"/>
      <point x="380" y="280" type="curve" smooth="yes"/>
      <point x="380" y="269"/>
      <point x="371" y="260"/>
      <point x="360" y="260" type="curve" smooth="yes"/>
      <point x="123" y="260" type="line" smooth="yes"/>
      <point x="112" y="260"/>
      <point x="103" y="269"/>
      <point x="103" y="280" type="curve" smooth="yes"/>
      <point x="103" y="291"/>
      <point x="112" y="300"/>
    </contour>
    <contour>
      <point x="242" y="684" type="curve" smooth="yes"/>
      <point x="276" y="709"/>
      <point x="313" y="734"/>
      <point x="343" y="757" type="curve" smooth="yes"/>
      <point x="351" y="763"/>
      <point x="364" y="762"/>
      <point x="371" y="753" type="curve" smooth="yes"/>
      <point x="377" y="745"/>
      <point x="376" y="732"/>
      <point x="367" y="725" type="curve" smooth="yes"/>
      <point x="337" y="702"/>
      <point x="300" y="677"/>
      <point x="266" y="652" type="curve" smooth="yes"/>
      <point x="257" y="645"/>
      <point x="244" y="647"/>
      <point x="238" y="656" type="curve" smooth="yes"/>
      <point x="231" y="665"/>
      <point x="233" y="678"/>
    </contour>
    <contour>
      <point x="158" y="757" type="curve" smooth="yes"/>
      <point x="187" y="734"/>
      <point x="223" y="709"/>
      <point x="258" y="684" type="curve" smooth="yes"/>
      <point x="266" y="678"/>
      <point x="269" y="665"/>
      <point x="262" y="656" type="curve" smooth="yes"/>
      <point x="256" y="648"/>
      <point x="243" y="645"/>
      <point x="234" y="652" type="curve" smooth="yes"/>
      <point x="199" y="677"/>
      <point x="163" y="702"/>
      <point x="134" y="725" type="curve" smooth="yes"/>
      <point x="125" y="732"/>
      <point x="124" y="745"/>
      <point x="130" y="753" type="curve" smooth="yes"/>
      <point x="137" y="762"/>
      <point x="150" y="763"/>
    </contour>
  </outline>
</glyph>
<glyph name="ecaron" format="1">
  <advance width="473"/>
  <unicode hex="011B"/>
  <outline>
    <contour>
      <point x="86" y="207" type="curve" smooth="yes"/>
      <point x="306" y="207" type="line" smooth="yes"/>
      <point x="350" y="207"/>
      <point x="372" y="222"/>
      <point x="372" y="252" type="curve" smooth="yes"/>
      <point x="372" y="296"/>
      <point x="321" y="348"/>
      <point x="249" y="348" type="curve" smooth="yes"/>
      <point x="162" y="348"/>
      <point x="93" y="281"/>
      <point x="93" y="183" type="curve" smooth="yes"/>
      <point x="93" y="81"/>
      <point x="167" y="29"/>
      <point x="270" y="29" type="curve" smooth="yes"/>
      <point x="305" y="29"/>
      <point x="339" y="36"/>
      <point x="364" y="47" type="curve" smooth="yes"/>
      <point x="374" y="51"/>
      <point x="386" y="46"/>
      <point x="391" y="36" type="curve" smooth="yes"/>
      <point x="395" y="26"/>
      <point x="390" y="14"/>
      <point x="380" y="9" type="curve" smooth="yes"/>
      <point x="351" y="-2"/>
      <point x="311" y="-11"/>
      <point x="270" y="-11" type="curve" smooth="yes"/>
      <point x="141" y="-11"/>
      <point x="53" y="59"/>
      <point x="53" y="183" type="curve"/>
      <point x="53" y="306"/>
      <point x="140" y="388"/>
      <point x="249" y="388" type="curve" smooth="yes"/>
      <point x="351" y="388"/>
      <point x="412" y="310"/>
      <point x="412" y="252" type="curve" smooth="yes"/>
      <point x="412" y="204"/>
      <point x="388" y="167"/>
      <point x="306" y="167" type="curve" smooth="yes"/>
      <point x="86" y="167" type="line" smooth="yes"/>
      <point x="75" y="167"/>
      <point x="66" y="176"/>
      <point x="66" y="187" type="curve" smooth="yes"/>
      <point x="66" y="198"/>
      <point x="75" y="207"/>
    </contour>
    <contour>
      <point x="158" y="616" type="curve" smooth="yes"/>
      <point x="185" y="589"/>
      <point x="223" y="550"/>
      <point x="248" y="525" type="curve" smooth="yes"/>
      <point x="256" y="518"/>
      <point x="256" y="504"/>
      <point x="248" y="497" type="curve" smooth="yes"/>
      <point x="241" y="489"/>
      <point x="227" y="489"/>
      <point x="220" y="497" type="curve" smooth="yes"/>
      <point x="195" y="522"/>
      <point x="157" y="561"/>
      <point x="130" y="588" type="curve" smooth="yes"/>
      <point x="122" y="595"/>
      <point x="122" y="609"/>
      <point x="130" y="616" type="curve" smooth="yes"/>
      <point x="137" y="624"/>
      <point x="151" y="624"/>
    </contour>
    <contour>
      <point x="227" y="525" type="curve" smooth="yes"/>
      <point x="251" y="549"/>
      <point x="290" y="589"/>
      <point x="317" y="616" type="curve" smooth="yes"/>
      <point x="324" y="624"/>
      <point x="338" y="624"/>
      <point x="345" y="616" type="curve" smooth="yes"/>
      <point x="353" y="609"/>
      <point x="353" y="595"/>
      <point x="345" y="588" type="curve" smooth="yes"/>
      <point x="318" y="561"/>
      <point x="279" y="521"/>
      <point x="255" y="497" type="curve" smooth="yes"/>
      <point x="248" y="489"/>
      <point x="234" y="489"/>
      <point x="227" y="497" type="curve" smooth="yes"/>
      <point x="219" y="504"/>
      <point x="219" y="518"/>
    </contour>
  </outline>
</glyph>
<glyph name="Gbreve" format="1">
  <advance width="619"/>
  <unicode hex="011E"/>
  <outline>
    <contour>
      <point x="483" y="477" type="curve" smooth="yes"/>
      <point x="441" y="494"/>
      <point x="393" y="504"/>
      <point x="337" y="504" type="curve" smooth="yes"/>
      <point x="197" y="504"/>
      <point x="95" y="405"/>
      <point x="95" y="257" type="curve" smooth="yes"/>
      <point x="95" y="123"/>
      <point x="183" y="16"/>
      <point x="334" y="16" type="curve" smooth="yes"/>
      <point x="409" y="16"/>
      <point x="465" y="36"/>
      <point x="511" y="65" type="curve" smooth="yes"/>
      <point x="520" y="71"/>
      <point x="533" y="68"/>
      <point x="539" y="59" type="curve" smooth="yes"/>
      <point x="545" y="50"/>
      <point x="542" y="37"/>
      <point x="533" y="31" type="curve" smooth="yes"/>
      <point x="481" y="-2"/>
      <point x="419" y="-24"/>
      <point x="334" y="-24" type="curve" smooth="yes"/>
      <point x="157" y="-24"/>
      <point x="55" y="101"/>
      <point x="55" y="257" type="curve" smooth="yes"/>
      <point x="55" y="429"/>
      <point x="175" y="544"/>
      <point x="337" y="544" type="curve" smooth="yes"/>
      <point x="399" y="544"/>
      <point x="451" y="532"/>
      <point x="497" y="515" type="curve" smooth="yes"/>
      <point x="507" y="511"/>
      <point x="513" y="499"/>
      <point x="509" y="489" type="curve" smooth="yes"/>
      <point x="505" y="479"/>
      <point x="493" y="473"/>
    </contour>
    <contour>
      <point x="503" y="58" type="curve" smooth="yes"/>
      <point x="503" y="241" type="line" smooth="yes"/>
      <point x="503" y="252"/>
      <point x="512" y="261"/>
      <point x="523" y="261" type="curve" smooth="yes"/>
      <point x="534" y="261"/>
      <point x="543" y="252"/>
      <point x="543" y="241" type="curve" smooth="yes"/>
      <point x="543" y="58" type="line" smooth="yes"/>
      <point x="543" y="47"/>
      <point x="534" y="38"/>
      <point x="523" y="38" type="curve" smooth="yes"/>
      <point x="512" y="38"/>
      <point x="503" y="47"/>
    </contour>
    <contour>
      <point x="511" y="221" type="curve" smooth="yes"/>
      <point x="350" y="221" type="line" smooth="yes"/>
      <point x="339" y="221"/>
      <point x="330" y="230"/>
      <point x="330" y="241" type="curve" smooth="yes"/>
      <point x="330" y="252"/>
      <point x="339" y="261"/>
      <point x="350" y="261" type="curve" smooth="yes"/>
      <point x="511" y="261" type="line" smooth="yes"/>
      <point x="522" y="261"/>
      <point x="531" y="252"/>
      <point x="531" y="241" type="curve" smooth="yes"/>
      <point x="531" y="230"/>
      <point x="522" y="221"/>
    </contour>
    <contour>
      <point x="213" y="758" type="curve" smooth="yes"/>
      <point x="240" y="724"/>
      <point x="279" y="700"/>
      <point x="322" y="700" type="curve" smooth="yes"/>
      <point x="370" y="700"/>
      <point x="404" y="723"/>
      <point x="427" y="757" type="curve" smooth="yes"/>
      <point x="433" y="766"/>
      <point x="446" y="769"/>
      <point x="455" y="763" type="curve" smooth="yes"/>
      <point x="464" y="757"/>
      <point x="467" y="744"/>
      <point x="461" y="735" type="curve" smooth="yes"/>
      <point x="430" y="689"/>
      <point x="386" y="660"/>
      <point x="322" y="660" type="curve" smooth="yes"/>
      <point x="267" y="660"/>
      <point x="216" y="690"/>
      <point x="181" y="734" type="curve" smooth="yes"/>
      <point x="175" y="742"/>
      <point x="176" y="755"/>
      <point x="185" y="762" type="curve" smooth="yes"/>
      <point x="193" y="768"/>
      <point x="206" y="767"/>
    </contour>
  </outline>
</glyph>
<glyph name="Imacron" format="1">
  <advance width="239"/>
  <unicode hex="012A"/>
  <outline>
    <contour>
      <point x="139" y="516" type="curve" smooth="yes"/>
      <point x="139" y="6" type="line" smooth="yes"/>
      <point x="139" y="-5"/>
      <point x="130" y="-14"/>
      <point x="119" y="-14" type="curve" smooth="yes"/>
      <point x="108" y="-14"/>
      <point x="99" y="-5"/>
      <point x="99" y="6" type="curve" smooth="yes"/>
      <point x="99" y="516" type="line" smooth="yes"/>
      <point x="99" y="527"/>
      <point x="108" y="536"/>
      <point x="119" y="536" type="curve" smooth="yes"/>
      <point x="130" y="536"/>
      <point x="139" y="527"/>
    </contour>
    <contour>
      <point x="217" y="681" type="curve" smooth="yes"/>
      <point x="23" y="681" type="line" smooth="yes"/>
      <point x="12" y="681"/>
      <point x="3" y="690"/>
      <point x="3" y="701" type="curve" smooth="yes"/>
      <point x="3" y="712"/>
      <point x="12" y="721"/>
      <point x="23" y="721" type="curve" smooth="yes"/>
      <point x="217" y="721" type="line" smooth="yes"/>
      <point x="228" y="721"/>
      <point x="237" y="712"/>
      <point x="237" y="701" type="curve" smooth="yes"/>
      <point x="237" y="690"/>
      <point x="228" y="681"/>
    </contour>
  </outline>
</glyph>
<glyph name="imacron" format="1">
  <advance width="187"/>
  <unicode hex="012B"/>
  <outline>
    <contour>
      <point x="73" y="10" type="curve" smooth="yes"/>
      <point x="73" y="369" type="line" smooth="yes"/>
      <point x="73" y="380"/>
      <point x="82" y="389"/>
      <point x="93" y="389" type="curve" smooth="yes"/>
      <point x="104" y="389"/>
      <point x="113" y="380"/>
      <point x="113" y="369" type="curve" smooth="yes"/>
      <point x="113" y="10" type="line" smooth="yes"/>
      <point x="113" y="-1"/>
      <point x="104" y="-10"/>
      <point x="93" y="-10" type="curve" smooth="yes"/>
      <point x="82" y="-10"/>
      <point x="73" y="-1"/>
    </contour>
    <contour>
      <point x="167" y="530" type="curve" smooth="yes"/>
      <point x="20" y="530" type="line" smooth="yes"/>
      <point x="9" y="530"/>
      <point x="0" y="539"/>
      <point x="0" y="550" type="curve" smooth="yes"/>
      <point x="0" y="561"/>
      <point x="9" y="570"/>
      <point x="20" y="570" type="curve" smooth="yes"/>
      <point x="167" y="570" type="line" smooth="yes"/>
      <point x="178" y="570"/>
      <point x="187" y="561"/>
      <point x="187" y="550" type="curve" smooth="yes"/>
      <point x="187" y="539"/>
      <point x="178" y="530"/>
    </contour>
  </outline>
</glyph>
<glyph name="iogonek" format="1">
  <advance width="187"/>
  <unicode hex="012F"/>
  <outline>
    <contour>
      <point x="107" y="612" type="curve" smooth="yes"/>
      <point x="128" y="612"/>
      <point x="146" y="594"/>
      <point x="146" y="565" type="curve" smooth="yes"/>
      <point x="146" y="535"/>
      <point x="128" y="520"/>
      <point x="108" y="520" type="curve" smooth="yes"/>
      <point x="85" y="520"/>
      <point x="68" y="537"/>
      <point x="68" y="565" type="curve" smooth="yes"/>
      <point x="68" y="594"/>
      <point x="84" y="612"/>
    </contour>
    <contour>
      <point x="87" y="15" type="curve" smooth="yes"/>
      <point x="87" y="374" type="line" smooth="yes"/>
      <point x="87" y="385"/>
      <point x="96" y="394"/>
      <point x="107" y="394" type="curve" smooth="yes"/>
      <point x="118" y="394"/>
      <point x="127" y="385"/>
      <point x="127" y="374" type="curve" smooth="yes"/>
      <point x="127" y="15" type="line" smooth="yes"/>
      <point x="127" y="4"/>
      <point x="118" y="-5"/>
      <point x="107" y="-5" type="curve" smooth="yes"/>
      <point x="96" y="-5"/>
      <point x="87" y="4"/>
    </contour>
    <contour>
      <point x="107" y="572" type="curve" smooth="yes"/>
      <point x="104" y="572"/>
      <point x="108" y="564"/>
      <point x="108" y="565" type="curve"/>
      <point x="108" y="565"/>
      <point x="105" y="560"/>
      <point x="108" y="560" type="curve" smooth="yes"/>
      <point x="110" y="560"/>
      <point x="106" y="567"/>
      <point x="106" y="565" type="curve" smooth="yes"/>
      <point x="106" y="564"/>
      <point x="110" y="572"/>
    </contour>
    <contour>
      <point x="127" y="14" type="curve" smooth="yes"/>
      <point x="127" y="-23" type="line" smooth="yes"/>
      <point x="127" y="-28"/>
      <point x="124" y="-35"/>
      <point x="120" y="-38" type="curve" smooth="yes"/>
      <point x="40" y="-104"/>
      <point x="19" y="-129"/>
      <point x="19" y="-154" type="curve"/>
      <point x="19" y="-185"/>
      <point x="67" y="-197"/>
      <point x="123" y="-197" type="curve" smooth="yes"/>
      <point x="134" y="-197"/>
      <point x="143" y="-206"/>
      <point x="143" y="-217" type="curve" smooth="yes"/>
      <point x="143" y="-228"/>
      <point x="134" y="-237"/>
      <point x="123" y="-237" type="curve" smooth="yes"/>
      <point x="15" y="-237"/>
      <point x="-21" y="-197"/>
      <point x="-21" y="-154" type="curve" smooth="yes"/>
      <point x="-21" y="-123"/>
      <point x="-6" y="-90"/>
      <point x="94" y="-8" type="curve"/>
      <point x="87" y="-23" type="line"/>
      <point x="87" y="14" type="line" smooth="yes"/>
      <point x="87" y="25"/>
      <point x="96" y="34"/>
      <point x="107" y="34" type="curve" smooth="yes"/>
      <point x="118" y="34"/>
      <point x="127" y="25"/>
    </contour>
  </outline>
</glyph>
<glyph name="Idotaccent" format="1">
  <advance width="239"/>
  <unicode hex="0130"/>
  <outline>
    <contour>
      <point x="120" y="752" type="curve" smooth="yes"/>
      <point x="140" y="752"/>
      <point x="159" y="734"/>
      <point x="159" y="703" type="curve" smooth="yes"/>
      <point x="159" y="674"/>
      <point x="141" y="657"/>
      <point x="120" y="657" type="curve" smooth="yes"/>
      <point x="97" y="657"/>
      <point x="78" y="676"/>
      <point x="78" y="703" type="curve" smooth="yes"/>
      <point x="78" y="732"/>
      <point x="98" y="752"/>
    </contour>
    <contour>
      <point x="139" y="515" type="curve" smooth="yes"/>
      <point x="139" y="6" type="line" smooth="yes"/>
      <point x="139" y="-5"/>
      <point x="130" y="-14"/>
      <point x="119" y="-14" type="curve" smooth="yes"/>
      <point x="108" y="-14"/>
      <point x="99" y="-5"/>
      <point x="99" y="6" type="curve" smooth="yes"/>
      <point x="99" y="515" type="line" smooth="yes"/>
      <point x="99" y="526"/>
      <point x="108" y="535"/>
      <point x="119" y="535" type="curve" smooth="yes"/>
      <point x="130" y="535"/>
      <point x="139" y="526"/>
    </contour>
    <contour>
      <point x="120" y="712" type="curve" smooth="yes"/>
      <point x="116" y="712"/>
      <point x="118" y="704"/>
      <point x="118" y="703" type="curve" smooth="yes"/>
      <point x="118" y="702"/>
      <point x="117" y="697"/>
      <point x="120" y="697" type="curve" smooth="yes"/>
      <point x="123" y="697"/>
      <point x="119" y="704"/>
      <point x="119" y="703" type="curve" smooth="yes"/>
      <point x="119" y="702"/>
      <point x="124" y="712"/>
    </contour>
  </outline>
</glyph>
<glyph name="dotlessi" format="1">
  <advance width="187"/>
  <unicode hex="0131"/>
  <outline>
    <contour>
      <point x="73" y="14" type="curve" smooth="yes"/>
      <point x="73" y="374" type="line" smooth="yes"/>
      <point x="73" y="385"/>
      <point x="82" y="394"/>
      <point x="93" y="394" type="curve" smooth="yes"/>
      <point x="104" y="394"/>
      <point x="113" y="385"/>
      <point x="113" y="374" type="curve" smooth="yes"/>
      <point x="113" y="14" type="line" smooth="yes"/>
      <point x="113" y="3"/>
      <point x="104" y="-6"/>
      <point x="93" y="-6" type="curve" smooth="yes"/>
      <point x="82" y="-6"/>
      <point x="73" y="3"/>
    </contour>
  </outline>
</glyph>
<glyph name="uni0137" format="1">
  <advance width="467"/>
  <unicode hex="0137"/>
  <outline>
    <contour>
      <point x="81" y="16" type="curve" smooth="yes"/>
      <point x="81" y="553" type="line" smooth="yes"/>
      <point x="81" y="564"/>
      <point x="90" y="573"/>
      <point x="101" y="573" type="curve" smooth="yes"/>
      <point x="112" y="573"/>
      <point x="121" y="564"/>
      <point x="121" y="553" type="curve" smooth="yes"/>
      <point x="121" y="16" type="line" smooth="yes"/>
      <point x="121" y="5"/>
      <point x="112" y="-4"/>
      <point x="101" y="-4" type="curve" smooth="yes"/>
      <point x="90" y="-4"/>
      <point x="81" y="5"/>
    </contour>
    <contour>
      <point x="247" y="265" type="curve" smooth="yes"/>
      <point x="416" y="28" type="line" smooth="yes"/>
      <point x="423" y="19"/>
      <point x="420" y="6"/>
      <point x="412" y="0" type="curve" smooth="yes"/>
      <point x="403" y="-7"/>
      <point x="390" y="-4"/>
      <point x="384" y="4" type="curve" smooth="yes"/>
      <point x="215" y="241" type="line" smooth="yes"/>
      <point x="208" y="250"/>
      <point x="211" y="263"/>
      <point x="219" y="269" type="curve" smooth="yes"/>
      <point x="228" y="276"/>
      <point x="241" y="273"/>
    </contour>
    <contour>
      <point x="398" y="359" type="curve" smooth="yes"/>
      <point x="115" y="137" type="line" smooth="yes"/>
      <point x="107" y="131"/>
      <point x="94" y="132"/>
      <point x="87" y="141" type="curve" smooth="yes"/>
      <point x="81" y="149"/>
      <point x="82" y="162"/>
      <point x="91" y="169" type="curve" smooth="yes"/>
      <point x="374" y="391" type="line" smooth="yes"/>
      <point x="382" y="397"/>
      <point x="395" y="396"/>
      <point x="402" y="387" type="curve" smooth="yes"/>
      <point x="408" y="379"/>
      <point x="407" y="366"/>
    </contour>
    <contour>
      <point x="258" y="-87" type="curve" smooth="yes"/>
      <point x="265" y="-102"/>
      <point x="270" y="-118"/>
      <point x="270" y="-135" type="curve" smooth="yes"/>
      <point x="270" y="-181"/>
      <point x="235" y="-225"/>
      <point x="177" y="-252" type="curve" smooth="yes"/>
      <point x="168" y="-257"/>
      <point x="155" y="-252"/>
      <point x="151" y="-242" type="curve" smooth="yes"/>
      <point x="146" y="-233"/>
      <point x="151" y="-220"/>
      <point x="161" y="-216" type="curve" smooth="yes"/>
      <point x="201" y="-197"/>
      <point x="230" y="-169"/>
      <point x="230" y="-135" type="curve" smooth="yes"/>
      <point x="230" y="-124"/>
      <point x="227" y="-114"/>
      <point x="222" y="-105" type="curve" smooth="yes"/>
      <point x="217" y="-95"/>
      <point x="221" y="-83"/>
      <point x="231" y="-78" type="curve" smooth="yes"/>
      <point x="241" y="-73"/>
      <point x="253" y="-77"/>
    </contour>
  </outline>
</glyph>
<glyph name="Lacute" format="1">
  <advance width="452"/>
  <unicode hex="0139"/>
  <outline>
    <contour>
      <point x="134" y="515" type="curve" smooth="yes"/>
      <point x="134" y="6" type="line" smooth="yes"/>
      <point x="134" y="-5"/>
      <point x="125" y="-14"/>
      <point x="114" y="-14" type="curve" smooth="yes"/>
      <point x="103" y="-14"/>
      <point x="94" y="-5"/>
      <point x="94" y="6" type="curve" smooth="yes"/>
      <point x="94" y="515" type="line" smooth="yes"/>
      <point x="94" y="526"/>
      <point x="103" y="535"/>
      <point x="114" y="535" type="curve" smooth="yes"/>
      <point x="125" y="535"/>
      <point x="134" y="526"/>
    </contour>
    <contour>
      <point x="123" y="26" type="curve" smooth="yes"/>
      <point x="399" y="26" type="line" smooth="yes"/>
      <point x="410" y="26"/>
      <point x="419" y="17"/>
      <point x="419" y="6" type="curve" smooth="yes"/>
      <point x="419" y="-5"/>
      <point x="410" y="-14"/>
      <point x="399" y="-14" type="curve" smooth="yes"/>
      <point x="123" y="-14" type="line" smooth="yes"/>
      <point x="112" y="-14"/>
      <point x="103" y="-5"/>
      <point x="103" y="6" type="curve" smooth="yes"/>
      <point x="103" y="17"/>
      <point x="112" y="26"/>
    </contour>
    <contour>
      <point x="361" y="715" type="curve" smooth="yes"/>
      <point x="314" y="687"/>
      <point x="264" y="654"/>
      <point x="234" y="633" type="curve" smooth="yes"/>
      <point x="225" y="626"/>
      <point x="212" y="629"/>
      <point x="206" y="637" type="curve" smooth="yes"/>
      <point x="199" y="646"/>
      <point x="202" y="659"/>
      <point x="210" y="665" type="curve" smooth="yes"/>
      <point x="242" y="688"/>
      <point x="292" y="721"/>
      <point x="341" y="749" type="curve" smooth="yes"/>
      <point x="350" y="755"/>
      <point x="363" y="751"/>
      <point x="368" y="742" type="curve" smooth="yes"/>
      <point x="374" y="733"/>
      <point x="370" y="720"/>
    </contour>
  </outline>
</glyph>
<glyph name="uni013B" format="1">
  <advance width="462"/>
  <unicode hex="013B"/>
  <outline>
    <contour>
      <point x="134" y="527" type="curve" smooth="yes"/>
      <point x="134" y="17" type="line" smooth="yes"/>
      <point x="134" y="6"/>
      <point x="125" y="-3"/>
      <point x="114" y="-3" type="curve" smooth="yes"/>
      <point x="103" y="-3"/>
      <point x="94" y="6"/>
      <point x="94" y="17" type="curve" smooth="yes"/>
      <point x="94" y="527" type="line" smooth="yes"/>
      <point x="94" y="538"/>
      <point x="103" y="547"/>
      <point x="114" y="547" type="curve" smooth="yes"/>
      <point x="125" y="547"/>
      <point x="134" y="538"/>
    </contour>
    <contour>
      <point x="123" y="37" type="curve" smooth="yes"/>
      <point x="399" y="37" type="line" smooth="yes"/>
      <point x="410" y="37"/>
      <point x="419" y="28"/>
      <point x="419" y="17" type="curve" smooth="yes"/>
      <point x="419" y="6"/>
      <point x="410" y="-3"/>
      <point x="399" y="-3" type="curve" smooth="yes"/>
      <point x="123" y="-3" type="line" smooth="yes"/>
      <point x="112" y="-3"/>
      <point x="103" y="6"/>
      <point x="103" y="17" type="curve" smooth="yes"/>
      <point x="103" y="28"/>
      <point x="112" y="37"/>
    </contour>
    <contour>
      <point x="279" y="-106" type="curve" smooth="yes"/>
      <point x="288" y="-121"/>
      <point x="292" y="-137"/>
      <point x="292" y="-155" type="curve" smooth="yes"/>
      <point x="292" y="-201"/>
      <point x="258" y="-244"/>
      <point x="200" y="-272" type="curve" smooth="yes"/>
      <point x="190" y="-277"/>
      <point x="178" y="-272"/>
      <point x="173" y="-263" type="curve" smooth="yes"/>
      <point x="168" y="-253"/>
      <point x="173" y="-241"/>
      <point x="182" y="-236" type="curve" smooth="yes"/>
      <point x="222" y="-216"/>
      <point x="252" y="-189"/>
      <point x="252" y="-155" type="curve" smooth="yes"/>
      <point x="252" y="-145"/>
      <point x="250" y="-135"/>
      <point x="245" y="-126" type="curve" smooth="yes"/>
      <point x="239" y="-117"/>
      <point x="243" y="-104"/>
      <point x="252" y="-99" type="curve" smooth="yes"/>
      <point x="261" y="-93"/>
      <point x="274" y="-97"/>
    </contour>
  </outline>
</glyph>
<glyph name="lcaron" format="1">
  <advance width="339"/>
  <unicode hex="013E"/>
  <outline>
    <contour>
      <point x="326" y="571" type="curve" smooth="yes"/>
      <point x="305" y="426" type="line" smooth="yes"/>
      <point x="303" y="415"/>
      <point x="293" y="408"/>
      <point x="282" y="409" type="curve" smooth="yes"/>
      <point x="271" y="411"/>
      <point x="264" y="421"/>
      <point x="265" y="432" type="curve" smooth="yes"/>
      <point x="286" y="577" type="line" smooth="yes"/>
      <point x="288" y="588"/>
      <point x="298" y="595"/>
      <point x="309" y="594" type="curve" smooth="yes"/>
      <point x="320" y="592"/>
      <point x="327" y="582"/>
    </contour>
    <contour>
      <point x="87" y="10" type="curve" smooth="yes"/>
      <point x="87" y="546" type="line" smooth="yes"/>
      <point x="87" y="557"/>
      <point x="96" y="566"/>
      <point x="107" y="566" type="curve" smooth="yes"/>
      <point x="118" y="566"/>
      <point x="127" y="557"/>
      <point x="127" y="546" type="curve" smooth="yes"/>
      <point x="127" y="10" type="line" smooth="yes"/>
      <point x="127" y="-1"/>
      <point x="118" y="-10"/>
      <point x="107" y="-10" type="curve" smooth="yes"/>
      <point x="96" y="-10"/>
      <point x="87" y="-1"/>
    </contour>
  </outline>
</glyph>
<glyph name="Nacute" format="1">
  <advance width="637"/>
  <unicode hex="0143"/>
  <outline>
    <contour>
      <point x="134" y="515" type="curve" smooth="yes"/>
      <point x="134" y="6" type="line" smooth="yes"/>
      <point x="134" y="-5"/>
      <point x="125" y="-14"/>
      <point x="114" y="-14" type="curve" smooth="yes"/>
      <point x="103" y="-14"/>
      <point x="94" y="-5"/>
      <point x="94" y="6" type="curve" smooth="yes"/>
      <point x="94" y="515" type="line" smooth="yes"/>
      <point x="94" y="526"/>
      <point x="103" y="535"/>
      <point x="114" y="535" type="curve" smooth="yes"/>
      <point x="125" y="535"/>
      <point x="134" y="526"/>
    </contour>
    <contour>
      <point x="543" y="515" type="curve" smooth="yes"/>
      <point x="543" y="6" type="line" smooth="yes"/>
      <point x="543" y="-5"/>
      <point x="534" y="-14"/>
      <point x="523" y="-14" type="curve" smooth="yes"/>
      <point x="512" y="-14"/>
      <point x="503" y="-5"/>
      <point x="503" y="6" type="curve" smooth="yes"/>
      <point x="503" y="515" type="line" smooth="yes"/>
      <point x="503" y="526"/>
      <point x="512" y="535"/>
      <point x="523" y="535" type="curve" smooth="yes"/>
      <point x="534" y="535"/>
      <point x="543" y="526"/>
    </contour>
    <contour>
      <point x="136" y="527" type="curve" smooth="yes"/>
      <point x="215" y="422"/>
      <point x="420" y="168"/>
      <point x="532" y="18" type="curve" smooth="yes"/>
      <point x="538" y="9"/>
      <point x="537" y="-4"/>
      <point x="528" y="-10" type="curve" smooth="yes"/>
      <point x="519" y="-16"/>
      <point x="506" y="-15"/>
      <point x="500" y="-6" type="curve" smooth="yes"/>
      <point x="388" y="144"/>
      <point x="183" y="398"/>
      <point x="104" y="503" type="curve" smooth="yes"/>
      <point x="98" y="512"/>
      <point x="99" y="524"/>
      <point x="108" y="531" type="curve" smooth="yes"/>
      <point x="117" y="537"/>
      <point x="129" y="536"/>
    </contour>
    <contour>
      <point x="465" y="705" type="curve" smooth="yes"/>
      <point x="418" y="677"/>
      <point x="368" y="644"/>
      <point x="338" y="623" type="curve" smooth="yes"/>
      <point x="329" y="616"/>
      <point x="316" y="619"/>
      <point x="310" y="627" type="curve" smooth="yes"/>
      <point x="303" y="636"/>
      <point x="306" y="649"/>
      <point x="314" y="655" type="curve" smooth="yes"/>
      <point x="346" y="678"/>
      <point x="396" y="711"/>
      <point x="445" y="739" type="curve" smooth="yes"/>
      <point x="454" y="745"/>
      <point x="467" y="741"/>
      <point x="472" y="732" type="curve" smooth="yes"/>
      <point x="478" y="723"/>
      <point x="474" y="710"/>
    </contour>
  </outline>
</glyph>
<glyph name="Ncaron" format="1">
  <advance width="637"/>
  <unicode hex="0147"/>
  <outline>
    <contour>
      <point x="134" y="515" type="curve" smooth="yes"/>
      <point x="134" y="6" type="line" smooth="yes"/>
      <point x="134" y="-5"/>
      <point x="125" y="-14"/>
      <point x="114" y="-14" type="curve" smooth="yes"/>
      <point x="103" y="-14"/>
      <point x="94" y="-5"/>
      <point x="94" y="6" type="curve" smooth="yes"/>
      <point x="94" y="515" type="line" smooth="yes"/>
      <point x="94" y="526"/>
      <point x="103" y="535"/>
      <point x="114" y="535" type="curve" smooth="yes"/>
      <point x="125" y="535"/>
      <point x="134" y="526"/>
    </contour>
    <contour>
      <point x="543" y="515" type="curve" smooth="yes"/>
      <point x="543" y="6" type="line" smooth="yes"/>
      <point x="543" y="-5"/>
      <point x="534" y="-14"/>
      <point x="523" y="-14" type="curve" smooth="yes"/>
      <point x="512" y="-14"/>
      <point x="503" y="-5"/>
      <point x="503" y="6" type="curve" smooth="yes"/>
      <point x="503" y="515" type="line" smooth="yes"/>
      <point x="503" y="526"/>
      <point x="512" y="535"/>
      <point x="523" y="535" type="curve" smooth="yes"/>
      <point x="534" y="535"/>
      <point x="543" y="526"/>
    </contour>
    <contour>
      <point x="136" y="527" type="curve" smooth="yes"/>
      <point x="215" y="422"/>
      <point x="420" y="168"/>
      <point x="532" y="18" type="curve" smooth="yes"/>
      <point x="538" y="9"/>
      <point x="537" y="-4"/>
      <point x="528" y="-10" type="curve" smooth="yes"/>
      <point x="519" y="-16"/>
      <point x="506" y="-15"/>
      <point x="500" y="-6" type="curve" smooth="yes"/>
      <point x="388" y="144"/>
      <point x="183" y="398"/>
      <point x="104" y="503" type="curve" smooth="yes"/>
      <point x="98" y="512"/>
      <point x="99" y="524"/>
      <point x="108" y="531" type="curve" smooth="yes"/>
      <point x="117" y="537"/>
      <point x="129" y="536"/>
    </contour>
    <contour>
      <point x="307" y="664" type="curve" smooth="yes"/>
      <point x="342" y="689"/>
      <point x="378" y="714"/>
      <point x="408" y="736" type="curve" smooth="yes"/>
      <point x="417" y="743"/>
      <point x="430" y="741"/>
      <point x="436" y="732" type="curve" smooth="yes"/>
      <point x="443" y="723"/>
      <point x="441" y="710"/>
      <point x="432" y="704" type="curve" smooth="yes"/>
      <point x="402" y="682"/>
      <point x="366" y="657"/>
      <point x="331" y="632" type="curve" smooth="yes"/>
      <point x="322" y="625"/>
      <point x="309" y="628"/>
      <point x="303" y="636" type="curve" smooth="yes"/>
      <point x="296" y="645"/>
      <point x="299" y="658"/>
    </contour>
    <contour>
      <point x="223" y="736" type="curve" smooth="yes"/>
      <point x="252" y="714"/>
      <point x="288" y="689"/>
      <point x="323" y="664" type="curve" smooth="yes"/>
      <point x="332" y="658"/>
      <point x="335" y="645"/>
      <point x="328" y="637" type="curve" smooth="yes"/>
      <point x="322" y="628"/>
      <point x="309" y="625"/>
      <point x="301" y="632" type="curve" smooth="yes"/>
      <point x="264" y="657"/>
      <point x="228" y="682"/>
      <point x="199" y="704" type="curve" smooth="yes"/>
      <point x="190" y="711"/>
      <point x="189" y="723"/>
      <point x="195" y="732" type="curve" smooth="yes"/>
      <point x="202" y="741"/>
      <point x="214" y="742"/>
    </contour>
  </outline>
</glyph>
<glyph name="oe" format="1">
  <advance width="837"/>
  <unicode hex="0153"/>
  <outline>
    <contour>
      <point x="254" y="398" type="curve" smooth="yes"/>
      <point x="379" y="398"/>
      <point x="457" y="304"/>
      <point x="457" y="189" type="curve" smooth="yes"/>
      <point x="457" y="77"/>
      <point x="379" y="-10"/>
      <point x="254" y="-10" type="curve" smooth="yes"/>
      <point x="131" y="-10"/>
      <point x="52" y="78"/>
      <point x="52" y="191" type="curve"/>
      <point x="52" y="304"/>
      <point x="129" y="398"/>
    </contour>
    <contour>
      <point x="254" y="358" type="curve" smooth="yes"/>
      <point x="153" y="358"/>
      <point x="92" y="282"/>
      <point x="92" y="191" type="curve" smooth="yes"/>
      <point x="92" y="100"/>
      <point x="155" y="30"/>
      <point x="254" y="30" type="curve" smooth="yes"/>
      <point x="353" y="30"/>
      <point x="417" y="99"/>
      <point x="417" y="189" type="curve" smooth="yes"/>
      <point x="417" y="282"/>
      <point x="355" y="358"/>
    </contour>
    <contour>
      <point x="449" y="213" type="curve" smooth="yes"/>
      <point x="668" y="213" type="line" smooth="yes"/>
      <point x="712" y="213"/>
      <point x="734" y="227"/>
      <point x="734" y="258" type="curve" smooth="yes"/>
      <point x="734" y="301"/>
      <point x="684" y="354"/>
      <point x="611" y="354" type="curve" smooth="yes"/>
      <point x="524" y="354"/>
      <point x="455" y="287"/>
      <point x="455" y="189" type="curve" smooth="yes"/>
      <point x="455" y="87"/>
      <point x="529" y="34"/>
      <point x="632" y="34" type="curve" smooth="yes"/>
      <point x="667" y="34"/>
      <point x="702" y="42"/>
      <point x="727" y="52" type="curve" smooth="yes"/>
      <point x="737" y="56"/>
      <point x="749" y="50"/>
      <point x="753" y="40" type="curve" smooth="yes"/>
      <point x="757" y="30"/>
      <point x="751" y="18"/>
      <point x="741" y="14" type="curve" smooth="yes"/>
      <point x="712" y="4"/>
      <point x="673" y="-6"/>
      <point x="632" y="-6" type="curve" smooth="yes"/>
      <point x="503" y="-6"/>
      <point x="415" y="63"/>
      <point x="415" y="189" type="curve" smooth="yes"/>
      <point x="415" y="312"/>
      <point x="504" y="394"/>
      <point x="611" y="394" type="curve" smooth="yes"/>
      <point x="714" y="394"/>
      <point x="774" y="315"/>
      <point x="774" y="258" type="curve" smooth="yes"/>
      <point x="774" y="209"/>
      <point x="750" y="173"/>
      <point x="668" y="173" type="curve" smooth="yes"/>
      <point x="449" y="173" type="line" smooth="yes"/>
      <point x="438" y="173"/>
      <point x="429" y="182"/>
      <point x="429" y="193" type="curve" smooth="yes"/>
      <point x="429" y="204"/>
      <point x="438" y="213"/>
    </contour>
  </outline>
</glyph>
<glyph name="uni0156" format="1">
  <advance width="538"/>
  <unicode hex="0156"/>
  <outline>
    <contour>
      <point x="131" y="246" type="curve" smooth="yes"/>
      <point x="269" y="246" type="line" smooth="yes"/>
      <point x="370" y="246"/>
      <point x="423" y="304"/>
      <point x="423" y="376" type="curve" smooth="yes"/>
      <point x="423" y="455"/>
      <point x="360" y="507"/>
      <point x="269" y="507" type="curve" smooth="yes"/>
      <point x="114" y="507" type="line"/>
      <point x="134" y="527" type="line"/>
      <point x="134" y="17" type="line" smooth="yes"/>
      <point x="134" y="6"/>
      <point x="125" y="-3"/>
      <point x="114" y="-3" type="curve" smooth="yes"/>
      <point x="103" y="-3"/>
      <point x="94" y="6"/>
      <point x="94" y="17" type="curve" smooth="yes"/>
      <point x="94" y="527" type="line" smooth="yes"/>
      <point x="94" y="538"/>
      <point x="103" y="547"/>
      <point x="114" y="547" type="curve" smooth="yes"/>
      <point x="269" y="547" type="line" smooth="yes"/>
      <point x="388" y="547"/>
      <point x="463" y="475"/>
      <point x="463" y="376" type="curve" smooth="yes"/>
      <point x="463" y="286"/>
      <point x="400" y="206"/>
      <point x="269" y="206" type="curve" smooth="yes"/>
      <point x="131" y="206" type="line" smooth="yes"/>
      <point x="120" y="206"/>
      <point x="111" y="215"/>
      <point x="111" y="226" type="curve" smooth="yes"/>
      <point x="111" y="237"/>
      <point x="120" y="246"/>
    </contour>
    <contour>
      <point x="314" y="233" type="curve" smooth="yes"/>
      <point x="487" y="30" type="line" smooth="yes"/>
      <point x="494" y="22"/>
      <point x="493" y="9"/>
      <point x="485" y="2" type="curve" smooth="yes"/>
      <point x="477" y="-5"/>
      <point x="464" y="-4"/>
      <point x="457" y="4" type="curve" smooth="yes"/>
      <point x="284" y="207" type="line" smooth="yes"/>
      <point x="277" y="215"/>
      <point x="278" y="228"/>
      <point x="286" y="235" type="curve" smooth="yes"/>
      <point x="294" y="242"/>
      <point x="307" y="241"/>
    </contour>
    <contour>
      <point x="287" y="-107" type="curve" smooth="yes"/>
      <point x="294" y="-122"/>
      <point x="298" y="-138"/>
      <point x="298" y="-155" type="curve" smooth="yes"/>
      <point x="298" y="-201"/>
      <point x="264" y="-244"/>
      <point x="206" y="-272" type="curve" smooth="yes"/>
      <point x="196" y="-277"/>
      <point x="184" y="-272"/>
      <point x="179" y="-263" type="curve" smooth="yes"/>
      <point x="174" y="-253"/>
      <point x="179" y="-241"/>
      <point x="188" y="-236" type="curve" smooth="yes"/>
      <point x="228" y="-216"/>
      <point x="258" y="-189"/>
      <point x="258" y="-155" type="curve" smooth="yes"/>
      <point x="258" y="-144"/>
      <point x="256" y="-134"/>
      <point x="251" y="-125" type="curve" smooth="yes"/>
      <point x="246" y="-115"/>
      <point x="250" y="-103"/>
      <point x="260" y="-98" type="curve" smooth="yes"/>
      <point x="270" y="-93"/>
      <point x="282" y="-97"/>
    </contour>
  </outline>
</glyph>
